<?xml version="1.0" encoding="utf-8" standalone="no"?>
<!DOCTYPE svg PUBLIC "-//W3C//DTD SVG 1.1//EN"
  "http://www.w3.org/Graphics/SVG/1.1/DTD/svg11.dtd">
<svg xmlns:xlink="http://www.w3.org/1999/xlink" width="460.8pt" height="345.6pt" viewBox="0 0 460.8 345.6" xmlns="http://www.w3.org/2000/svg" version="1.1">
 <metadata>
  <rdf:RDF xmlns:dc="http://purl.org/dc/elements/1.1/" xmlns:cc="http://creativecommons.org/ns#" xmlns:rdf="http://www.w3.org/1999/02/22-rdf-syntax-ns#">
   <cc:Work>
    <dc:type rdf:resource="http://purl.org/dc/dcmitype/StillImage"/>
    <dc:date>2022-12-21T13:04:52.837482</dc:date>
    <dc:format>image/svg+xml</dc:format>
    <dc:creator>
     <cc:Agent>
      <dc:title>Matplotlib v3.6.2, https://matplotlib.org/</dc:title>
     </cc:Agent>
    </dc:creator>
   </cc:Work>
  </rdf:RDF>
 </metadata>
 <defs>
  <style type="text/css">*{stroke-linejoin: round; stroke-linecap: butt}</style>
 </defs>
 <g id="figure_1">
  <g id="patch_1">
   <path d="M 0 345.6 
L 460.8 345.6 
L 460.8 0 
L 0 0 
z
" style="fill: #ffffff"/>
  </g>
  <g id="axes_1">
   <g id="line2d_1">
    <path d="M 384.443945 64.025584 
L 398.487272 53.568001 
L 73.832728 295.487999 
L 362.01088 80.879318 
L 396.273538 55.389594 
L 76.021707 293.689506 
L 368.146082 76.451633 
L 394.109009 57.165306 
L 78.162084 291.936258 
L 371.875978 73.818112 
L 391.992484 58.896402 
L 80.255048 290.227004 
L 375.684772 71.129908 
L 389.922791 60.584113 
L 82.301758 288.560538 
L 379.590744 68.373612 
L 387.898784 62.22963 
L 84.303343 286.93568 
L 383.288729 65.775334 
L 385.919345 63.834115 
L 180.647659 215.608327 
L 86.260908 285.351288 
L 383.983389 65.398698 
L 94.391925 279.223467 
L 88.175522 283.806243 
L 382.089849 66.924471 
L 170.473674 222.959774 
L 91.880079 280.829911 
L 378.425922 69.863844 
L 354.364275 87.659274 
L 376.653533 71.279484 
L 95.425092 277.998385 
L 325.774882 108.813936 
L 373.223117 74.007581 
L 98.818248 275.303821 
L 333.842051 103.032415 
L 369.939046 76.604308 
L 102.066844 272.738807 
L 341.490229 97.569167 
L 366.794279 79.076778 
L 105.177844 270.296336 
L 350.08552 91.423674 
L 363.782133 81.431706 
L 108.157841 267.969788 
L 359.277567 84.853428 
L 360.896233 83.675439 
L 111.013137 265.752903 
L 316.738254 115.971299 
L 356.79093 86.845581 
L 115.075259 262.620346 
L 342.081128 97.67667 
L 352.936936 89.797834 
L 118.889137 259.702686 
L 332.496236 104.771914 
L 348.158597 93.424996 
L 123.618382 256.117395 
L 338.708508 100.407849 
L 342.711006 97.513764 
L 129.010952 252.074891 
L 329.889487 106.922862 
L 332.476956 105.055195 
L 139.145148 244.61542 
L 156.432092 232.26977 
L 154.658688 233.553332 
L 316.275401 116.610112 
L 161.333515 228.85994 
L 159.716421 230.033445 
L 311.25803 120.100091 
L 164.440073 226.743291 
L 163.644742 227.32211 
L 307.358775 122.790456 
L 168.388457 224.008059 
L 167.0966 224.950731 
L 303.930661 125.145117 
L 175.315748 219.091993 
L 170.479065 222.631345 
L 300.569502 127.449848 
L 178.273871 217.065173 
L 173.757646 220.380793 
L 297.309655 129.687803 
L 178.474186 217.0559 
L 176.916142 218.203643 
L 294.167129 131.854472 
L 183.434445 213.540397 
L 180.39016 215.790667 
L 290.708517 134.257513 
L 279.632483 142.384673 
" clip-path="url(#pd52894c1dd)" style="fill: none; stroke: #000000; stroke-width: 0.1; stroke-linecap: square"/>
   </g>
  </g>
 </g>
 <defs>
  <clipPath id="pd52894c1dd">
   <rect x="57.6" y="41.472" width="357.12" height="266.112"/>
  </clipPath>
 </defs>
</svg>
