<?xml version="1.0" encoding="utf-8" standalone="no"?>
<!DOCTYPE svg PUBLIC "-//W3C//DTD SVG 1.1//EN"
  "http://www.w3.org/Graphics/SVG/1.1/DTD/svg11.dtd">
<svg xmlns:xlink="http://www.w3.org/1999/xlink" width="460.8pt" height="345.6pt" viewBox="0 0 460.8 345.6" xmlns="http://www.w3.org/2000/svg" version="1.1">
 <metadata>
  <rdf:RDF xmlns:dc="http://purl.org/dc/elements/1.1/" xmlns:cc="http://creativecommons.org/ns#" xmlns:rdf="http://www.w3.org/1999/02/22-rdf-syntax-ns#">
   <cc:Work>
    <dc:type rdf:resource="http://purl.org/dc/dcmitype/StillImage"/>
    <dc:date>2022-12-21T13:09:19.546773</dc:date>
    <dc:format>image/svg+xml</dc:format>
    <dc:creator>
     <cc:Agent>
      <dc:title>Matplotlib v3.6.2, https://matplotlib.org/</dc:title>
     </cc:Agent>
    </dc:creator>
   </cc:Work>
  </rdf:RDF>
 </metadata>
 <defs>
  <style type="text/css">*{stroke-linejoin: round; stroke-linecap: butt}</style>
 </defs>
 <g id="figure_1">
  <g id="patch_1">
   <path d="M 0 345.6 
L 460.8 345.6 
L 460.8 0 
L 0 0 
z
" style="fill: #ffffff"/>
  </g>
  <g id="axes_1">
   <g id="line2d_1">
    <path d="M 271.954791 185.705354 
L 274.41956 188.770453 
L 276.709138 191.972173 
L 278.81875 195.304135 
L 280.74479 198.761732 
L 282.481253 202.335847 
L 284.023497 206.018896 
L 285.366915 209.802816 
L 286.506306 213.676622 
L 287.437015 217.628557 
L 288.155348 221.648561 
L 288.657227 225.720963 
L 288.93986 229.831748 
L 289.001181 233.963679 
L 288.840394 238.098846 
L 288.458009 242.2188 
L 287.85586 246.304698 
L 287.037117 250.337464 
L 286.007688 254.293091 
L 284.774165 258.152831 
L 283.344385 261.898342 
L 281.729539 265.507365 
L 279.940482 268.963381 
L 277.990363 272.248841 
L 275.893636 275.3478 
L 273.664365 278.24802 
L 271.317176 280.938844 
L 268.867119 283.411298 
L 266.327733 285.659666 
L 263.714273 287.678157 
L 261.0401 289.464024 
L 258.318237 291.015786 
L 255.559244 292.334083 
L 252.773034 293.420089 
L 249.968894 294.275423 
L 247.155514 294.902059 
L 244.338793 295.302474 
L 241.524012 295.478643 
L 238.715939 295.431943 
L 235.921203 295.163375 
L 233.141605 294.672934 
L 230.381006 293.959743 
L 227.645439 293.022918 
L 224.938672 291.860363 
L 222.264589 290.469043 
L 219.629474 288.846404 
L 217.039801 286.989699 
L 214.500209 284.894161 
L 212.017877 282.556099 
L 209.602328 279.973902 
L 207.26136 277.144215 
L 205.005024 274.066236 
L 202.841806 270.737113 
L 200.782316 267.157039 
L 198.838824 263.33026 
L 197.020438 259.25593 
L 195.33934 254.940529 
L 193.806067 250.388516 
L 192.432117 245.60927 
L 191.227423 240.609809 
L 190.202457 235.402412 
L 189.366819 230.001006 
L 188.7287 224.416589 
L 188.296126 218.665756 
L 188.075965 212.766535 
L 188.073921 206.733399 
L 188.294816 200.586558 
L 188.742086 194.347289 
L 189.417717 188.03777 
L 190.322194 181.680891 
L 191.455478 175.294879 
L 192.815537 168.903374 
L 194.400167 162.524985 
L 196.204796 156.183508 
L 198.223316 149.902565 
L 200.448129 143.705378 
L 202.872313 137.60947 
L 205.488277 131.631805 
L 208.28533 125.793654 
L 211.254162 120.110386 
L 214.382158 114.601275 
L 217.658574 109.279638 
L 221.072296 104.157812 
L 224.608669 99.251435 
L 228.255619 94.570322 
L 232.000922 90.123174 
L 235.832265 85.917574 
L 239.733603 81.963587 
L 243.696121 78.262571 
L 247.703723 74.821954 
L 251.748048 71.641286 
L 255.813198 68.725414 
L 259.891428 66.072219 
L 263.971384 63.681787 
L 268.042021 61.553264 
L 272.092646 59.684891 
L 276.112946 58.074049 
L 280.097223 56.715999 
L 284.036007 55.607292 
L 287.920237 54.743768 
L 291.745444 54.120048 
L 295.503351 53.73144 
L 299.190179 53.572625 
L 302.802374 53.638748 
L 306.332558 53.925001 
L 309.777604 54.426796 
L 313.130616 55.13914 
L 316.388754 56.0578 
L 319.549134 57.179108 
L 322.608748 58.499958 
L 325.564391 60.017798 
L 328.409295 61.728477 
L 331.140038 63.629811 
L 333.752836 65.720126 
L 336.240597 67.995419 
L 338.599073 70.454287 
L 340.820943 73.092516 
L 342.898996 75.905448 
L 344.828344 78.891619 
L 346.603477 82.049893 
L 348.214605 85.371369 
L 349.65445 88.850107 
L 350.917278 92.484056 
L 351.994338 96.262294 
L 352.87981 100.182119 
L 353.565792 104.231316 
L 354.046016 108.401578 
L 354.31431 112.679098 
L 354.365701 117.059554 
L 354.195195 121.528134 
L 353.798626 126.074652 
L 353.173104 130.683197 
L 352.314982 135.348317 
L 351.222807 140.053514 
L 349.895014 144.787502 
L 348.33251 149.533297 
L 346.535573 154.2794 
L 344.502469 159.019932 
L 342.236498 163.737866 
L 339.742615 168.416327 
L 337.020663 173.04973 
L 334.073551 177.627064 
L 330.904716 182.137514 
L 327.518119 186.570492 
L 323.918244 190.915664 
L 320.110087 195.162986 
L 316.099158 199.302727 
L 311.891463 203.325506 
L 307.493507 207.222309 
L 302.906591 210.989019 
L 298.143406 214.612621 
L 293.205771 218.089493 
L 288.101455 221.411779 
L 282.832197 224.575826 
L 277.41289 227.570514 
L 271.845894 230.392705 
L 266.140421 233.035772 
L 260.299001 235.496476 
L 254.33879 237.76586 
L 248.263096 239.841268 
L 242.082836 241.717478 
L 235.801816 243.391752 
L 229.439557 244.857641 
L 223.000836 246.11313 
L 216.498616 247.154705 
L 209.938558 247.980397 
L 203.342678 248.586712 
L 196.717832 248.972632 
L 190.079402 249.136805 
L 183.443412 249.078711 
L 176.826502 248.7987 
L 170.24591 248.298021 
L 163.719436 247.578861 
L 157.265414 246.644368 
L 150.910013 245.500136 
L 144.67202 244.152007 
L 138.570501 242.606795 
L 132.63153 240.874405 
L 126.873884 238.964198 
L 121.328938 236.891418 
L 116.019797 234.670875 
L 110.968032 232.318671 
L 106.193437 229.851987 
L 101.718921 227.291949 
L 97.563832 224.660726 
L 93.743635 221.981117 
L 90.26559 219.272776 
L 87.141517 216.561725 
L 84.370692 213.866744 
L 81.949442 211.205544 
L 79.873775 208.598033 
L 78.133212 206.059227 
L 76.714643 203.60253 
L 75.6011 201.236275 
L 74.773843 198.963921 
L 74.215044 196.787707 
L 73.907887 194.708837 
L 73.836792 192.721404 
L 73.989771 190.822521 
L 74.358186 189.006263 
L 74.937377 187.267212 
L 75.728137 185.597985 
L 76.732936 183.997909 
L 77.961221 182.462137 
L 79.425342 180.990224 
L 81.141762 179.583546 
L 83.124494 178.249647 
L 85.392505 176.995233 
L 87.967532 175.828846 
L 90.865089 174.76401 
L 94.105138 173.813522 
L 97.708656 172.991533 
L 101.691792 172.314402 
L 106.069762 171.798912 
L 110.856625 171.462133 
L 116.065043 171.321268 
L 121.713334 171.393703 
L 127.804021 171.696677 
L 134.351996 172.247428 
L 141.362607 173.062514 
L 148.847056 174.15888 
L 156.805392 175.551589 
L 165.243298 177.255988 
L 174.173156 179.288802 
L 183.584501 181.661188 
L 193.492026 184.38983 
L 203.89606 187.487643 
L 214.811978 190.971838 
L 226.237418 194.853934 
L 238.192485 199.152668 
L 250.695346 203.886463 
L 263.789006 209.083648 
L 277.531217 214.779595 
L 292.039176 221.036111 
L 307.549482 227.970409 
L 324.636924 235.858785 
L 345.749835 245.865689 
L 374.53765 259.506695 
L 383.044803 263.279965 
L 388.55105 265.494443 
L 392.258682 266.761485 
L 394.746862 267.392912 
L 396.372788 267.593305 
L 397.394565 267.512762 
L 398.002431 267.258281 
L 398.337951 266.88721 
L 398.480021 266.394251 
L 398.430549 265.71882 
L 398.123209 264.771931 
L 397.441707 263.442336 
L 396.232082 261.601065 
L 394.297962 259.085928 
L 391.399061 255.701203 
L 387.248198 251.214044 
L 381.502218 245.345715 
L 373.789771 237.800795 
L 363.755476 228.307543 
L 351.210849 216.754765 
L 336.316589 203.346569 
L 319.724698 188.711913 
L 302.385855 173.714473 
L 285.180998 159.124578 
L 268.721473 145.454602 
L 253.318752 132.946936 
L 239.102379 121.684241 
L 226.093253 111.656728 
L 214.2788 102.825449 
L 203.588691 95.106832 
L 193.968918 88.429687 
L 185.348529 82.710976 
L 177.655593 77.868211 
L 170.820527 73.821855 
L 164.770477 70.492375 
L 159.44619 67.809754 
L 154.786612 65.7043 
L 150.724884 64.106295 
L 147.208273 62.954731 
L 144.174795 62.188576 
L 141.576406 61.754746 
L 139.358927 61.603194 
L 137.47385 61.691014 
L 135.878277 61.982161 
L 134.529108 62.449588 
L 133.391406 63.075488 
L 132.435844 63.85263 
L 131.638435 64.788107 
L 130.989394 65.895546 
L 130.487616 67.197515 
L 130.140466 68.729281 
L 129.967082 70.525184 
L 129.993456 72.621716 
L 130.252143 75.065297 
L 130.781339 77.898513 
L 131.623744 81.16698 
L 132.824226 84.912514 
L 134.432309 89.183453 
L 136.494384 94.014182 
L 139.055007 99.434375 
L 142.155636 105.467381 
L 145.83319 112.12844 
L 150.118431 119.422755 
L 155.022307 127.324783 
L 160.542081 135.792503 
L 166.660136 144.766702 
L 173.335892 154.160823 
L 180.496266 163.851153 
L 188.06517 173.719252 
L 195.936435 183.616093 
L 203.99138 193.387385 
L 212.095437 202.870594 
L 220.127523 211.929855 
L 227.953501 220.424775 
L 235.455587 228.24402 
L 242.521926 235.293209 
L 249.072718 241.520228 
L 255.046645 246.8987 
L 260.390607 251.418275 
L 265.086312 255.106664 
L 269.130446 258.009815 
L 272.548305 260.19956 
L 275.375029 261.757 
L 277.661718 262.774257 
L 279.472603 263.348095 
L 280.875361 263.571235 
L 281.944617 263.52697 
L 282.746731 263.280244 
L 283.344127 262.869055 
L 283.779724 262.298457 
L 284.070184 261.54214 
L 284.203051 260.553057 
L 284.141753 259.270352 
L 283.831481 257.629419 
L 283.205706 255.565343 
L 282.194674 253.025027 
L 280.729949 249.965548 
L 278.752474 246.36475 
L 276.221187 242.228908 
L 273.121704 237.598969 
L 269.460636 232.536331 
L 265.283621 227.144014 
L 260.654493 221.53378 
L 255.659275 215.830683 
L 250.401796 210.165836 
L 244.992019 204.662641 
L 239.533052 199.42473 
L 234.133467 194.549217 
L 228.89062 190.111018 
L 223.886781 186.161823 
L 219.192589 182.734964 
L 214.8651 179.845232 
L 210.946505 177.489538 
L 207.463567 175.648324 
L 204.427756 174.287584 
L 201.836051 173.361338 
L 199.665616 172.813093 
L 197.885734 172.583804 
L 196.454751 172.614476 
L 195.323845 172.852656 
L 194.445891 173.257646 
L 193.777079 173.806241 
L 193.285422 174.496499 
L 192.958282 175.344801 
L 192.803686 176.379876 
L 192.847797 177.636249 
L 193.13042 179.148913 
L 193.700814 180.951109 
L 194.607773 183.05808 
L 195.900124 185.482422 
L 197.612984 188.211676 
L 199.7725 191.225533 
L 202.38429 194.482126 
L 205.440893 197.932689 
L 208.913333 201.513815 
L 212.766879 205.166288 
L 216.961171 208.833475 
L 221.439854 212.45281 
L 226.152448 215.974776 
L 231.044555 219.353475 
L 236.067523 222.55305 
L 241.181337 225.547564 
L 246.338952 228.310909 
L 251.503743 230.826807 
L 256.641752 233.083336 
L 261.721858 235.072695 
L 266.715885 236.790936 
L 271.598668 238.237657 
L 276.357459 239.417784 
L 280.982263 240.337228 
L 285.446962 241.000184 
L 289.755725 241.416896 
L 293.887198 241.595119 
L 297.849161 241.545127 
L 301.624286 241.277162 
L 305.22288 240.80054 
L 308.638954 240.125291 
L 311.868035 239.262279 
L 314.921932 238.217377 
L 317.797019 236.999811 
L 320.497508 235.61554 
L 323.020814 234.07334 
L 325.37126 232.377674 
L 327.558079 230.526398 
L 329.577562 228.525356 
L 331.426552 226.380772 
L 333.111125 224.086362 
L 334.626489 221.646569 
L 335.971645 219.059024 
L 337.14404 216.320224 
L 338.136999 213.433627 
L 338.946014 210.394885 
L 339.56334 207.207508 
L 339.981452 203.875649 
L 340.193356 200.394785 
L 340.190352 196.769518 
L 339.963995 193.005256 
L 339.506144 189.108239 
L 338.806926 185.075161 
L 337.859818 180.923977 
L 336.661219 176.67442 
L 335.202653 172.325853 
L 333.482906 167.900025 
L 331.493488 163.397646 
L 329.241663 158.853567 
L 326.72102 154.270009 
L 323.937644 149.672168 
L 320.893185 145.074516 
L 317.59844 140.503024 
L 314.058478 135.972549 
L 310.279127 131.498025 
L 306.277035 127.105057 
L 302.061149 122.807897 
L 297.641032 118.620507 
L 293.038439 114.566361 
L 288.253395 110.648167 
L 283.309564 106.887785 
L 278.219813 103.296251 
L 273.010601 99.892268 
L 267.682699 96.676195 
L 262.26356 93.66427 
L 256.75339 90.856088 
L 251.180321 88.265273 
L 245.558677 85.896626 
L 239.902588 83.754053 
L 234.225948 81.840576 
L 228.542373 80.158353 
L 222.865162 78.708703 
L 217.191907 77.489128 
L 211.550487 76.503558 
L 205.953153 75.750954 
L 200.411712 75.229545 
L 194.937507 74.936853 
L 189.541388 74.869736 
L 184.218695 75.025175 
L 178.994589 75.399302 
L 173.863797 75.989195 
L 168.85023 76.788635 
L 163.948066 77.794917 
L 159.179794 78.99962 
L 154.539109 80.400367 
L 150.033697 81.991729 
L 145.670806 83.767886 
L 141.457242 85.722652 
L 137.399361 87.849506 
L 133.503065 90.141621 
L 129.762585 92.599669 
L 126.195058 95.20953 
L 122.794819 97.972351 
L 119.577253 100.872489 
L 116.53686 103.911597 
L 113.678524 107.082796 
L 111.006764 110.378974 
L 108.525734 113.792807 
L 106.239213 117.316783 
L 104.150605 120.943217 
L 102.257257 124.676251 
L 100.568766 128.496555 
L 99.083034 132.408549 
L 97.807681 136.391958 
L 96.741194 140.451457 
L 95.886768 144.579247 
L 95.247253 148.767349 
L 94.82515 153.00762 
L 94.6226 157.291777 
L 94.641375 161.611406 
L 94.882877 165.957988 
L 95.348125 170.322917 
L 96.037752 174.697517 
L 96.955273 179.086993 
L 98.098696 183.468588 
L 99.467465 187.833461 
L 101.066028 192.186508 
L 102.889013 196.504965 
L 104.941442 200.793463 
L 107.215665 205.029453 
L 109.717228 209.217278 
L 112.436199 213.33481 
L 115.378601 217.386089 
L 118.532234 221.349612 
L 121.903538 225.229103 
L 125.489566 229.015517 
L 129.27476 232.688644 
L 133.266053 236.251687 
L 137.459001 239.69603 
L 141.848641 243.013233 
L 146.429483 246.195059 
L 151.180635 249.224426 
L 156.109447 252.103673 
L 161.20892 254.825416 
L 166.471531 257.382587 
L 171.905909 259.775444 
L 177.48759 261.989541 
L 183.207419 264.018911 
L 189.055736 265.858031 
L 195.040389 267.506469 
L 201.133236 268.953826 
L 207.341531 270.199434 
L 213.635484 271.235179 
L 220.021654 272.060257 
L 226.468791 272.669003 
L 232.982673 273.060593 
L 239.549797 273.232132 
L 246.137081 273.181897 
L 252.748918 272.909252 
L 259.370172 272.413521 
L 265.966513 271.697177 
L 272.540809 270.760061 
L 279.076551 269.603976 
L 285.538836 268.235727 
L 291.928938 266.655912 
L 298.212045 264.874216 
L 304.388406 262.891859 
L 310.423667 260.721344 
L 316.285287 258.377975 
L 321.973719 255.865328 
L 327.457964 253.200979 
L 332.723886 250.39681 
L 337.757859 247.465191 
L 342.534 244.427446 
L 347.029901 241.306326 
L 351.238302 238.116587 
L 355.152932 234.872812 
L 358.758712 231.598671 
L 362.053751 228.308548 
L 365.029049 225.025757 
L 367.679944 221.773137 
L 370.012631 218.563146 
L 372.034279 215.407174 
L 373.748096 212.324968 
L 375.16941 209.316193 
L 376.30454 206.398209 
L 377.166033 203.577733 
L 377.768466 200.85149 
L 378.122821 198.224609 
L 378.240418 195.701335 
L 378.132087 193.27683 
L 377.80735 190.954444 
L 377.271435 188.721407 
L 376.529857 186.581458 
L 375.584686 184.530754 
L 374.430919 182.559447 
L 373.068463 180.672995 
L 371.491734 178.87054 
L 369.686117 177.146719 
L 367.646424 175.509917 
L 365.36804 173.968562 
L 362.82953 172.521954 
L 360.023425 171.181102 
L 356.932995 169.953443 
L 353.550554 168.8515 
L 349.858092 167.885119 
L 345.848417 167.068235 
L 341.515919 166.414594 
L 336.843338 165.936516 
L 331.812984 165.648002 
L 326.436478 165.564492 
L 320.684957 165.700085 
L 314.575459 166.068572 
L 308.082174 166.685198 
L 301.212892 167.563034 
L 293.963281 168.715527 
L 286.315846 170.158691 
L 278.292249 171.900869 
L 269.868925 173.959057 
L 261.047424 176.344992 
L 251.80503 179.076905 
L 242.134356 182.16906 
L 231.998321 185.645305 
L 221.328219 189.542096 
L 210.00463 193.917139 
L 197.712289 198.909271 
L 183.357077 204.989338 
L 156.771745 216.310604 
L 151.609556 218.226513 
L 148.317332 219.227614 
L 146.177271 219.662651 
L 144.810147 219.731379 
L 143.965038 219.568794 
L 143.468472 219.262024 
L 143.201506 218.842229 
L 143.114956 218.277436 
L 143.234567 217.493855 
L 143.643646 216.391629 
L 144.470326 214.846085 
L 145.888188 212.69662 
L 148.12614 209.732878 
L 151.476174 205.687042 
L 156.332385 200.190422 
L 163.206877 192.763375 
L 172.690489 182.861159 
L 185.086064 170.251162 
L 199.531822 155.874773 
L 213.858628 141.923892 
L 226.485182 129.929031 
L 237.068891 120.170869 
L 245.79259 112.419439 
L 252.92361 106.369384 
L 258.738384 101.716519 
L 263.445837 98.223118 
L 267.230253 95.679723 
L 270.247458 93.907469 
L 272.631916 92.75219 
L 274.497256 92.083015 
L 275.942434 91.78872 
L 277.054864 91.77826 
L 277.908283 91.983488 
L 278.568621 92.365913 
L 279.080395 92.92011 
L 279.464623 93.671665 
L 279.717934 94.673519 
L 279.813253 95.995427 
L 279.704962 97.726863 
L 279.332583 99.962506 
L 278.621736 102.820388 
L 277.483132 106.438432 
L 275.813285 110.973548 
L 273.492094 116.609712 
L 270.365739 123.595156 
L 266.236675 132.255646 
L 260.816408 143.086053 
L 253.584504 157.014594 
L 243.011709 176.853616 
L 219.480583 220.885971 
L 212.501404 234.494352 
L 207.493584 244.725394 
L 203.836912 252.680294 
L 201.200611 258.925461 
L 199.369301 263.810746 
L 198.176506 267.596376 
L 197.483289 270.500705 
L 197.177803 272.691334 
L 197.164865 274.308659 
L 197.365929 275.480535 
L 197.723461 276.311806 
L 198.206164 276.887244 
L 198.809081 277.261833 
L 199.560489 277.461496 
L 200.506295 277.474613 
L 201.712152 277.258971 
L 203.247566 276.7481 
L 205.198836 275.853667 
L 207.663667 274.46767 
L 210.747436 272.467193 
L 214.58332 269.702327 
L 219.318597 266.003848 
L 225.129125 261.172778 
L 232.239517 254.961188 
L 240.905699 247.084739 
L 251.421304 237.216696 
L 264.006919 225.091989 
L 278.369077 210.942278 
L 292.829798 196.388416 
L 304.803426 184.037538 
L 313.406216 174.863045 
L 319.227934 168.349229 
L 323.045496 163.764844 
L 325.443728 160.559677 
L 326.842208 158.345201 
L 327.550362 156.838391 
L 327.796004 155.833893 
L 327.745458 155.175513 
L 327.499589 154.741169 
L 327.076259 154.450873 
L 326.41555 154.283788 
L 325.406103 154.274904 
L 323.891327 154.500379 
L 321.65464 155.074118 
L 318.371044 156.162129 
L 313.460626 158.041679 
L 305.478466 161.360948 
L 270.645738 176.067385 
L 259.021644 180.629564 
L 248.292389 184.604638 
L 238.178792 188.116743 
L 228.599361 191.210439 
L 219.477103 193.925033 
L 210.806283 196.275816 
L 202.561018 198.28358 
L 194.722667 199.965819 
L 187.303981 201.333311 
L 180.289523 202.403031 
L 173.67834 203.189231 
L 167.464659 203.707154 
L 161.639172 203.972196 
L 156.207379 203.999537 
L 151.153859 203.805275 
L 146.478023 203.405811 
L 142.1759 202.818653 
L 138.226523 202.058938 
L 134.609782 201.139585 
L 131.331358 200.080067 
L 128.368848 198.892462 
L 125.70185 197.586372 
L 123.331181 196.181331 
L 121.227204 194.678811 
L 119.381906 193.090239 
L 117.786427 191.426874 
L 116.419741 189.683508 
L 115.277245 187.868307 
L 114.349955 185.980455 
L 113.632184 184.017544 
L 113.121626 181.975783 
L 112.819455 179.850209 
L 112.730423 177.634913 
L 112.861874 175.333875 
L 113.222975 172.940812 
L 113.823532 170.460213 
L 114.677256 167.886089 
L 115.796438 165.224078 
L 117.192954 162.480905 
L 118.878161 159.664434 
L 120.862784 156.783724 
L 123.156799 153.849063 
L 125.769307 150.872017 
L 128.696464 147.877053 
L 131.941957 144.877918 
L 135.494199 141.900619 
L 139.351279 138.960116 
L 143.493945 136.082669 
L 147.914898 133.283293 
L 152.605767 130.577155 
L 157.538187 127.988959 
L 162.699123 125.532399 
L 168.074774 123.220804 
L 173.629373 121.074823 
L 179.345718 119.104883 
L 185.206329 117.320603 
L 191.193511 115.730766 
L 197.265921 114.348198 
L 203.428308 113.173421 
L 209.638666 112.215767 
L 215.878442 111.477828 
L 222.154278 110.95956 
L 228.424214 110.664864 
L 234.671111 110.593351 
L 240.878466 110.743686 
L 247.05532 111.115576 
L 253.161438 111.705769 
L 259.182248 112.510343 
L 265.128289 113.52924 
L 270.96161 114.754168 
L 276.669829 116.179006 
L 282.264691 117.804263 
L 287.711262 119.61705 
L 293.021851 121.618406 
L 298.163824 123.792657 
L 303.149895 126.141484 
L 307.970508 128.657957 
L 312.596846 131.322677 
L 317.041857 134.138413 
L 321.297907 137.097026 
L 325.357973 140.190028 
L 329.198917 143.39401 
L 332.833405 146.713361 
L 336.25635 150.138865 
L 339.46327 153.661109 
L 342.45029 157.270515 
L 345.214131 160.957379 
L 347.752108 164.711903 
L 350.062121 168.524233 
L 352.142646 172.384489 
L 353.992721 176.282801 
L 355.611938 180.209341 
L 357.00642 184.172945 
L 358.168711 188.145577 
L 359.099969 192.11758 
L 359.801849 196.079454 
L 360.278216 200.040641 
L 360.527824 203.973142 
L 360.553333 207.88653 
L 360.356543 211.753177 
L 359.938882 215.582712 
L 359.305141 219.348148 
L 358.455493 223.059092 
L 357.392021 226.706829 
L 356.117241 230.282762 
L 354.641725 233.761836 
L 352.954573 237.169411 
L 351.066201 240.480383 
L 348.980812 243.686866 
L 346.703007 246.78121 
L 344.237785 249.756023 
L 341.577372 252.617569 
L 338.739015 255.344339 
L 335.714122 257.941769 
L 332.506928 260.401448 
L 329.138548 262.70462 
L 325.599393 264.855395 
L 321.895221 266.846121 
L 318.032329 268.669433 
L 314.017548 270.318294 
L 309.858242 271.786027 
L 305.562305 273.066354 
L 301.117625 274.157956 
L 296.552798 275.049058 
L 291.877399 275.734758 
L 287.1015 276.210704 
L 282.213691 276.473821 
L 277.246484 276.518325 
L 272.18913 276.340448 
L 267.075786 275.93771 
L 261.89651 275.305822 
L 256.686808 274.445794 
L 251.437672 273.352999 
L 246.185619 272.032088 
L 240.922683 270.478293 
L 235.686015 268.700006 
L 230.490455 266.70136 
L 225.329663 264.477717 
L 220.240862 262.043101 
L 215.23934 259.404523 
L 210.320479 256.557893 
L 205.520548 253.522721 
L 200.854776 250.308938 
L 196.356121 246.941363 
L 192.019901 243.418823 
L 187.860403 239.753724 
L 183.907039 235.974724 
L 180.170571 232.09691 
L 176.660999 228.13571 
L 173.387534 224.106833 
L 170.370273 220.042737 
L 167.613671 215.95982 
L 165.121168 211.874165 
L 162.895201 207.801479 
L 160.944749 203.773627 
L 159.260626 199.788501 
L 157.847745 195.876409 
L 156.705816 192.066059 
L 155.822981 188.352569 
L 155.195255 184.76192 
L 154.811504 181.287609 
L 154.664418 177.952726 
L 154.743855 174.749391 
L 155.039558 171.697714 
L 155.5426 168.788708 
L 156.243847 166.02704 
L 157.133871 163.416526 
L 158.208455 160.948934 
L 159.460258 158.628388 
L 160.888734 156.448465 
L 162.488295 154.414071 
L 164.252919 152.529583 
L 166.185558 150.791078 
L 168.291563 149.197073 
L 170.567621 147.754909 
L 173.009634 146.471489 
L 175.624721 145.348578 
L 178.421468 144.390648 
L 181.396385 143.607905 
L 184.558241 143.007807 
L 187.902073 142.601741 
L 191.421096 142.400196 
L 195.121455 142.413046 
L 198.993297 142.650968 
L 203.024283 143.123048 
L 207.215005 143.839549 
L 211.548066 144.807957 
L 216.002807 146.033086 
L 220.555214 147.516679 
L 225.193222 149.26319 
L 229.885162 151.269027 
L 234.580678 153.518553 
L 239.255899 156.004894 
L 243.867871 158.709588 
L 248.357249 161.59971 
L 252.676965 164.644374 
L 256.755619 167.78919 
L 260.548924 170.992575 
L 263.985834 174.182753 
L 267.018409 177.296648 
L 269.598122 180.257613 
L 271.705803 183.006334 
L 273.341852 185.495105 
L 274.519367 187.677247 
L 275.283429 189.544098 
L 275.687644 191.094598 
L 275.796032 192.354988 
L 275.668075 193.35918 
L 275.350235 194.150013 
L 274.864779 194.768627 
L 274.210616 195.239058 
L 273.365399 195.567633 
L 272.286316 195.741411 
L 270.926986 195.726928 
L 269.242853 195.478521 
L 267.192849 194.943812 
L 264.745172 194.068771 
L 261.874618 192.79988 
L 258.574732 191.09181 
L 254.863768 188.91551 
L 250.756742 186.244279 
L 246.306343 183.080016 
L 241.584494 179.446746 
L 236.669094 175.381757 
L 231.66443 170.95321 
L 226.686445 166.251185 
L 221.868189 161.395315 
L 217.350267 156.529616 
L 213.259464 151.802243 
L 209.707131 147.36403 
L 206.781839 143.362863 
L 204.515987 139.899561 
L 202.893915 137.030648 
L 201.853019 134.759931 
L 201.296205 133.041938 
L 201.11227 131.799343 
L 201.194331 130.937462 
L 201.460431 130.358666 
L 201.872369 129.98395 
L 202.443297 129.771688 
L 203.226144 129.728769 
L 204.298253 129.905462 
L 205.736986 130.3801 
L 207.62859 131.249752 
L 210.054414 132.620894 
L 213.077015 134.594682 
L 216.756049 137.272194 
L 221.113665 140.727299 
L 226.144295 145.007151 
L 231.811722 150.126397 
L 238.063047 156.077706 
L 244.78642 162.788992 
L 251.872193 170.179178 
L 259.157781 178.10098 
L 266.48197 186.394208 
L 273.662984 194.860715 
L 280.541661 203.312721 
L 286.959942 211.547387 
L 292.814756 219.415542 
L 298.029416 226.790224 
L 302.544717 233.553774 
L 306.355842 239.654268 
L 309.480813 245.065813 
L 311.957479 249.786188 
L 313.851212 253.859582 
L 315.220606 257.314066 
L 316.142465 260.222648 
L 316.680022 262.626239 
L 316.902499 264.598112 
L 316.868065 266.20377 
L 316.625864 267.494136 
L 316.213182 268.526032 
L 315.649863 269.348384 
L 314.939552 269.99497 
L 314.065079 270.487434 
L 312.997175 270.827454 
L 311.698727 271.000609 
L 310.120163 270.979557 
L 308.208174 270.724387 
L 305.899396 270.184097 
L 303.132196 269.300118 
L 299.839451 268.006912 
L 295.949398 266.232541 
L 291.387045 263.899788 
L 286.076301 260.927981 
L 279.923859 257.22381 
L 272.837094 252.69079 
L 264.730326 247.234844 
L 255.510638 240.755838 
L 245.084895 233.152017 
L 233.349838 224.312273 
L 220.291255 214.191949 
L 205.980253 202.815717 
L 190.751358 190.424052 
L 175.416324 177.66131 
L 161.355497 165.676865 
L 149.933421 155.662339 
L 141.567646 148.048214 
L 135.897929 142.60614 
L 132.289768 138.855908 
L 130.163936 136.350233 
L 129.056915 134.731403 
L 128.612593 133.72567 
L 128.566193 133.127652 
L 128.746707 132.774124 
L 129.111418 132.562578 
L 129.74571 132.474621 
L 130.802231 132.572707 
L 132.501094 132.971985 
L 135.157448 133.843044 
L 139.251766 135.438502 
L 145.719603 138.21922 
L 157.734261 143.665693 
L 183.13919 155.188939 
L 197.262231 161.329212 
L 209.938466 166.6008 
L 221.692744 171.251361 
L 232.749055 175.389583 
L 243.193644 179.063725 
L 253.042637 182.295137 
L 262.339671 185.113655 
L 271.06081 187.528287 
L 279.251555 189.568201 
L 286.884117 191.24346 
L 293.99231 192.579287 
L 300.563812 193.591419 
L 306.617004 194.301811 
L 312.130229 194.729076 
L 317.132797 194.898461 
L 321.653847 194.832817 
L 325.687736 194.555598 
L 329.253696 194.091808 
L 332.374112 193.466332 
L 335.073867 192.703516 
L 337.379735 191.826829 
L 339.329277 190.853208 
L 340.947298 189.801882 
L 342.265926 188.684404 
L 343.306925 187.516111 
L 344.100404 186.296429 
L 344.663528 185.028345 
L 345.010107 183.704603 
L 345.144069 182.314937 
L 345.060582 180.855592 
L 344.747548 179.313133 
L 344.186425 177.682352 
L 343.353567 175.958525 
L 342.226811 174.147618 
L 340.784593 172.25764 
L 339.006248 170.298827 
L 336.872338 168.28381 
L 334.377507 166.237356 
L 331.510196 164.176732 
L 328.27641 162.13059 
L 324.706828 160.13716 
L 320.809124 158.216207 
L 316.592995 156.388092 
L 312.110829 154.687988 
L 307.382788 153.132919 
L 302.430055 151.739153 
L 297.297863 150.527032 
L 292.035214 149.512451 
L 286.644747 148.699878 
L 281.176337 148.100343 
L 275.655937 147.718212 
L 270.108592 147.556188 
L 264.558336 147.615372 
L 259.002112 147.897165 
L 253.487712 148.399932 
L 248.035988 149.120394 
L 242.666512 150.053955 
L 237.397534 151.194797 
L 232.220893 152.543076 
L 227.178088 154.085767 
L 222.259435 155.823018 
L 217.503221 157.737884 
L 212.898481 159.830749 
L 208.457884 162.093056 
L 204.19311 164.51548 
L 200.135204 167.074467 
L 196.252162 169.785643 
L 192.573866 172.625072 
L 189.107941 175.581044 
L 185.860991 178.641434 
L 182.838614 181.793767 
L 180.031285 185.04254 
L 177.45909 188.358383 
L 175.124764 191.728014 
L 173.019554 195.156359 
L 171.157312 198.612207 
L 169.538018 202.082064 
L 168.153996 205.571242 
L 167.01279 209.047865 
L 166.107593 212.517392 
L 165.441796 215.948074 
L 165.011257 219.327211 
L 164.811111 222.64251 
L 164.836567 225.899757 
L 165.08311 229.069166 
L 165.543911 232.139751 
L 166.211595 235.101111 
L 167.078286 237.943456 
L 168.142141 240.672555 
L 169.390043 243.263587 
L 170.81279 245.708605 
L 172.410369 248.012981 
L 174.165336 250.155873 
L 176.07885 252.142209 
L 178.143073 253.963985 
L 180.349737 255.613725 
L 182.690164 257.084507 
L 185.155304 258.37 
L 187.735756 259.464487 
L 190.421806 260.362893 
L 193.219511 261.064193 
L 196.119992 261.561133 
L 199.113795 261.847053 
L 202.190906 261.91594 
L 205.340782 261.762488 
L 208.55237 261.382153 
L 211.814143 260.771205 
L 215.114131 259.926782 
L 218.457936 258.840478 
L 221.814725 257.515303 
L 225.189016 255.942404 
L 228.549091 254.129454 
L 231.880992 252.078797 
L 235.187563 249.781468 
L 238.436811 247.252419 
L 241.614303 244.497698 
L 244.721141 241.508929 
L 247.72633 238.308421 
L 250.615618 234.906178 
L 253.375044 231.313476 
L 255.99102 227.542851 
L 258.450417 223.608068 
L 260.740648 219.524087 
L 262.849758 215.307026 
L 264.75766 210.995435 
L 266.464855 206.586874 
L 267.955164 202.122151 
L 269.223386 197.621437 
L 270.265471 193.105079 
L 271.078538 188.593496 
L 271.658608 184.128859 
L 272.009706 179.70907 
L 272.132456 175.374978 
L 272.030949 171.123843 
L 271.710265 166.994432 
L 271.177642 163.002912 
L 270.44543 159.183156 
L 269.520412 155.528631 
L 268.41226 152.051766 
L 267.138303 148.780077 
L 265.704206 145.705269 
L 264.1299 142.850228 
L 262.420043 140.205764 
L 260.586625 137.777787 
L 258.652515 135.582108 
L 256.620722 133.608822 
L 254.503712 131.86019 
L 252.31403 130.337348 
L 250.051836 129.033893 
L 247.741459 127.957666 
L 245.382581 127.102607 
L 242.987161 126.469318 
L 240.554149 126.055787 
L 238.108954 125.864685 
L 235.650954 125.894395 
L 233.179977 126.147001 
L 230.722774 126.621946 
L 228.280555 127.321302 
L 225.88077 128.239719 
L 223.526072 129.378953 
L 221.232605 130.736207 
L 219.017029 132.30715 
L 216.906711 134.076517 
L 214.916976 136.034153 
L 213.054102 138.179651 
L 211.351402 140.479057 
L 209.813687 142.92875 
L 208.461047 145.500815 
L 207.303796 148.177793 
L 206.351254 150.941778 
L 205.614798 153.760425 
L 205.098311 156.614649 
L 204.804382 159.485793 
L 204.734333 162.355731 
L 204.886894 165.192606 
L 205.260005 167.994299 
L 205.847767 170.731088 
L 206.64813 173.402688 
L 207.656661 175.99536 
L 208.867939 178.49632 
L 210.275608 180.893786 
L 211.881397 183.188798 
L 213.67028 185.358635 
L 215.655181 187.415507 
L 217.820155 189.337653 
L 220.170025 191.124947 
L 222.698491 192.766762 
L 225.398064 194.253223 
L 228.260061 195.5753 
L 231.290389 196.730326 
L 234.496204 197.712802 
L 237.851313 198.507336 
L 241.36038 199.108506 
L 245.010087 199.506695 
L 248.784849 199.693736 
L 252.666746 199.663134 
L 256.653891 199.408626 
L 260.723527 198.92475 
L 264.83152 198.212253 
L 268.967621 197.269281 
L 273.100042 196.098794 
L 277.17684 194.713471 
L 281.162181 193.125607 
L 285.018269 191.350894 
L 288.690957 189.41672 
L 292.1155 187.364365 
L 295.261255 185.222428 
L 298.077094 183.038896 
L 300.524982 180.863029 
L 302.58176 178.742589 
L 304.240157 176.721276 
L 305.514158 174.827878 
L 306.427249 173.084783 
L 307.013681 171.499736 
L 307.309328 170.075684 
L 307.350844 168.811487 
L 307.169748 167.683134 
L 306.785018 166.676364 
L 306.201461 165.774301 
L 305.414752 164.970823 
L 304.404175 164.260323 
L 303.134024 163.645558 
L 301.581543 163.146599 
L 299.702405 162.781623 
L 297.466298 162.578682 
L 294.829869 162.567903 
L 291.76072 162.783544 
L 288.245703 163.258255 
L 284.244096 164.028259 
L 279.753429 165.123675 
L 274.761221 166.57464 
L 269.261562 168.408666 
L 263.256314 170.649455 
L 256.756359 173.31558 
L 249.782842 176.419055 
L 242.341744 179.976987 
L 234.476743 183.987003 
L 226.246663 188.434735 
L 217.699171 193.308036 
L 208.90039 198.581607 
L 199.938905 204.21306 
L 190.955354 210.121431 
L 182.115232 216.200608 
L 173.60822 222.318296 
L 165.685594 228.285728 
L 158.629024 233.87348 
L 152.747564 238.804966 
L 148.244739 242.856986 
L 145.174839 245.899632 
L 143.385375 247.960103 
L 142.567086 249.204944 
L 142.361365 249.869389 
L 142.465315 250.181252 
L 142.74774 250.318327 
L 143.298503 250.308332 
L 144.308364 250.043866 
L 146.024756 249.344329 
L 148.74677 247.975838 
L 152.788382 245.677849 
L 158.471284 242.176579 
L 166.180924 237.152183 
L 176.349262 230.247352 
L 189.652609 220.931616 
L 207.446051 208.184492 
L 235.564957 187.731722 
L 273.864126 159.914304 
L 291.38035 147.471298 
L 304.098566 138.69636 
L 313.560168 132.424411 
L 320.459458 128.102244 
L 325.26567 125.336076 
L 328.385487 123.776237 
L 330.219474 123.082544 
L 331.161189 122.933825 
L 331.559519 123.06326 
L 331.677688 123.320071 
L 331.601361 123.746352 
L 331.217521 124.482638 
L 330.305069 125.704589 
L 328.596958 127.591468 
L 325.823887 130.303333 
L 321.790707 133.921869 
L 316.4471 138.406989 
L 309.911722 143.595581 
L 302.414954 149.260198 
L 294.200597 155.186037 
L 285.560559 161.144214 
L 276.702145 166.983366 
L 267.819774 172.573592 
L 259.032639 177.842797 
L 250.464821 182.722945 
L 242.219331 187.166173 
L 234.351287 191.156416 
L 226.92623 194.676485 
L 219.967438 197.73339 
L 213.51197 200.330498 
L 207.583875 202.48044 
L 202.195499 204.203404 
L 197.348852 205.525498 
L 193.037005 206.477223 
L 189.245463 207.092081 
L 185.968238 207.404496 
L 183.174487 207.454045 
L 180.829686 207.27958 
L 178.906583 206.920922 
L 177.353868 206.412695 
L 176.126106 205.78314 
L 175.189126 205.059715 
L 174.497607 204.250508 
L 174.025613 203.360105 
L 173.755625 202.373661 
L 173.690869 201.282196 
L 173.846609 200.06564 
L 174.24822 198.716607 
L 174.930836 197.219866 
L 175.934464 195.569829 
L 177.288254 193.783188 
L 179.012577 191.883127 
L 181.117986 189.898966 
L 183.604539 187.865436 
L 186.447836 185.830758 
L 189.607771 183.844598 
L 193.04645 181.946792 
L 196.718694 180.175153 
L 200.555785 178.570761 
L 204.519454 177.154077 
L 208.553373 175.947584 
L 212.62041 174.962462 
L 216.685829 174.206377 
L 220.697881 173.685645 
L 224.62736 173.398086 
L 228.467876 173.338801 
L 232.177306 173.502011 
L 235.755047 173.880207 
L 239.183677 174.464771 
L 242.448392 175.245382 
L 245.536917 176.210279 
L 248.455219 177.353382 
L 251.19318 178.663776 
L 253.742507 180.12956 
L 256.096671 181.738012 
L 258.262833 183.486278 
L 260.234545 185.362811 
L 262.00667 187.355332 
L 263.584007 189.463587 
L 264.952965 191.662661 
L 266.118376 193.952218 
L 267.081383 196.333275 
L 267.831708 198.778564 
L 268.370188 201.288106 
L 268.692521 203.847135 
L 268.795585 206.439866 
L 268.677503 209.04956 
L 268.337704 211.658602 
L 267.776981 214.24859 
L 266.997537 216.800437 
L 266.00303 219.294484 
L 264.805842 221.697488 
L 263.415788 223.991023 
L 261.843835 226.15711 
L 260.102036 228.178337 
L 258.214487 230.028078 
L 256.197472 231.693513 
L 254.080049 233.155414 
L 251.867806 234.413898 
L 249.590928 235.455169 
L 247.253438 236.280284 
L 244.88583 236.881031 
L 242.504861 237.25749 
L 240.111993 237.411548 
L 237.722182 237.342226 
L 235.364373 237.052305 
L 233.037858 236.543624 
L 230.741786 235.813763 
L 228.503413 234.869091 
L 226.321552 233.706728 
L 224.209052 232.328742 
L 222.178458 230.738323 
L 220.230239 228.927967 
L 218.389249 226.912402 
L 216.656722 224.68398 
L 215.04609 222.246926 
L 213.570564 219.606843 
L 212.250548 216.788343 
L 211.088954 213.784232 
L 210.097594 210.604167 
L 209.287693 207.25922 
L 208.66979 203.76187 
L 208.253635 200.125983 
L 208.048091 196.366781 
L 208.061035 192.500804 
L 208.297222 188.568863 
L 208.761642 184.567359 
L 209.453938 180.539355 
L 210.373136 176.505516 
L 211.516923 172.486671 
L 212.881646 168.503687 
L 214.462327 164.577344 
L 216.241734 160.750194 
L 218.220941 157.019237 
L 220.378118 153.424543 
L 222.714507 149.962649 
L 225.204171 146.670299 
L 227.832596 143.561496 
L 230.584721 140.648833 
L 233.445052 137.943456 
L 236.397762 135.455048 
L 239.426796 133.191812 
L 242.515968 131.160478 
L 245.649063 129.366306 
L 248.7903 127.821985 
L 251.943009 126.518122 
L 255.091704 125.455678 
L 258.201438 124.638768 
L 261.277475 124.058364 
L 264.305756 123.711685 
L 267.272731 123.594849 
L 270.16541 123.702936 
L 272.971413 124.03006 
L 275.679011 124.569435 
L 278.27717 125.313458 
L 280.755577 126.253779 
L 283.104669 127.381379 
L 285.330257 128.696147 
L 287.407873 130.180833 
L 289.342795 131.836528 
L 291.125284 133.655344 
L 292.73563 135.614795 
L 294.17794 137.717699 
L 295.452274 139.970227 
L 296.540612 142.348125 
L 297.436047 144.840559 
L 298.132344 147.436245 
L 298.626605 150.142068 
L 298.908515 152.928445 
L 298.973961 155.782812 
L 298.817838 158.712198 
L 298.436431 161.684306 
L 297.823221 164.706015 
L 296.979201 167.743858 
L 295.896546 170.804453 
L 294.581167 173.853778 
L 293.024073 176.898104 
L 291.236226 179.903502 
L 289.207633 182.875825 
L 286.954364 185.781903 
L 284.465609 188.627129 
L 281.762518 191.37976 
L 278.83367 194.044712 
L 275.684365 196.608359 
L 272.321205 199.05738 
L 268.775274 201.364644 
L 265.034826 203.533976 
L 261.110284 205.553776 
L 256.987389 207.424206 
L 252.70375 209.121804 
L 248.274172 210.637278 
L 243.714822 211.96238 
L 239.014673 213.096207 
L 234.220399 214.024142 
L 229.323376 214.745257 
L 224.345055 215.252571 
L 219.33793 215.539655 
L 214.297871 215.606428 
L 209.251682 215.451052 
L 204.227948 215.073701 
L 199.284198 214.480585 
L 194.423292 213.674617 
L 189.703368 212.668588 
L 185.130601 211.467532 
L 180.785311 210.098532 
L 176.672408 208.571362 
L 172.861643 206.922171 
L 169.372055 205.173436 
L 166.236844 203.357963 
L 163.479393 201.509623 
L 161.099957 199.651283 
L 159.117176 197.825474 
L 157.522538 196.061754 
L 156.290498 194.375418 
L 155.398635 192.788688 
L 154.809696 191.299258 
L 154.494477 189.912729 
L 154.423867 188.62276 
L 154.577532 187.413455 
L 154.944622 186.279416 
L 155.525806 185.208083 
L 156.334453 184.19047 
L 157.388012 183.229 
L 158.710127 182.328974 
L 160.330707 181.499096 
L 162.285963 180.752004 
L 164.618337 180.104823 
L 167.340789 179.585119 
L 170.495935 179.214152 
L 174.109505 179.018595 
L 178.180149 179.024766 
L 182.744685 179.257378 
L 187.814467 179.741646 
L 193.393816 180.500689 
L 199.508483 181.560121 
L 206.148829 182.939343 
L 213.325271 184.659993 
L 221.038011 186.740756 
L 229.306071 189.204936 
L 238.129703 192.070167 
L 247.513915 195.354056 
L 257.518088 199.093059 
L 268.277978 203.355383 
L 280.103525 208.284108 
L 294.60607 214.58444 
L 311.407494 221.861357 
L 315.776372 223.513415 
L 318.065516 224.16508 
L 319.218494 224.289563 
L 319.731966 224.150694 
L 319.907704 223.894332 
L 319.882585 223.510478 
L 319.592466 222.880127 
L 318.842691 221.839053 
L 317.342712 220.170986 
L 314.680761 217.570569 
L 310.299311 213.625623 
L 303.529165 207.849141 
L 293.745932 199.808775 
L 281.076438 189.691675 
L 267.033506 178.761955 
L 253.410679 168.436139 
L 241.132843 159.402093 
L 230.406128 151.778232 
L 221.204857 145.503236 
L 213.368108 140.420102 
L 206.786284 136.407246 
L 201.297293 133.31204 
L 196.774875 131.00779 
L 193.089403 129.370377 
L 190.144719 128.294611 
L 187.816111 127.669118 
L 186.004226 127.400943 
L 184.610757 127.409351 
L 183.561056 127.628992 
L 182.779543 128.012636 
L 182.206967 128.538043 
L 181.804874 129.211484 
L 181.56222 130.064442 
L 181.495672 131.144505 
L 181.644355 132.509864 
L 182.06429 134.223534 
L 182.826673 136.359489 
L 184.003632 138.971994 
L 185.684545 142.142908 
L 187.94768 145.92143 
L 190.862327 150.342082 
L 194.482899 155.418511 
L 198.825287 161.115263 
L 203.852083 167.337808 
L 209.501736 173.974124 
L 215.633214 180.832136 
L 222.085921 187.715406 
L 228.631163 194.373398 
L 235.030505 200.569727 
L 241.07728 206.121509 
L 246.593139 210.891939 
L 251.441539 214.799839 
L 255.510141 217.804672 
L 258.779241 219.955435 
L 261.262491 221.33881 
L 263.052811 222.098537 
L 264.254123 222.385796 
L 265.007003 222.357273 
L 265.449473 222.134149 
L 265.687263 221.769411 
L 265.760751 221.231365 
L 265.629345 220.43414 
L 265.199904 219.285412 
L 264.350289 217.685919 
L 262.95982 215.567709 
L 260.945541 212.920385 
L 258.270656 209.782345 
L 254.965257 206.254801 
L 251.148991 202.510305 
L 246.959741 198.711477 
L 242.551001 195.013286 
L 238.104254 191.571463 
L 233.767871 188.492827 
L 229.674348 185.854374 
L 225.91853 183.69246 
L 222.582823 182.02213 
L 219.718554 180.827715 
L 217.335558 180.064565 
L 215.42002 179.673544 
L 213.938657 179.586543 
L 212.837815 179.732954 
L 212.050687 180.051895 
L 211.516517 180.500205 
L 211.18255 181.068781 
L 211.030822 181.775956 
L 211.077434 182.651744 
L 211.366908 183.741608 
L 211.959807 185.073001 
L 212.919951 186.662247 
L 214.296528 188.498252 
L 216.122081 190.553935 
L 218.397787 192.776098 
L 221.109137 195.107745 
L 224.190149 197.461398 
L 227.591904 199.778427 
L 231.237985 201.991606 
L 235.058923 204.049996 
L 238.981869 205.910624 
L 242.93356 207.540381 
L 246.884018 208.930445 
L 250.768476 210.063543 
L 254.568214 210.941602 
L 258.228934 211.561332 
L 261.74292 211.932437 
L 265.067045 212.063085 
L 268.222477 211.96642 
L 271.174827 211.655254 
L 273.914072 211.145988 
L 276.450655 210.451278 
L 278.779035 209.586344 
L 280.910962 208.559459 
L 282.842875 207.383728 
L 284.573235 206.072842 
L 286.113227 204.629542 
L 287.470542 203.052524 
L 288.632407 201.36359 
L 289.613029 199.545871 
L 290.40561 197.605938 
L 291.004079 195.551105 
L 291.405393 193.372512 
L 291.600282 191.076706 
L 291.5801 188.671308 
L 291.334276 186.146167 
L 290.854931 183.528928 
L 290.129702 180.810967 
L 289.14809 178.003568 
L 287.910259 175.139943 
L 286.401946 172.21466 
L 284.629462 169.264031 
L 282.577959 166.285071 
L 280.260406 163.316557 
L 277.698229 160.397202 
L 274.881488 157.526298 
L 271.83799 154.742195 
L 268.580397 152.06298 
L 265.122654 149.506257 
L 261.47993 147.089028 
L 257.668546 144.827573 
L 253.732955 142.750753 
L 249.666132 140.857056 
L 245.515536 139.170437 
L 241.302503 137.698638 
L 237.048219 136.447812 
L 232.773597 135.422537 
L 228.499163 134.625839 
L 224.244944 134.05923 
L 220.030373 133.722754 
L 215.903736 133.615006 
L 211.852666 133.73008 
L 207.89391 134.064017 
L 204.043326 134.611692 
L 200.343043 135.360537 
L 196.778015 136.306687 
L 193.360807 137.442159 
L 190.102948 138.758177 
L 187.014908 140.245267 
L 184.128011 141.879925 
L 181.426014 143.662489 
L 178.915949 145.582128 
L 176.603804 147.62768 
L 174.494544 149.787737 
L 172.592121 152.050721 
L 170.886449 154.424685 
L 169.395917 156.879774 
L 168.12171 159.404092 
L 167.056153 162.007668 
L 166.210088 164.65812 
L 165.577727 167.366585 
L 165.16225 170.122752 
L 164.966124 172.916124 
L 164.991085 175.736055 
L 165.238135 178.571804 
L 165.712374 181.436241 
L 166.412169 184.294721 
L 167.336236 187.136224 
L 168.492907 189.972938 
L 169.884793 192.792985 
L 171.499551 195.561878 
L 173.348369 198.290498 
L 175.431017 200.966403 
L 177.746203 203.577006 
L 180.291521 206.109642 
L 183.063408 208.551656 
L 186.057096 210.890482 
L 189.266577 213.113735 
L 192.684573 215.209307 
L 196.302504 217.165458 
L 200.110476 218.97092 
L 204.097263 220.614999 
L 208.250309 222.087676 
L 212.587794 223.388492 
L 217.063869 224.49737 
L 221.66164 225.406859 
L 226.362934 226.110626 
L 231.182415 226.606281 
L 236.0657 226.884219 
L 240.990635 226.942066 
L 245.934035 226.77897 
L 250.905409 226.392298 
L 255.845141 225.784912 
L 260.727087 224.961055 
L 265.524546 223.926745 
L 270.21041 222.689792 
L 274.757336 221.2598 
L 279.109977 219.659213 
L 283.245588 217.904057 
L 287.14262 216.011365 
L 290.780846 213.999031 
L 294.120313 211.89986 
L 297.130509 209.749101 
L 299.825606 207.552999 
L 302.168636 205.361297 
L 304.167628 203.193208 
L 305.832911 201.065767 
L 307.176799 198.993848 
L 308.206515 197.005157 
L 308.948262 195.094851 
L 309.415643 193.285736 
L 309.632428 191.569372 
L 309.616157 189.950613 
L 309.381776 188.419987 
L 308.937196 186.968992 
L 308.283575 185.590672 
L 307.41555 184.280135 
L 306.321438 183.035052 
L 304.995258 181.865401 
L 303.404938 180.764434 
L 301.551751 179.755099 
L 299.394349 178.837536 
L 296.917203 178.030971 
L 294.107445 177.354907 
L 290.955448 176.828732 
L 287.431804 176.469544 
L 283.530891 176.298871 
L 279.252954 176.336628 
L 274.57739 176.602458 
L 269.487222 177.117786 
L 264.001418 177.899668 
L 258.121287 178.964687 
L 251.830505 180.332744 
L 245.130098 182.020701 
L 238.047454 184.036489 
L 230.532702 186.408848 
L 222.530444 189.171576 
L 213.865469 192.402958 
L 203.528877 196.50836 
L 192.382897 200.909627 
L 189.92671 201.649908 
L 188.851252 201.772112 
L 188.446451 201.629761 
L 188.347117 201.379268 
L 188.452904 200.967792 
L 188.902608 200.233059 
L 189.985583 198.940134 
L 192.16866 196.717314 
L 196.24812 192.914565 
L 203.692741 186.311778 
L 216.479856 175.290288 
L 230.481221 163.497491 
L 240.542882 155.293675 
L 247.595131 149.813797 
L 252.597723 146.191329 
L 256.149034 143.877188 
L 258.632195 142.506945 
L 260.326559 141.807936 
L 261.445178 141.568571 
L 262.157473 141.625103 
L 262.603277 141.870359 
L 262.874923 142.274044 
L 263.000512 142.877578 
L 262.946444 143.779449 
L 262.627607 145.111935 
L 261.925493 147.027055 
L 260.68633 149.723056 
L 258.706064 153.467529 
L 255.721133 158.607829 
L 251.325415 165.706778 
L 244.664299 176.007371 
L 222.016968 210.730587 
L 218.293132 216.986191 
L 215.978455 221.281234 
L 214.632671 224.214143 
L 213.9616 226.168119 
L 213.746013 227.422054 
L 213.81958 228.187891 
L 214.069352 228.634001 
L 214.455942 228.874738 
L 215.017747 228.948818 
L 215.847864 228.816571 
L 217.06582 228.3803 
L 218.828585 227.495524 
L 221.325799 225.976593 
L 224.809696 223.580854 
L 229.617257 219.989092 
L 236.274179 214.720811 
L 245.600688 207.037396 
L 258.789267 195.866492 
L 272.784284 183.738138 
L 280.032907 177.200515 
L 283.314888 173.973855 
L 284.702114 172.33544 
L 285.130729 171.53334 
L 285.112111 171.172132 
L 284.890173 171.011289 
L 284.403749 170.971526 
L 283.409191 171.142863 
L 281.486952 171.726739 
L 277.700642 173.141683 
L 252.854382 182.771788 
L 244.979085 185.450062 
L 237.634058 187.715824 
L 230.744538 189.61131 
L 224.294514 191.159036 
L 218.252431 192.383629 
L 212.620586 193.300771 
L 207.440915 193.923128 
L 202.683545 194.275535 
L 198.339192 194.378544 
L 194.416754 194.253442 
L 190.893693 193.922081 
L 187.78702 193.411484 
L 185.06326 192.744287 
L 182.690967 191.938633 
L 180.671286 191.023349 
L 178.969101 190.013876 
L 177.554404 188.920869 
L 176.411704 187.761 
L 175.51707 186.539132 
L 174.852977 185.256468 
L 174.41155 183.923556 
L 174.181716 182.524718 
L 174.166201 181.053454 
L 174.374862 179.501941 
L 174.820044 177.876028 
L 175.520331 176.168254 
L 176.501851 174.371689 
L 177.77583 172.510804 
L 179.370469 170.582958 
L 181.289729 168.617849 
L 183.544566 166.632692 
L 186.123566 164.661258 
L 189.026201 162.723904 
L 192.249158 160.842397 
L 195.76051 159.051953 
L 199.545721 157.373811 
L 203.558965 155.8394 
L 207.776703 154.466157 
L 212.142713 153.278078 
L 216.660237 152.279641 
L 221.269619 151.48895 
L 225.941662 150.913074 
L 230.647684 150.55706 
L 235.3597 150.423959 
L 240.016376 150.513385 
L 244.626225 150.82273 
L 249.164873 151.349387 
L 253.609213 152.089076 
L 257.90508 153.027983 
L 262.066345 154.163655 
L 266.0747 155.487586 
L 269.883974 156.977654 
L 273.510952 158.63284 
L 276.942423 160.441738 
L 280.166755 162.392191 
L 283.150252 164.453959 
L 285.911436 166.629157 
L 288.443596 168.90443 
L 290.74148 171.266185 
L 292.801266 173.70071 
L 294.620506 176.194272 
L 296.198074 178.733228 
L 297.534104 181.304109 
L 298.629929 183.893714 
L 299.488004 186.489189 
L 300.111843 189.078097 
L 300.508468 191.671632 
L 300.676724 194.235015 
L 300.621408 196.77994 
L 300.34365 199.294991 
L 299.845458 201.768852 
L 299.129709 204.190366 
L 298.200133 206.548598 
L 297.061306 208.832889 
L 295.705615 211.05232 
L 294.148741 213.175755 
L 292.381364 215.210958 
L 290.406502 217.145464 
L 288.228361 218.966885 
L 285.852369 220.663 
L 283.285207 222.221863 
L 280.534834 223.631906 
L 277.610498 224.88205 
L 274.49647 225.970036 
L 271.228902 226.874696 
L 267.821306 227.586974 
L 264.288477 228.098802 
L 260.617047 228.404795 
L 256.852824 228.49419 
L 253.014653 228.362577 
L 249.122456 228.00703 
L 245.197139 227.426212 
L 241.230562 226.613474 
L 237.275981 225.574653 
L 233.357064 224.313846 
L 229.526148 222.84875 
L 225.777648 221.178474 
L 222.135628 219.312674 
L 218.649112 217.278465 
L 215.314108 215.075902 
L 212.175641 212.73743 
L 209.251062 210.28207 
L 206.556179 207.72961 
L 204.122131 205.11985 
L 201.955653 202.474587 
L 200.0613 199.81495 
L 198.441516 197.161235 
L 197.105921 194.552613 
L 196.039819 191.986967 
L 195.245133 189.50016 
L 194.711028 187.106085 
L 194.425355 184.816651 
L 194.374884 182.641822 
L 194.54785 180.572981 
L 194.930672 178.634815 
L 195.513708 176.817169 
L 196.2935 175.112165 
L 197.263272 173.52779 
L 198.41532 172.071147 
L 199.752999 170.73779 
L 201.284291 169.527167 
L 203.006437 168.451165 
L 204.930699 167.514261 
L 207.05391 166.730985 
L 209.370205 166.114993 
L 211.889791 165.676228 
L 214.622931 165.428944 
L 217.537494 165.390437 
L 220.635777 165.573389 
L 223.895332 165.989646 
L 227.308836 166.651677 
L 230.819894 167.559938 
L 234.40718 168.718136 
L 238.020372 170.119004 
L 241.601526 171.746662 
L 245.067917 173.565773 
L 248.352981 175.539477 
L 251.358305 177.600975 
L 254.012579 179.68628 
L 256.236111 181.708712 
L 257.982533 183.588154 
L 259.236167 185.250923 
L 260.02553 186.64828 
L 260.420358 187.773042 
L 260.504419 188.642713 
L 260.355041 189.303921 
L 260.020656 189.798529 
L 259.50295 190.16432 
L 258.763714 190.405724 
L 257.741394 190.494948 
L 256.37537 190.380614 
L 254.609077 190.000241 
L 252.402226 189.289044 
L 249.744259 188.192055 
L 246.636854 186.662711 
L 243.125469 184.680708 
L 239.307507 182.266647 
L 235.284505 179.457591 
L 231.22196 176.349572 
L 227.308469 173.078031 
L 223.753126 169.820492 
L 220.786621 166.809483 
L 218.572892 164.261235 
L 217.149059 162.306481 
L 216.424723 160.968467 
L 216.20902 160.154798 
L 216.296119 159.711663 
L 216.554139 159.493288 
L 217.003854 159.42486 
L 217.759468 159.556768 
L 218.964013 160.011189 
L 220.769894 160.946348 
L 223.30425 162.523526 
L 226.633457 164.868361 
L 230.774248 168.065707 
L 235.653273 172.121099 
L 241.115936 176.95573 
L 246.937365 182.407555 
L 252.845433 188.245865 
L 258.532539 194.176173 
L 263.735557 199.918124 
L 268.247053 205.221173 
L 271.937789 209.892496 
L 274.789523 213.847336 
L 276.85623 217.078068 
L 278.232264 219.622221 
L 279.042161 221.560752 
L 279.416274 222.996153 
L 279.471868 224.034253 
L 279.3005 224.771224 
L 278.960705 225.285395 
L 278.46234 225.637724 
L 277.768293 225.848584 
L 276.803247 225.896454 
L 275.49111 225.726574 
L 273.723239 225.261315 
L 271.393545 224.40715 
L 268.367951 223.050135 
L 264.497983 221.059051 
L 259.653621 218.306378 
L 253.647967 214.628457 
L 246.285531 209.848976 
L 237.403999 203.809852 
L 226.809847 196.329453 
L 214.662382 187.474806 
L 202.263795 178.166211 
L 192.47234 170.55575 
L 186.64455 165.771431 
L 183.720722 163.114355 
L 182.503327 161.745585 
L 182.184622 161.104501 
L 182.258777 160.838763 
L 182.534629 160.729662 
L 183.157319 160.760074 
L 184.448516 161.075167 
L 186.956998 161.944791 
L 191.929619 163.938656 
L 218.119261 174.68889 
L 227.2967 178.113801 
L 235.672785 181.005706 
L 243.391956 183.43894 
L 250.507103 185.451609 
L 256.991291 187.059317 
L 262.882566 188.296317 
L 268.203838 189.190749 
L 272.934025 189.764437 
L 277.070703 190.047196 
L 280.626998 190.074023 
L 283.647133 189.880702 
L 286.142671 189.505128 
L 288.155884 188.985288 
L 289.73377 188.357125 
L 290.93473 187.647371 
L 291.802586 186.883315 
L 292.385721 186.08149 
L 292.728015 185.236396 
L 292.848168 184.342971 
L 292.748924 183.391834 
L 292.412997 182.361101 
L 291.810763 181.246237 
L 290.895818 180.034365 
L 289.637548 178.745981 
L 287.98991 177.386543 
L 285.948306 175.997242 
L 283.513555 174.613247 
L 280.680661 173.263316 
L 277.495457 171.996014 
L 274.001123 170.848398 
L 270.252193 169.853694 
L 266.312108 169.039266 
L 262.222225 168.42141 
L 258.023733 168.013334 
L 253.786703 167.825596 
L 249.551563 167.860319 
L 245.355891 168.116251 
L 241.234186 168.58904 
L 237.217708 169.271529 
L 233.30596 170.16139 
L 229.553596 171.242507 
L 225.9823 172.501086 
L 222.585032 173.933412 
L 219.404764 175.51391 
L 216.43116 177.23897 
L 213.698912 179.078418 
L 211.195206 181.029451 
L 208.92893 183.075653 
L 206.906772 185.200084 
L 205.133278 187.385474 
L 203.622538 189.595789 
L 202.359493 191.831685 
L 201.342773 194.076422 
L 200.563729 196.332752 
L 200.027348 198.565474 
L 199.727506 200.758957 
L 199.656724 202.898332 
L 199.808575 204.987497 
L 200.178867 207.011525 
L 200.756137 208.939266 
L 201.536093 210.77478 
L 202.510989 212.504733 
L 203.682935 214.129982 
L 205.034033 215.62254 
L 206.55306 216.970916 
L 208.243049 218.174219 
L 210.094526 219.218459 
L 212.096505 220.090275 
L 214.236504 220.777112 
L 216.48132 221.264157 
L 218.833519 221.547735 
L 221.276849 221.618861 
L 223.793816 221.46999 
L 226.365785 221.095187 
L 228.973093 220.490273 
L 231.59518 219.652981 
L 234.210743 218.58308 
L 236.797899 217.282499 
L 239.314888 215.768167 
L 241.760331 214.036993 
L 244.094512 212.11334 
L 246.315636 209.99511 
L 248.38742 207.713529 
L 250.307831 205.267666 
L 252.045337 202.694741 
L 253.586829 200.016039 
L 254.921071 197.253777 
L 256.038782 194.430893 
L 256.932719 191.570823 
L 257.597726 188.697279 
L 258.028337 185.855938 
L 258.229684 183.047748 
L 258.204067 180.316403 
L 257.957142 177.661484 
L 257.498537 175.123253 
L 256.840133 172.718487 
L 255.987685 170.4445 
L 254.960328 168.33398 
L 253.76357 166.383008 
L 252.421786 164.618261 
L 250.940013 163.034759 
L 249.33338 161.642122 
L 247.618073 160.448229 
L 245.811194 159.45915 
L 243.915212 158.67367 
L 241.947527 158.099289 
L 239.926963 157.741626 
L 237.873642 157.604269 
L 235.808849 157.688629 
L 233.754864 157.993834 
L 231.719607 158.521424 
L 229.743226 159.263977 
L 227.8503 160.213017 
L 226.065508 161.357501 
L 224.424914 162.673518 
L 222.94865 164.141855 
L 221.655229 165.741891 
L 220.56869 167.438824 
L 219.698887 169.208294 
L 219.05712 171.012398 
L 218.640571 172.841384 
L 218.451318 174.6734 
L 218.487928 176.473608 
L 218.745554 178.237205 
L 219.219644 179.946655 
L 219.903739 181.585978 
L 220.797663 183.153147 
L 221.906129 184.644829 
L 223.215809 186.034021 
L 224.743433 187.327387 
L 226.472747 188.498645 
L 228.410351 189.541653 
L 230.565334 190.446672 
L 232.930056 191.195075 
L 235.492535 191.769558 
L 238.23609 192.154731 
L 241.159324 192.338263 
L 244.236409 192.306087 
L 247.434606 192.048137 
L 250.713972 191.559294 
L 254.027222 190.840319 
L 257.31979 189.898745 
L 260.530128 188.749674 
L 263.556602 187.432505 
L 266.321459 185.991169 
L 268.754907 184.47645 
L 270.766845 182.96941 
L 272.32823 181.53102 
L 273.427399 180.229344 
L 274.110975 179.091293 
L 274.440573 178.129755 
L 274.487516 177.338823 
L 274.311125 176.683052 
L 273.933601 176.129858 
L 273.339364 175.660574 
L 272.483526 175.277007 
L 271.299764 175.000759 
L 269.72148 174.872 
L 267.688936 174.939703 
L 265.163379 175.253739 
L 262.082282 175.868094 
L 258.42927 176.829822 
L 254.187715 178.182564 
L 249.360628 179.961395 
L 243.975489 182.188248 
L 238.089023 184.866842 
L 231.762391 187.992323 
L 225.065968 191.550762 
L 218.15032 195.479249 
L 211.229468 199.666361 
L 204.590257 203.940635 
L 198.653761 208.021145 
L 193.964346 211.500957 
L 190.923322 214.011646 
L 189.520915 215.419678 
L 189.19856 215.996727 
L 189.301521 216.153015 
L 189.632542 216.152446 
L 190.468878 215.891641 
L 192.248681 215.074793 
L 195.50259 213.312798 
L 200.811169 210.165633 
L 208.882598 205.104074 
L 220.996842 197.224527 
L 244.898272 181.352104 
L 263.511594 169.116092 
L 273.651684 162.701918 
L 279.990284 158.934464 
L 283.636463 156.998972 
L 285.365573 156.297877 
L 285.927783 156.259986 
L 285.999969 156.422447 
L 285.840548 156.757914 
L 285.202723 157.496981 
L 283.657729 158.909208 
L 280.778802 161.216598 
L 276.426176 164.407815 
L 270.812585 168.241384 
L 264.399986 172.349632 
L 257.578904 176.455183 
L 250.718913 180.326453 
L 244.035348 183.845961 
L 237.687441 186.94089 
L 231.814281 189.56199 
L 226.459062 191.713067 
L 221.711778 193.386095 
L 217.601035 194.606806 
L 214.109367 195.419207 
L 211.255093 195.864008 
L 208.992178 196.001409 
L 207.273156 195.893291 
L 206.033648 195.604016 
L 205.192394 195.192473 
L 204.6597 194.694702 
L 204.373982 194.128828 
L 204.299417 193.486496 
L 204.443218 192.729834 
L 204.850337 191.835766 
L 205.583627 190.78778 
L 206.703814 189.591111 
L 208.255231 188.271175 
L 210.236923 186.884293 
L 212.625511 185.488753 
L 215.352525 184.155543 
L 218.338422 182.944326 
L 221.487906 181.906027 
L 224.738232 181.068642 
L 227.98823 180.459804 
L 231.181523 180.085433 
L 234.269784 179.944251 
L 237.212789 180.028803 
L 239.997163 180.329342 
L 242.577264 180.829298 
L 244.934941 181.508789 
L 247.074051 182.352781 
L 248.984654 183.341605 
L 250.673912 184.463777 
L 252.125127 185.690618 
L 253.359044 187.02273 
L 254.363813 188.43131 
L 255.148409 189.909373 
L 255.717194 191.452107 
L 256.067558 193.042456 
L 256.199208 194.675929 
L 256.108419 196.333922 
L 255.793782 197.996364 
L 255.256348 199.641906 
L 254.492908 201.260611 
L 253.513425 202.815396 
L 252.327265 204.281958 
L 250.946644 205.63578 
L 249.386629 206.852477 
L 247.678638 207.900868 
L 245.860265 208.756664 
L 243.958123 209.408242 
L 241.998787 209.846822 
L 240.008478 210.066469 
L 238.012764 210.064066 
L 236.036292 209.839235 
L 234.117971 209.398713 
L 232.26351 208.746304 
L 230.492951 207.888984 
L 228.824666 206.835802 
L 227.262714 205.58648 
L 225.836516 204.161781 
L 224.549008 202.561887 
L 223.415312 200.798449 
L 222.44911 198.884875 
L 221.65669 196.818458 
L 221.057562 194.631609 
L 220.660524 192.342644 
L 220.471737 189.951007 
L 220.501431 187.475889 
L 220.754863 184.959089 
L 221.237393 182.402759 
L 221.946033 179.85126 
L 222.876573 177.32856 
L 224.032621 174.838662 
L 225.398418 172.426171 
L 226.962557 170.114323 
L 228.711422 167.92538 
L 230.629305 165.880376 
L 232.698547 163.998883 
L 234.899697 162.298788 
L 237.192665 160.807376 
L 239.572774 159.523787 
L 241.996863 158.467205 
L 244.460504 157.635284 
L 246.919224 157.038626 
L 249.348918 156.675707 
L 251.726433 156.54259 
L 254.029777 156.633105 
L 256.238292 156.939039 
L 258.33281 157.450341 
L 260.295783 158.155344 
L 262.111381 159.040981 
L 263.765569 160.093018 
L 265.246168 161.296272 
L 266.542875 162.634839 
L 267.647282 164.092305 
L 268.552858 165.651955 
L 269.260487 167.312619 
L 269.757919 169.043335 
L 270.045582 170.84413 
L 270.117956 172.699789 
L 269.968643 174.612471 
L 269.593449 176.549096 
L 268.984941 178.511335 
L 268.137681 180.482703 
L 267.058801 182.428735 
L 265.727182 184.367079 
L 264.15195 186.262268 
L 262.335824 188.096457 
L 260.283913 189.851973 
L 257.983471 191.525209 
L 255.461804 193.083607 
L 252.708722 194.522375 
L 249.736312 195.822592 
L 246.56054 196.966287 
L 243.201431 197.936863 
L 239.683188 198.719547 
L 236.034259 199.301846 
L 232.287331 199.674005 
L 228.479244 199.829456 
L 224.623104 199.763966 
L 220.792624 199.476759 
L 217.036642 198.973466 
L 213.40686 198.264406 
L 209.979951 197.37147 
L 206.805173 196.317645 
L 203.96736 195.1464 
L 201.513101 193.899715 
L 199.472833 192.620791 
L 197.880454 191.369996 
L 196.706825 190.175089 
L 195.927333 189.074974 
L 195.490444 188.090656 
L 195.333352 187.209952 
L 195.412793 186.41898 
L 195.707995 185.697396 
L 196.22421 185.029943 
L 196.992278 184.408801 
L 198.058332 183.841034 
L 199.472892 183.346646 
L 201.294517 182.952318 
L 203.569904 182.693418 
L 206.339955 182.607239 
L 209.660336 182.733048 
L 213.531675 183.108327 
L 217.984748 183.76946 
L 223.006984 184.744904 
L 228.620549 186.066635 
L 234.821272 187.759957 
L 241.592254 189.843011 
L 248.998909 192.357765 
L 257.179563 195.374768 
L 266.953206 199.228439 
L 277.656741 203.428268 
L 279.42395 203.901109 
L 279.949493 203.8575 
L 280.016714 203.675492 
L 279.851891 203.335936 
L 279.217038 202.622034 
L 277.614719 201.199138 
L 274.221876 198.517951 
L 267.79166 193.747882 
L 257.594883 186.473358 
L 246.169108 178.587785 
L 236.331589 172.057108 
L 228.547794 167.144496 
L 222.540571 163.603083 
L 218.006987 161.174436 
L 214.664124 159.621601 
L 212.293332 158.749375 
L 210.669659 158.372495 
L 209.615883 158.339111 
L 208.966853 158.525385 
L 208.592617 158.853173 
L 208.406845 159.314764 
L 208.399746 159.965016 
L 208.627591 160.884681 
L 209.190206 162.173109 
L 210.221221 163.944165 
L 211.862867 166.296581 
L 214.24095 169.297615 
L 217.44744 172.972706 
L 221.478777 177.246104 
L 226.214153 181.936834 
L 231.386147 186.746571 
L 236.644496 191.336287 
L 241.595703 195.370245 
L 245.910737 198.609683 
L 249.335288 200.916953 
L 251.753869 202.298944 
L 253.239649 202.918261 
L 253.990907 203.023999 
L 254.285874 202.876956 
L 254.350035 202.600781 
L 254.206425 202.115776 
L 253.702801 201.277592 
L 252.628446 199.955371 
L 250.817364 198.099714 
L 248.253716 195.80277 
L 245.082869 193.265719 
L 241.568457 190.73827 
L 237.960505 188.414287 
L 234.489881 186.438608 
L 231.351309 184.900411 
L 228.657224 183.818517 
L 226.478009 183.172518 
L 224.835925 182.904351 
L 223.683083 182.926325 
L 222.94321 183.146031 
L 222.511296 183.492787 
L 222.308595 183.933862 
L 222.30148 184.493696 
L 222.525436 185.218963 
L 223.059938 186.151758 
L 223.985581 187.298054 
L 225.36284 188.636916 
L 227.21254 190.115344 
L 229.484357 191.641154 
L 232.102371 193.129222 
L 234.975468 194.504776 
L 237.977047 195.696481 
L 241.028914 196.671493 
L 244.060454 197.408599 
L 246.990342 197.894895 
L 249.767721 198.134423 
L 252.371921 198.138811 
L 254.754543 197.924484 
L 256.913653 197.511095 
L 258.836321 196.920846 
L 260.530582 196.171003 
L 261.992557 195.28283 
L 263.223354 194.278348 
L 264.236989 193.168695 
L 265.043923 191.960216 
L 265.65001 190.65509 
L 266.055642 189.252073 
L 266.254174 187.762051 
L 266.239392 186.181607 
L 265.998292 184.506124 
L 265.51627 182.747339 
L 264.780414 180.919501 
L 263.779904 179.039407 
L 262.506435 177.126398 
L 260.954646 175.202293 
L 259.138968 173.307059 
L 257.048752 171.449824 
L 254.70984 169.672369 
L 252.159216 168.01363 
L 249.39662 166.483615 
L 246.468313 165.117446 
L 243.402435 163.934132 
L 240.255312 162.957741 
L 237.05988 162.197355 
L 233.821572 161.655392 
L 230.599259 161.342224 
L 227.451044 161.257739 
L 224.379 161.39561 
L 221.410579 161.750476 
L 218.595691 162.308719 
L 215.930909 163.062719 
L 213.458528 163.991569 
L 211.192019 165.077319 
L 209.123073 166.313612 
L 207.280839 167.671877 
L 205.669651 169.132791 
L 204.278392 170.693126 
L 203.122778 172.320384 
L 202.191158 174.013889 
L 201.484645 175.758308 
L 201.002565 177.538576 
L 200.741006 179.358969 
L 200.702168 181.186858 
L 200.883677 183.027576 
L 201.290905 184.886931 
L 201.929331 186.751023 
L 202.802855 188.605278 
L 203.913642 190.434577 
L 205.261991 192.2234 
L 206.862808 193.972555 
L 208.699796 195.647761 
L 210.787247 197.247457 
L 213.121952 198.752253 
L 215.673123 200.130641 
L 218.451788 201.378158 
L 221.44458 202.476319 
L 224.634222 203.407551 
L 227.999393 204.155624 
L 231.484802 204.702359 
L 235.089956 205.042937 
L 238.78207 205.167907 
L 242.524489 205.070882 
L 246.247452 204.75238 
L 249.938623 204.213292 
L 253.525171 203.465095 
L 256.963936 202.521235 
L 260.187918 201.40794 
L 263.161283 200.14872 
L 265.831517 198.780097 
L 268.159501 197.342525 
L 270.135988 195.865658 
L 271.733245 194.401682 
L 272.968692 192.975833 
L 273.857604 191.620747 
L 274.433048 190.35153 
L 274.731661 189.16701 
L 274.7821 188.07466 
L 274.607716 187.058177 
L 274.219438 186.113427 
L 273.612875 185.228735 
L 272.767368 184.397936 
L 271.658387 183.629028 
L 270.255151 182.934607 
L 268.521623 182.332464 
L 266.436507 181.849362 
L 263.964913 181.510122 
L 261.095584 181.344665 
L 257.805419 181.381286 
L 254.080711 181.649408 
L 249.92351 182.176437 
L 245.359459 182.983042 
L 240.393858 184.089588 
L 235.03084 185.515947 
L 229.273294 187.28114 
L 223.044418 189.427658 
L 212.016547 193.302324 
L 211.977676 193.158277 
L 212.217952 192.827179 
L 213.180332 191.954366 
L 216.022258 189.733836 
L 225.091125 183.010997 
L 239.832244 172.309992 
L 245.853048 168.191652 
L 249.186468 166.156068 
L 251.048583 165.252324 
L 252.018859 164.997691 
L 252.471932 165.077045 
L 252.654006 165.319417 
L 252.6665 165.740986 
L 252.440569 166.487746 
L 251.795586 167.772238 
L 250.464514 169.883398 
L 248.045568 173.267224 
L 243.833252 178.74002 
L 233.727078 191.391674 
L 228.126747 198.61389 
L 225.5287 202.29642 
L 224.33906 204.329505 
L 223.948266 205.384728 
L 223.970351 205.870864 
L 224.181268 206.068687 
L 224.572326 206.102307 
L 225.296375 205.913839 
L 226.587059 205.322718 
L 228.784256 204.047126 
L 232.414454 201.658429 
L 238.548343 197.328428 
L 251.095231 188.147245 
L 261.432296 180.388495 
L 262.795853 179.138055 
L 262.862426 178.863459 
L 262.640222 178.833158 
L 261.87909 179.009089 
L 259.544604 179.829324 
L 248.348318 183.889744 
L 242.519684 185.718696 
L 237.143154 187.176179 
L 232.172903 188.296695 
L 227.620669 189.098377 
L 223.51015 189.599952 
L 219.875017 189.825058 
L 216.698207 189.805555 
L 213.969587 189.572709 
L 211.684299 189.161136 
L 209.822448 188.607915 
L 208.341163 187.943753 
L 207.208478 187.200762 
L 206.380222 186.400515 
L 205.813614 185.54943 
L 205.484343 184.655719 
L 205.375385 183.713566 
L 205.48648 182.712458 
L 205.834551 181.639111 
L 206.447135 180.490995 
L 207.350288 179.279504 
L 208.580013 178.008636 
L 210.164188 176.698864 
L 212.108336 175.387122 
L 214.401744 174.113579 
L 217.017391 172.919269 
L 219.912988 171.843394 
L 223.058657 170.913938 
L 226.392787 170.162874 
L 229.84527 169.613801 
L 233.369945 169.278344 
L 236.921364 169.164049 
L 240.426744 169.272595 
L 243.873363 169.601643 
L 247.194849 170.141552 
L 250.358195 170.879437 
L 253.335143 171.799739 
L 256.102206 172.88478 
L 258.640599 174.115309 
L 260.936093 175.471018 
L 262.978792 176.931036 
L 264.762871 178.47437 
L 266.286256 180.080307 
L 267.56163 181.7454 
L 268.577339 183.434825 
L 269.34041 185.130108 
L 269.864485 186.831768 
L 270.153919 188.524283 
L 270.214931 190.192883 
L 270.052557 191.840884 
L 269.669343 193.454114 
L 269.069519 195.018669 
L 268.249335 196.536494 
L 267.209916 197.992038 
L 265.940651 199.38316 
L 264.456901 200.678412 
L 262.749113 201.873162 
L 260.822705 202.947993 
L 258.68653 203.883611 
L 256.353089 204.661235 
L 253.838694 205.263043 
L 251.16358 205.672636 
L 248.351939 205.875545 
L 245.457211 205.860831 
L 242.486115 205.622172 
L 239.498367 205.158739 
L 236.530085 204.474067 
L 233.618283 203.575342 
L 230.800363 202.473464 
L 228.13487 201.194282 
L 225.653322 199.759594 
L 223.384459 198.1934 
L 221.369619 196.535661 
L 219.624285 194.815093 
L 218.17071 193.074907 
L 217.008422 191.342567 
L 216.132543 189.64288 
L 215.538561 188.012419 
L 215.207553 186.468648 
L 215.118533 185.011532 
L 215.255045 183.653116 
L 215.603514 182.390729 
L 216.15705 181.222928 
L 216.906538 180.16044 
L 217.861096 179.195105 
L 219.029674 178.334673 
L 220.410875 177.597483 
L 222.013611 176.996389 
L 223.846872 176.548764 
L 225.917203 176.276229 
L 228.207637 176.203544 
L 230.689645 176.350688 
L 233.322028 176.73073 
L 236.068376 177.352428 
L 238.858475 178.212025 
L 241.606552 179.290871 
L 244.198513 180.545567 
L 246.506117 181.905437 
L 248.40887 183.27775 
L 249.806265 184.546864 
L 250.685085 185.62718 
L 251.100854 186.46496 
L 251.17107 187.064689 
L 251.009452 187.483849 
L 250.655113 187.779999 
L 250.060547 187.968874 
L 249.142144 188.010574 
L 247.817709 187.835475 
L 246.018052 187.362757 
L 243.725111 186.522067 
L 240.975861 185.271059 
L 237.860736 183.604263 
L 234.574958 181.592441 
L 231.372713 179.373561 
L 228.603007 177.191901 
L 226.640291 175.381606 
L 225.642783 174.19245 
L 225.406959 173.625292 
L 225.518581 173.434223 
L 225.828157 173.407017 
L 226.524099 173.604685 
L 227.866971 174.242503 
L 230.084343 175.560515 
L 233.275967 177.730392 
L 237.326983 180.761948 
L 241.949515 184.502478 
L 246.693099 188.625333 
L 251.065246 192.713751 
L 254.632102 196.34137 
L 257.200845 199.252958 
L 258.80825 201.38804 
L 259.630131 202.816995 
L 259.911637 203.70859 
L 259.865497 204.222222 
L 259.630464 204.509761 
L 259.208892 204.657144 
L 258.503855 204.647719 
L 257.359841 204.391132 
L 255.593368 203.75043 
L 252.96715 202.545047 
L 249.21517 200.562418 
L 244.028219 197.555932 
L 236.98801 193.204301 
L 227.755494 187.224618 
L 217.58409 180.377488 
L 211.691416 176.182107 
L 209.783752 174.597566 
L 209.47155 174.116598 
L 209.593688 174.016596 
L 210.029976 174.0483 
L 211.277796 174.403429 
L 214.641088 175.6389 
L 228.088622 180.676314 
L 234.782591 182.905509 
L 240.743716 184.660777 
L 246.033072 185.991497 
L 250.663145 186.933198 
L 254.633492 187.520902 
L 257.93887 187.794107 
L 260.60677 187.800858 
L 262.657898 187.594822 
L 264.156712 187.232993 
L 265.17329 186.773041 
L 265.802988 186.258885 
L 266.132033 185.717043 
L 266.22416 185.142834 
L 266.095652 184.517804 
L 265.717174 183.815352 
L 265.027021 183.021031 
L 263.954747 182.140455 
L 262.462821 181.211781 
L 260.528785 180.276288 
L 258.190031 179.39581 
L 255.505903 178.624622 
L 252.541176 178.006546 
L 249.398004 177.580636 
L 246.166775 177.368537 
L 242.938213 177.378672 
L 239.749926 177.610863 
L 236.680194 178.056592 
L 233.77489 178.701001 
L 231.071148 179.524785 
L 228.577895 180.514141 
L 226.338704 181.637986 
L 224.351004 182.88102 
L 222.641336 184.207163 
L 221.198384 185.602436 
L 220.023757 187.042874 
L 219.114567 188.505139 
L 218.463971 189.966996 
L 218.061727 191.407694 
L 217.894228 192.821894 
L 217.952546 194.191513 
L 218.229211 195.51233 
L 218.717049 196.766699 
L 219.414265 197.948635 
L 220.314575 199.038845 
L 221.420056 200.026968 
L 222.723232 200.890349 
L 224.212633 201.606444 
L 225.857224 202.149326 
L 227.650584 202.506007 
L 229.552273 202.657672 
L 231.550939 202.592651 
L 233.598504 202.301775 
L 235.644065 201.787285 
L 237.671141 201.048518 
L 239.628956 200.09944 
L 241.485858 198.954273 
L 243.212278 197.630683 
L 244.7812 196.149459 
L 246.168591 194.534135 
L 247.34463 192.82554 
L 248.298023 191.053027 
L 249.027221 189.229933 
L 249.520348 187.400447 
L 249.778887 185.592548 
L 249.808238 183.832521 
L 249.614706 182.129823 
L 249.209446 180.522614 
L 248.601501 179.017641 
L 247.80383 177.635135 
L 246.832361 176.393132 
L 245.695046 175.298214 
L 244.409642 174.367883 
L 242.984587 173.611509 
L 241.442251 173.046511 
L 239.823279 172.689347 
L 238.131405 172.544619 
L 236.428906 172.620968 
L 234.739783 172.917701 
L 233.117147 173.426043 
L 231.600455 174.131953 
L 230.238585 175.009032 
L 229.072494 176.022198 
L 228.132243 177.130552 
L 227.434943 178.290598 
L 226.980932 179.4696 
L 226.764667 180.638616 
L 226.776727 181.782865 
L 227.008393 182.880809 
L 227.457433 183.932596 
L 228.126799 184.927896 
L 229.014576 185.847064 
L 230.135912 186.685112 
L 231.502734 187.424199 
L 233.113046 188.037961 
L 234.97158 188.504206 
L 237.061639 188.79613 
L 239.370779 188.890977 
L 241.856736 188.767937 
L 244.459492 188.415443 
L 247.10033 187.834283 
L 249.681902 187.040545 
L 252.063261 186.080175 
L 254.098175 185.027329 
L 255.65674 183.981503 
L 256.666698 183.053688 
L 257.178744 182.305419 
L 257.312154 181.750741 
L 257.193947 181.346471 
L 256.868039 181.035668 
L 256.274694 180.798878 
L 255.318387 180.672718 
L 253.874768 180.721013 
L 251.850122 181.024153 
L 249.178359 181.660067 
L 245.836904 182.692928 
L 241.840023 184.168288 
L 237.245282 186.107051 
L 232.169528 188.494141 
L 226.820303 191.25684 
L 221.528874 194.23826 
L 216.938912 197.070504 
L 213.986077 199.127467 
L 213.068984 199.981112 
L 213.080681 200.087074 
L 213.134698 200.098153 
L 213.543922 200.0015 
L 214.864378 199.421453 
L 217.98723 197.776728 
L 223.988969 194.338608 
L 235.215933 187.616399 
L 254.367326 176.157808 
L 260.034201 173.019019 
L 262.315539 171.967767 
L 262.72812 171.934959 
L 262.730661 171.947934 
L 262.631644 172.128353 
L 262.009626 172.692727 
L 260.160279 174.033551 
L 256.664636 176.278697 
L 251.909512 179.065031 
L 246.61883 181.90812 
L 241.350113 184.490035 
L 236.444369 186.651778 
L 232.09707 188.331569 
L 228.42797 189.519749 
L 225.496411 190.245819 
L 223.318267 190.569583 
L 221.835901 190.581244 
L 220.944111 190.385202 
L 220.49277 190.080558 
L 220.330843 189.720657 
L 220.385527 189.285756 
L 220.69403 188.730284 
L 221.360192 188.018168 
L 222.480459 187.16151 
L 224.10305 186.211142 
L 226.163449 185.266959 
L 228.555121 184.418361 
L 231.111262 183.746924 
L 233.711192 183.292353 
L 236.227244 183.07449 
L 238.598767 183.088963 
L 240.751987 183.320427 
L 242.649217 183.742358 
L 244.281872 184.327761 
L 245.639108 185.045312 
L 246.721524 185.862457 
L 247.54512 186.75532 
L 248.125232 187.704462 
L 248.476885 188.703136 
L 248.603315 189.729284 
L 248.508091 190.779427 
L 248.186836 191.83983 
L 247.632019 192.893483 
L 246.841666 193.91011 
L 245.820447 194.855991 
L 244.591051 195.688637 
L 243.189036 196.369383 
L 241.647741 196.869834 
L 240.031343 197.161809 
L 238.383029 197.234919 
L 236.758117 197.086591 
L 235.195541 196.723139 
L 233.729738 196.155937 
L 232.390214 195.400658 
L 231.201287 194.476459 
L 230.182009 193.405154 
L 229.339511 192.199036 
L 228.687746 190.879765 
L 228.233351 189.457311 
L 227.987749 187.953965 
L 227.958638 186.393759 
L 228.152564 184.787605 
L 228.575335 183.16184 
L 229.228472 181.544564 
L 230.108876 179.965113 
L 231.208567 178.45347 
L 232.514513 177.039597 
L 234.00856 175.75273 
L 235.652979 174.629391 
L 237.432337 173.683029 
L 239.298787 172.941073 
L 241.215535 172.41639 
L 243.144209 172.117248 
L 245.029838 172.046778 
L 246.835277 172.197997 
L 248.52593 172.559595 
L 250.057555 173.110786 
L 251.406842 173.828671 
L 252.55571 174.688746 
L 253.483508 175.656106 
L 254.19394 176.713074 
L 254.683954 177.83538 
L 254.956248 179.011611 
L 255.009192 180.221094 
L 254.841653 181.45615 
L 254.446779 182.710006 
L 253.811917 183.975232 
L 252.928352 185.230547 
L 251.79138 186.453352 
L 250.387273 187.6304 
L 248.731031 188.725846 
L 246.816836 189.723969 
L 244.639228 190.60501 
L 242.236507 191.334314 
L 239.640721 191.889125 
L 236.872188 192.252726 
L 233.98249 192.406918 
L 231.035796 192.34054 
L 228.128553 192.054053 
L 225.343568 191.559586 
L 222.785918 190.884728 
L 220.567386 190.076528 
L 218.784126 189.199877 
L 217.492032 188.329846 
L 216.681606 187.533594 
L 216.278763 186.848403 
L 216.184907 186.276712 
L 216.325446 185.791499 
L 216.685426 185.361387 
L 217.314353 184.970627 
L 218.29836 184.635195 
L 219.724519 184.39639 
L 221.66786 184.306224 
L 224.186928 184.419549 
L 227.332844 184.791227 
L 231.099821 185.466037 
L 235.51672 186.489309 
L 240.561083 187.891858 
L 246.262107 189.712583 
L 253.0497 192.124201 
L 259.282338 194.304487 
L 259.674005 194.26924 
L 259.674449 194.266608 
L 259.587368 194.090099 
L 259.020556 193.577941 
L 257.106967 192.203404 
L 251.992507 188.848003 
L 242.737157 183.046241 
L 234.846303 178.339355 
L 229.559603 175.425861 
L 226.191686 173.803345 
L 224.189274 173.062636 
L 223.125249 172.879548 
L 222.646939 172.992079 
L 222.480501 173.237353 
L 222.504534 173.626644 
L 222.793869 174.283756 
L 223.532792 175.356781 
L 224.958948 177.005431 
L 227.287868 179.337899 
L 230.577641 182.307536 
L 234.614624 185.648993 
L 238.854466 188.874238 
L 242.639641 191.486177 
L 245.410716 193.149834 
L 246.942737 193.843873 
L 247.454639 193.884653 
L 247.499642 193.724998 
L 247.300033 193.372661 
L 246.583943 192.621298 
L 245.045484 191.352673 
L 242.684642 189.702446 
L 239.844143 187.988531 
L 236.951061 186.497442 
L 234.332458 185.389196 
L 232.204731 184.71808 
L 230.67162 184.451332 
L 229.715331 184.489979 
L 229.221478 184.709582 
L 229.037228 185.017153 
L 229.06798 185.41346 
L 229.351498 185.955424 
L 229.998403 186.679084 
L 231.107406 187.569946 
L 232.698049 188.554037 
L 234.689198 189.521156 
L 236.943529 190.368729 
L 239.312034 191.023107 
L 241.655608 191.443163 
L 243.880739 191.619612 
L 245.901796 191.561715 
L 247.685703 191.292625 
L 249.192835 190.846597 
L 250.427345 190.256876 
L 251.401432 189.552599 
L 252.1308 188.757794 
L 252.635204 187.882299 
L 252.922141 186.937803 
L 252.995124 185.932931 
L 252.84773 184.852685 
L 252.464655 183.712284 
L 251.826904 182.519105 
L 250.910587 181.284307 
L 249.7115 180.046317 
L 248.227448 178.836708 
L 246.464297 177.690753 
L 244.471666 176.662365 
L 242.282777 175.782869 
L 239.93731 175.081274 
L 237.520935 174.589516 
L 235.064917 174.31644 
L 232.660321 174.270735 
L 230.335486 174.447577 
L 228.153797 174.835571 
L 226.169047 175.411517 
L 224.406812 176.149859 
L 222.884615 177.023396 
L 221.612466 178.004403 
L 220.593557 179.065596 
L 219.825075 180.180931 
L 219.294765 181.338416 
L 218.997404 182.517312 
L 218.924679 183.711191 
L 219.074662 184.915524 
L 219.452055 186.12616 
L 220.060581 187.325496 
L 220.910575 188.50714 
L 222.017836 189.661616 
L 223.38813 190.764734 
L 225.021375 191.790786 
L 226.910683 192.713263 
L 229.061083 193.51202 
L 231.432409 194.152328 
L 233.991503 194.61095 
L 236.695678 194.868455 
L 239.492771 194.910598 
L 242.299961 194.731922 
L 245.071669 194.333476 
L 247.695415 193.734173 
L 250.10435 192.9589 
L 252.20553 192.053478 
L 253.933037 191.073863 
L 255.254372 190.078748 
L 256.17244 189.122477 
L 256.730504 188.233611 
L 256.9772 187.438178 
L 256.969727 186.730275 
L 256.742585 186.094551 
L 256.291775 185.507009 
L 255.586709 184.966594 
L 254.584121 184.48727 
L 253.216283 184.08992 
L 251.444727 183.816102 
L 249.232569 183.707213 
L 246.563095 183.805503 
L 243.453408 184.147104 
L 239.911775 184.763346 
L 235.968101 185.679082 
L 231.682063 186.906045 
L 226.952019 188.497552 
L 224.351792 189.332238 
L 224.356579 189.306505 
L 224.593331 189.094426 
L 226.234221 188.015874 
L 242.822885 177.643971 
L 245.356021 176.297603 
L 246.270479 176.019739 
L 246.504756 176.127532 
L 246.492438 176.379988 
L 246.199898 176.946877 
L 245.287905 178.160374 
L 243.153064 180.583758 
L 238.250115 185.752935 
L 231.805893 192.613523 
L 230.299554 194.507279 
L 229.994913 195.179389 
L 230.101067 195.348308 
L 230.40831 195.338528 
L 231.179172 195.05171 
L 232.912195 194.135403 
L 236.688257 191.848256 
L 250.950318 182.803876 
L 251.219532 182.541868 
L 251.136033 182.532029 
L 250.452295 182.730086 
L 241.764101 185.551806 
L 237.728652 186.550235 
L 234.077396 187.230186 
L 230.874896 187.60714 
L 228.16407 187.710784 
L 225.945303 187.581208 
L 224.23558 187.269419 
L 222.977844 186.824916 
L 222.129282 186.302251 
L 221.611928 185.736611 
L 221.359501 185.143659 
L 221.332411 184.512892 
L 221.531442 183.830187 
L 221.99231 183.07787 
L 222.762195 182.263272 
L 223.893399 181.402224 
L 225.398927 180.542681 
L 227.274213 179.732552 
L 229.471731 179.028432 
L 231.913138 178.48076 
L 234.517643 178.124757 
L 237.194908 177.983486 
L 239.852344 178.065501 
L 242.402458 178.364101 
L 244.788257 178.863128 
L 246.963723 179.540494 
L 248.893933 180.369853 
L 250.554733 181.322211 
L 251.920781 182.357545 
L 252.994239 183.443685 
L 253.792179 184.562151 
L 254.320402 185.676249 
L 254.604598 186.786028 
L 254.656586 187.872184 
L 254.48556 188.93974 
L 254.095786 189.971183 
L 253.479886 190.969476 
L 252.62631 191.922687 
L 251.531715 192.805872 
L 250.198944 193.592791 
L 248.622793 194.2621 
L 246.833411 194.779132 
L 244.840436 195.121194 
L 242.696161 195.261138 
L 240.465137 195.18364 
L 238.201283 194.883598 
L 235.963152 194.363218 
L 233.828566 193.639095 
L 231.87013 192.741171 
L 230.149342 191.710014 
L 228.711839 190.592996 
L 227.592455 189.449594 
L 226.784865 188.31813 
L 226.273139 187.230356 
L 226.034052 186.211212 
L 226.039279 185.278977 
L 226.263807 184.429805 
L 226.696658 183.660955 
L 227.346426 182.96757 
L 228.221188 182.365565 
L 229.339095 181.871016 
L 230.720232 181.509217 
L 232.353398 181.315963 
L 234.219926 181.322175 
L 236.27719 181.554088 
L 238.43721 182.022663 
L 240.577431 182.713877 
L 242.524297 183.572158 
L 244.082201 184.491896 
L 245.101498 185.334342 
L 245.563917 185.974757 
L 245.623676 186.391679 
L 245.447246 186.6486 
L 245.0434 186.809651 
L 244.297972 186.843985 
L 243.086796 186.660601 
L 241.338338 186.15876 
L 239.082724 185.271478 
L 236.482988 184.00561 
L 233.8807 182.494026 
L 231.836892 181.0661 
L 230.928841 180.204263 
L 230.896649 179.993757 
L 230.915548 179.984399 
L 231.181516 180.005097 
L 232.003153 180.333094 
L 233.80268 181.314479 
L 236.722226 183.173471 
L 240.434703 185.806375 
L 244.187492 188.735538 
L 247.142814 191.307386 
L 248.880711 193.086108 
L 249.5671 194.063539 
L 249.647753 194.495691 
L 249.480664 194.656041 
L 249.083847 194.680401 
L 248.237754 194.479142 
L 246.613412 193.838771 
L 243.776045 192.458534 
L 239.125522 189.928112 
L 231.802965 185.671191 
L 224.676257 181.301286 
L 223.422153 180.341722 
L 223.437171 180.27193 
L 223.504661 180.260748 
L 224.032626 180.368812 
L 226.264992 181.117665 
L 233.946839 183.70973 
L 238.724293 185.072653 
L 242.762087 186.001299 
L 246.090025 186.547062 
L 248.661171 186.755241 
L 250.508885 186.696273 
L 251.690891 186.453968 
L 252.330835 186.11767 
L 252.588683 185.755182 
L 252.594618 185.373839 
L 252.365918 184.934241 
L 251.825444 184.409389 
L 250.862295 183.802882 
L 249.425892 183.171835 
L 247.534526 182.590974 
L 245.308824 182.143413 
L 242.885361 181.883944 
L 240.403942 181.841701 
L 237.984106 182.021748 
L 235.728801 182.40916 
L 233.687955 182.982066 
L 231.922758 183.703988 
L 230.457849 184.536714 
L 229.292026 185.449356 
L 228.431644 186.397999 
L 227.854859 187.357422 
L 227.542359 188.298778 
L 227.46963 189.214869 
L 227.622389 190.092062 
L 227.99501 190.924792 
L 228.586682 191.69636 
L 229.398281 192.386306 
L 230.43031 192.969169 
L 231.668906 193.4106 
L 233.077148 193.675317 
L 234.616767 193.737211 
L 236.22744 193.577718 
L 237.829213 193.196588 
L 239.367584 192.604357 
L 240.79113 191.81922 
L 242.034646 190.882646 
L 243.068038 189.831472 
L 243.87127 188.703833 
L 244.433991 187.537508 
L 244.754822 186.368485 
L 244.840412 185.229772 
L 244.70212 184.141119 
L 244.349692 183.120587 
L 243.791513 182.186233 
L 243.035619 181.357502 
L 242.091462 180.656229 
L 240.982008 180.110813 
L 239.729908 179.743661 
L 238.377143 179.578491 
L 236.977659 179.631278 
L 235.606021 179.905044 
L 234.358113 180.376783 
L 233.300122 181.008482 
L 232.493486 181.7406 
L 231.957671 182.518493 
L 231.690676 183.285886 
L 231.665493 184.021128 
L 231.862518 184.711104 
L 232.280692 185.357502 
L 232.936595 185.951687 
L 233.852395 186.472595 
L 235.052154 186.891065 
L 236.531556 187.166583 
L 238.285427 187.262881 
L 240.25535 187.146037 
L 242.351414 186.798558 
L 244.420736 186.231745 
L 246.226888 185.513297 
L 247.513781 184.778025 
L 248.155248 184.183686 
L 248.285639 183.806736 
L 248.147272 183.584785 
L 247.76155 183.437047 
L 246.971748 183.398166 
L 245.588622 183.570686 
L 243.476302 184.072772 
L 240.612854 184.991518 
L 237.041201 186.378371 
L 232.974833 188.19966 
L 228.861666 190.283077 
L 225.835239 192.04266 
L 225.721742 192.118588 
L 225.721742 192.118588 
" clip-path="url(#pc0d3de5beb)" style="fill: none; stroke: #000000; stroke-width: 0.1; stroke-linecap: square"/>
   </g>
  </g>
 </g>
 <defs>
  <clipPath id="pc0d3de5beb">
   <rect x="57.6" y="41.472" width="357.12" height="266.112"/>
  </clipPath>
 </defs>
</svg>
