<?xml version="1.0" encoding="utf-8" standalone="no"?>
<!DOCTYPE svg PUBLIC "-//W3C//DTD SVG 1.1//EN"
  "http://www.w3.org/Graphics/SVG/1.1/DTD/svg11.dtd">
<svg xmlns:xlink="http://www.w3.org/1999/xlink" width="460.8pt" height="345.6pt" viewBox="0 0 460.8 345.6" xmlns="http://www.w3.org/2000/svg" version="1.1">
 <metadata>
  <rdf:RDF xmlns:dc="http://purl.org/dc/elements/1.1/" xmlns:cc="http://creativecommons.org/ns#" xmlns:rdf="http://www.w3.org/1999/02/22-rdf-syntax-ns#">
   <cc:Work>
    <dc:type rdf:resource="http://purl.org/dc/dcmitype/StillImage"/>
    <dc:date>2022-12-21T13:08:59.467927</dc:date>
    <dc:format>image/svg+xml</dc:format>
    <dc:creator>
     <cc:Agent>
      <dc:title>Matplotlib v3.6.2, https://matplotlib.org/</dc:title>
     </cc:Agent>
    </dc:creator>
   </cc:Work>
  </rdf:RDF>
 </metadata>
 <defs>
  <style type="text/css">*{stroke-linejoin: round; stroke-linecap: butt}</style>
 </defs>
 <g id="figure_1">
  <g id="patch_1">
   <path d="M 0 345.6 
L 460.8 345.6 
L 460.8 0 
L 0 0 
z
" style="fill: #ffffff"/>
  </g>
  <g id="axes_1">
   <g id="line2d_1">
    <path d="M 212.167822 156.847134 
L 214.858478 160.848884 
L 217.502664 165.183111 
L 220.088445 169.851783 
L 222.603151 174.854202 
L 225.034565 180.189155 
L 227.369582 185.852167 
L 229.593258 191.831965 
L 231.69021 198.112207 
L 233.645635 204.673739 
L 235.443588 211.488015 
L 237.069 218.522064 
L 238.50641 225.731553 
L 239.741302 233.062811 
L 240.760219 240.44898 
L 241.551829 247.809598 
L 242.107876 255.047984 
L 242.424802 262.052899 
L 242.505294 268.691797 
L 242.360975 274.82438 
L 242.014758 280.298936 
L 241.502896 284.976362 
L 240.875244 288.750278 
L 240.190406 291.58286 
L 239.508255 293.519494 
L 238.878297 294.691076 
L 238.330798 295.281737 
L 237.867873 295.48133 
L 237.457024 295.423596 
L 237.045829 295.130969 
L 236.60095 294.521313 
L 236.11919 293.456897 
L 235.619265 291.779372 
L 235.135845 289.337514 
L 234.714005 286.010963 
L 234.403623 281.732888 
L 234.252282 276.484949 
L 234.301654 270.303441 
L 234.584322 263.261768 
L 235.123332 255.456542 
L 235.93299 246.995984 
L 237.019227 237.999007 
L 238.381425 228.581825 
L 240.014928 218.848767 
L 241.908977 208.910136 
L 244.049769 198.865322 
L 246.422352 188.799294 
L 249.008175 178.796572 
L 251.786425 168.9355 
L 254.736229 159.282112 
L 257.835906 149.895166 
L 261.063343 140.826121 
L 264.396339 132.119234 
L 267.810743 123.816859 
L 271.284796 115.949067 
L 274.795174 108.54418 
L 278.32166 101.619068 
L 281.842761 95.189211 
L 285.338105 89.263913 
L 288.788635 83.846688 
L 292.176768 78.935688 
L 295.486518 74.524165 
L 298.703582 70.600969 
L 301.815405 67.151052 
L 304.813765 64.153554 
L 307.687033 61.590175 
L 310.430421 59.435381 
L 313.04068 57.662885 
L 315.515967 56.246069 
L 317.858079 55.157365 
L 320.067392 54.371344 
L 322.152012 53.861868 
L 324.117889 53.606911 
L 325.975282 53.58757 
L 327.731701 53.789548 
L 329.397932 54.203649 
L 330.983241 54.826498 
L 332.493292 55.65932 
L 333.931996 56.708009 
L 335.301224 57.983124 
L 336.600476 59.499893 
L 337.823823 61.2739 
L 338.963212 63.323318 
L 340.00604 65.663448 
L 340.937278 68.306886 
L 341.74169 71.268476 
L 342.401197 74.555917 
L 342.89743 78.174402 
L 343.211638 82.122381 
L 343.325866 86.390111 
L 343.223872 90.967409 
L 342.890806 95.84016 
L 342.31479 100.980476 
L 341.48597 106.365502 
L 340.397862 111.963791 
L 339.047417 117.740325 
L 337.433578 123.662761 
L 335.558066 129.69694 
L 333.425452 135.807401 
L 331.040781 141.963855 
L 328.413625 148.130019 
L 325.550544 154.281876 
L 322.465206 160.384152 
L 319.167109 166.414648 
L 315.666353 172.352431 
L 311.977482 178.171935 
L 308.1123 183.855136 
L 304.078606 189.391331 
L 299.892791 194.759562 
L 295.562768 199.951943 
L 291.100793 204.956161 
L 286.519262 209.761353 
L 281.825273 214.36319 
L 277.030796 218.753114 
L 272.142099 222.928599 
L 267.17067 226.883065 
L 262.127978 230.611127 
L 257.013096 234.116689 
L 251.842848 237.391409 
L 246.621685 240.436086 
L 241.353508 243.251524 
L 236.048354 245.835363 
L 230.7095 248.18892 
L 225.346609 250.310752 
L 219.962451 252.202469 
L 214.5664 253.863366 
L 209.16086 255.295164 
L 203.755019 256.497759 
L 198.351068 257.472851 
L 192.951136 258.221658 
L 187.564372 258.744362 
L 182.19999 259.041799 
L 176.860318 259.115402 
L 171.554775 258.966433 
L 166.292867 258.596803 
L 161.077392 258.008167 
L 155.91152 257.201704 
L 150.812104 256.181094 
L 145.782749 254.948332 
L 140.827613 253.505026 
L 135.963999 251.856998 
L 131.202724 250.009328 
L 126.548757 247.965064 
L 122.01935 245.733039 
L 117.625557 243.320551 
L 113.378444 240.735623 
L 109.289073 237.986992 
L 105.37338 235.087922 
L 101.641592 232.049066 
L 98.108179 228.88581 
L 94.78634 225.614665 
L 91.683984 222.248658 
L 88.815793 218.810152 
L 86.187074 215.313253 
L 83.808545 211.78143 
L 81.682523 208.229041 
L 79.81302 204.674898 
L 78.202106 201.137513 
L 76.849869 197.634883 
L 75.754404 194.184281 
L 74.910794 190.797303 
L 74.314187 187.489349 
L 73.957118 184.265349 
L 73.832966 181.138688 
L 73.93394 178.112503 
L 74.252505 175.193745 
L 74.781733 172.384205 
L 75.514362 169.689457 
L 76.446097 167.106258 
L 77.573004 164.635642 
L 78.892164 162.278644 
L 80.401679 160.0364 
L 82.103595 157.906885 
L 83.998995 155.8923 
L 86.089957 153.995297 
L 88.383417 152.216272 
L 90.880141 150.562228 
L 93.589595 149.035321 
L 96.518588 147.64151 
L 99.674799 146.387627 
L 103.06674 145.281436 
L 106.697934 144.333021 
L 110.577459 143.551328 
L 114.715048 142.946304 
L 119.121002 142.528923 
L 123.799104 142.311354 
L 128.752296 142.305531 
L 133.990175 142.523511 
L 139.522455 142.978199 
L 145.35066 143.682142 
L 151.483395 144.648671 
L 157.928841 145.891628 
L 164.685609 147.423033 
L 171.759557 149.256156 
L 179.155353 151.404134 
L 186.876134 153.879667 
L 194.932821 156.698189 
L 203.324738 159.871357 
L 212.058222 163.413209 
L 221.136488 167.336581 
L 230.568878 171.657001 
L 240.359808 176.387911 
L 250.52763 181.549727 
L 261.082054 187.15906 
L 272.05133 193.242756 
L 283.466418 199.830211 
L 295.381597 206.965354 
L 307.895043 214.720548 
L 321.211931 223.23879 
L 335.811956 232.847534 
L 353.633066 244.858024 
L 379.123905 262.043698 
L 386.184988 266.519967 
L 390.710604 269.143449 
L 393.712139 270.644536 
L 395.685274 271.401536 
L 396.94286 271.665503 
L 397.710596 271.618889 
L 398.157888 271.384865 
L 398.403012 271.009016 
L 398.487242 270.45225 
L 398.371637 269.618893 
L 397.958962 268.383514 
L 397.10872 266.589421 
L 395.644278 264.051545 
L 393.35211 260.549605 
L 389.987339 255.836112 
L 385.296615 249.665408 
L 379.05707 241.838929 
L 371.16262 232.304116 
L 361.700101 221.231443 
L 350.989502 209.044613 
L 339.482371 196.289672 
L 327.637502 183.491523 
L 315.800635 171.027351 
L 304.209203 159.141936 
L 293.017214 147.981462 
L 282.301565 137.606722 
L 272.114779 128.049795 
L 262.462922 119.295854 
L 253.350882 111.327961 
L 244.777609 104.122493 
L 236.720674 97.637402 
L 229.168081 91.839591 
L 222.101054 86.690584 
L 215.495981 82.149062 
L 209.334612 78.17824 
L 203.595809 74.739995 
L 198.256534 71.796112 
L 193.300434 69.312973 
L 188.702146 67.253335 
L 184.436428 65.582281 
L 180.492434 64.271823 
L 176.838074 63.288233 
L 173.46262 62.606388 
L 170.342377 62.199554 
L 167.46101 62.044725 
L 164.797298 62.121054 
L 162.331839 62.411361 
L 160.047115 62.902055 
L 157.927535 63.583044 
L 155.959461 64.447625 
L 154.127168 65.495011 
L 152.421867 66.726267 
L 150.836828 68.145542 
L 149.364227 69.763899 
L 148.002505 71.592716 
L 146.749775 73.650997 
L 145.612348 75.95192 
L 144.595788 78.515284 
L 143.708208 81.36349 
L 142.960366 84.521369 
L 142.367666 88.002182 
L 141.944225 91.832267 
L 141.707337 96.023998 
L 141.674251 100.603673 
L 141.863708 105.580925 
L 142.293765 110.96193 
L 142.982771 116.75807 
L 143.946018 122.958234 
L 145.199697 129.564384 
L 146.754684 136.553337 
L 148.615186 143.883957 
L 150.786052 151.52764 
L 153.262207 159.427646 
L 156.028949 167.509037 
L 159.07283 175.711547 
L 162.363257 183.938439 
L 165.862876 192.090843 
L 169.538332 200.090925 
L 173.33882 207.833634 
L 177.225236 215.24999 
L 181.142809 222.250992 
L 185.05217 228.786516 
L 188.905576 234.800786 
L 192.668398 240.267691 
L 196.314741 245.179065 
L 199.812318 249.523408 
L 203.148222 253.318549 
L 206.303302 256.57774 
L 209.272034 259.331583 
L 212.056483 261.617341 
L 214.651742 263.466205 
L 217.064315 264.917946 
L 219.301933 266.010798 
L 221.377223 266.7823 
L 223.302734 267.265643 
L 225.094399 267.489896 
L 226.76696 267.477889 
L 228.333799 267.246501 
L 229.813272 266.804486 
L 231.220777 266.15149 
L 232.562784 265.282697 
L 233.851952 264.180581 
L 235.089072 262.826618 
L 236.274923 261.194209 
L 237.406973 259.250586 
L 238.475377 256.966174 
L 239.470032 254.304962 
L 240.378027 251.228435 
L 241.182532 247.702678 
L 241.866116 243.68956 
L 242.409239 239.153414 
L 242.79091 234.063881 
L 242.989789 228.392092 
L 242.984173 222.106143 
L 242.752319 215.191428 
L 242.273188 207.628422 
L 241.526109 199.397895 
L 240.488693 190.461112 
L 239.131455 180.726535 
L 237.378158 169.80307 
L 233.77802 147.915962 
L 233.7861 146.406792 
L 233.975587 145.878353 
L 234.213191 145.780796 
L 234.534489 145.915961 
L 235.073817 146.419292 
L 236.013821 147.639509 
L 237.691496 150.227792 
L 241.093294 155.956387 
L 252.329964 175.025249 
L 258.334891 184.70224 
L 264.024171 193.453891 
L 269.503921 201.480349 
L 274.785951 208.827714 
L 279.853526 215.501006 
L 284.68874 221.506215 
L 289.271998 226.850001 
L 293.587391 231.5464 
L 297.624941 235.618262 
L 301.372549 239.088556 
L 304.826162 241.990338 
L 307.982993 244.359499 
L 310.851243 246.241163 
L 313.438238 247.679296 
L 315.755049 248.719763 
L 317.819869 249.409949 
L 319.651856 249.793994 
L 321.274121 249.912086 
L 322.708315 249.797818 
L 323.977314 249.477074 
L 325.103439 248.965522 
L 326.10665 248.266299 
L 326.998053 247.373042 
L 327.784742 246.266129 
L 328.460971 244.924872 
L 329.017448 243.318089 
L 329.436231 241.415782 
L 329.69475 239.183753 
L 329.76541 236.595938 
L 329.618808 233.627354 
L 329.226 230.269369 
L 328.557593 226.504639 
L 327.587569 222.335832 
L 326.293897 217.773823 
L 324.662671 212.847528 
L 322.683799 207.58599 
L 320.353133 202.025888 
L 317.672851 196.210815 
L 314.651676 190.190322 
L 311.304949 184.018738 
L 307.647327 177.741892 
L 303.705117 171.419021 
L 299.493834 165.085799 
L 295.047833 158.801403 
L 290.387664 152.599182 
L 285.544245 146.522487 
L 280.540204 140.599843 
L 275.398086 134.857063 
L 270.140195 129.317214 
L 264.788453 124.000593 
L 259.364266 118.924745 
L 253.900706 114.114994 
L 248.406068 109.572177 
L 242.886665 105.296217 
L 237.373103 101.304774 
L 231.869536 97.594104 
L 226.40519 94.176488 
L 220.981974 91.045083 
L 215.613898 88.20032 
L 210.300452 85.63469 
L 205.067277 83.352835 
L 199.911991 81.345513 
L 194.831354 79.604726 
L 189.848549 78.131275 
L 184.958892 76.916249 
L 180.183938 75.957122 
L 175.504462 75.24277 
L 170.940752 74.769671 
L 166.486127 74.530212 
L 162.146679 74.518491 
L 157.927955 74.728016 
L 153.822749 75.153371 
L 149.836298 75.788999 
L 145.973415 76.628882 
L 142.227115 77.670097 
L 138.60231 78.907692 
L 135.103596 80.336311 
L 131.724871 81.95559 
L 128.471195 83.761235 
L 125.347404 85.748562 
L 122.34888 87.919626 
L 119.481249 90.270685 
L 116.749995 92.797573 
L 114.160445 95.495702 
L 111.710313 98.369337 
L 109.40604 101.414571 
L 107.253972 104.62699 
L 105.254415 108.012389 
L 103.420477 111.555517 
L 101.753327 115.261957 
L 100.264775 119.114422 
L 98.956835 123.118181 
L 97.839872 127.253987 
L 96.916714 131.5267 
L 96.196137 135.915219 
L 95.681743 140.4239 
L 95.380571 145.02992 
L 95.296873 149.723027 
L 95.434568 154.492529 
L 95.797227 159.327315 
L 96.385974 164.201455 
L 97.204346 169.117371 
L 98.251321 174.048442 
L 99.52685 178.982277 
L 101.025695 183.891973 
L 102.750364 188.779682 
L 104.693436 193.618805 
L 106.857902 198.411605 
L 109.234192 203.132067 
L 111.817771 207.768874 
L 114.603735 212.311071 
L 117.577589 216.734948 
L 120.741777 221.044127 
L 124.090413 225.228973 
L 127.617305 229.280307 
L 131.304454 233.17775 
L 135.155558 236.925635 
L 139.163653 240.516334 
L 143.321536 243.942741 
L 147.621783 247.19828 
L 152.056766 250.276918 
L 156.618669 253.173176 
L 161.299509 255.882132 
L 166.106312 258.407005 
L 171.016362 260.735243 
L 176.037054 262.869956 
L 181.160759 264.806597 
L 186.379614 266.541132 
L 191.685537 268.070053 
L 197.070239 269.39039 
L 202.542387 270.502861 
L 208.076531 271.401133 
L 213.681243 272.085696 
L 219.347836 272.553804 
L 225.067315 272.803293 
L 230.848152 272.832356 
L 236.663083 272.638957 
L 242.519974 272.221221 
L 248.390782 271.579816 
L 254.282697 270.712919 
L 260.202321 269.616797 
L 266.120358 268.294421 
L 272.024905 266.747316 
L 277.920828 264.972379 
L 283.777914 262.977189 
L 289.599767 260.759326 
L 295.372149 258.322321 
L 301.080342 255.670815 
L 306.709178 252.8106 
L 312.227873 249.757418 
L 317.636579 246.511585 
L 322.919126 243.082422 
L 328.045318 239.490487 
L 333.013335 235.738264 
L 337.793846 231.849316 
L 342.359922 227.849437 
L 346.710025 223.744025 
L 350.808423 219.572163 
L 354.655071 215.340624 
L 358.220137 211.090319 
L 361.497209 206.839839 
L 364.473068 202.61887 
L 367.13848 198.456409 
L 369.494356 194.369097 
L 371.537291 190.383508 
L 373.267976 186.524284 
L 374.69114 182.813718 
L 375.818311 179.261228 
L 376.659534 175.884404 
L 377.229769 172.688325 
L 377.544312 169.676399 
L 377.61868 166.850482 
L 377.468507 164.210998 
L 377.10791 161.749153 
L 376.550453 159.464187 
L 375.806793 157.34731 
L 374.884928 155.390655 
L 373.790302 153.587455 
L 372.525913 151.932197 
L 371.087028 150.41565 
L 369.476244 149.041328 
L 367.68326 147.804198 
L 365.693353 146.703101 
L 363.503054 145.746973 
L 361.092704 144.939737 
L 358.456446 144.293405 
L 355.570115 143.81738 
L 352.42595 143.526945 
L 349.006549 143.437171 
L 345.293444 143.565306 
L 341.279121 143.929306 
L 336.945467 144.548384 
L 332.274237 145.443376 
L 327.260788 146.632969 
L 321.875776 148.14217 
L 316.117825 149.989359 
L 309.960374 152.200653 
L 303.37845 154.80338 
L 296.350154 157.824664 
L 288.843014 161.296928 
L 280.815263 165.258212 
L 272.203033 169.759282 
L 262.909795 174.870773 
L 252.739263 180.723376 
L 241.331811 187.550958 
L 227.598452 196.042023 
L 190.511366 219.129245 
L 183.224641 223.304979 
L 177.594901 226.285528 
L 173.080354 228.433474 
L 169.409704 229.942571 
L 166.406303 230.946107 
L 163.931346 231.54692 
L 161.899438 231.819834 
L 160.222163 231.828215 
L 158.841372 231.619659 
L 157.697124 231.227115 
L 156.74725 230.669233 
L 155.958216 229.948786 
L 155.306915 229.050258 
L 154.786086 227.945277 
L 154.401962 226.595344 
L 154.171726 224.948811 
L 154.124014 222.952544 
L 154.295868 220.537537 
L 154.731896 217.638596 
L 155.48402 214.176963 
L 156.611422 210.06741 
L 158.172321 205.24168 
L 160.227672 199.62757 
L 162.836953 193.162656 
L 166.037381 185.839896 
L 169.835967 177.712815 
L 174.200324 168.906585 
L 179.030888 159.663081 
L 184.178267 150.292755 
L 189.460411 141.135667 
L 194.694059 132.502391 
L 199.72719 124.622044 
L 204.45 117.632366 
L 208.80586 111.57387 
L 212.765481 106.437529 
L 216.330073 102.167432 
L 219.518406 98.685083 
L 222.349119 95.912694 
L 224.851802 93.762986 
L 227.057562 92.151915 
L 228.997507 91.00112 
L 230.706817 90.237568 
L 232.212932 89.800839 
L 233.550301 89.63831 
L 234.748896 89.711907 
L 235.83829 89.998689 
L 236.846399 90.494035 
L 237.7913 91.208989 
L 238.685614 92.170252 
L 239.533371 93.416068 
L 240.333633 94.998522 
L 241.077932 96.977877 
L 241.753451 99.426196 
L 242.341477 102.418918 
L 242.821471 106.0487 
L 243.169537 110.429556 
L 243.356723 115.676372 
L 243.351603 121.947969 
L 243.116417 129.457594 
L 242.603127 138.508614 
L 241.740971 149.628389 
L 240.391031 164.004116 
L 237.860898 188.162682 
L 235.499618 211.461745 
L 234.380948 224.669992 
L 233.737714 234.805635 
L 233.435804 242.955786 
L 233.404366 249.610791 
L 233.593458 255.066836 
L 233.963098 259.53077 
L 234.478643 263.157682 
L 235.111935 266.085409 
L 235.835299 268.413218 
L 236.626907 270.237344 
L 237.469911 271.640725 
L 238.355717 272.696451 
L 239.281638 273.461481 
L 240.250426 273.977773 
L 241.278368 274.274842 
L 242.38876 274.362304 
L 243.606873 274.230985 
L 244.958517 273.856684 
L 246.479596 273.198266 
L 248.194655 272.206821 
L 250.142659 270.815769 
L 252.347655 268.959621 
L 254.847171 266.555745 
L 257.665887 263.527195 
L 260.833188 259.788718 
L 264.374811 255.255173 
L 268.301734 249.858162 
L 272.605122 243.558103 
L 277.25973 236.343268 
L 282.202957 228.265538 
L 287.315162 219.482287 
L 292.431923 210.248428 
L 297.357257 200.903373 
L 301.893157 191.826017 
L 305.897117 183.324015 
L 309.277306 175.636614 
L 312.026111 168.846537 
L 314.165211 162.986956 
L 315.75436 158.005992 
L 316.863176 153.823017 
L 317.561475 150.350181 
L 317.916265 147.498495 
L 317.989523 145.175438 
L 317.834182 143.297779 
L 317.49384 141.792684 
L 317.002903 140.597989 
L 316.378546 139.651646 
L 315.629353 138.91545 
L 314.746091 138.358821 
L 313.70525 137.968005 
L 312.468761 137.746155 
L 310.99487 137.713668 
L 309.230213 137.90363 
L 307.108506 138.362771 
L 304.549088 139.15231 
L 301.464669 140.344551 
L 297.714248 142.0418 
L 293.127393 144.371551 
L 287.416883 147.532403 
L 280.043482 151.8814 
L 269.543299 158.354764 
L 233.390119 180.831222 
L 222.471262 187.256924 
L 212.811878 192.687953 
L 204.020964 197.379663 
L 195.909444 201.460251 
L 188.391866 204.996735 
L 181.405203 208.041693 
L 174.896216 210.639745 
L 168.841385 212.821058 
L 163.212826 214.616497 
L 157.980341 216.055634 
L 153.143306 217.15915 
L 148.667788 217.955385 
L 144.548943 218.465508 
L 140.765801 218.712993 
L 137.309953 218.719629 
L 134.159192 218.506894 
L 131.292407 218.093573 
L 128.700075 217.498458 
L 126.362043 216.736982 
L 124.26013 215.821647 
L 122.378316 214.762103 
L 120.702913 213.565253 
L 119.222697 212.235378 
L 117.929035 210.774279 
L 116.816 209.181422 
L 115.88049 207.454096 
L 115.119329 205.578794 
L 114.54019 203.556577 
L 114.149308 201.37927 
L 113.956331 199.037267 
L 113.974486 196.519776 
L 114.219266 193.826589 
L 114.706171 190.958864 
L 115.450609 187.919259 
L 116.467784 184.712068 
L 117.772572 181.34336 
L 119.372803 177.834551 
L 121.279114 174.196421 
L 123.492653 170.455455 
L 126.019183 166.626527 
L 128.852667 162.740144 
L 131.981849 158.828363 
L 135.403163 154.910013 
L 139.09825 151.018447 
L 143.043952 147.186732 
L 147.228269 143.433406 
L 151.638608 139.776513 
L 156.244556 136.24625 
L 161.030183 132.858054 
L 165.979406 129.626277 
L 171.076053 126.56415 
L 176.283908 123.694306 
L 181.605732 121.015747 
L 187.004548 118.547214 
L 192.463277 116.294833 
L 197.987319 114.255698 
L 203.539464 112.442449 
L 209.126805 110.851275 
L 214.71242 109.490774 
L 220.30504 108.356505 
L 225.891531 107.44981 
L 231.459208 106.771042 
L 236.995866 106.3196 
L 242.489802 106.093973 
L 247.953048 106.092255 
L 253.351544 106.312685 
L 258.698035 106.75367 
L 263.959515 107.410028 
L 269.149326 108.280628 
L 274.258029 109.362231 
L 279.276533 110.650944 
L 284.2177 112.149304 
L 289.050804 113.846937 
L 293.788517 115.746949 
L 298.401484 117.835934 
L 302.902097 120.11758 
L 307.281778 122.586988 
L 311.532177 125.238642 
L 315.645193 128.066424 
L 319.61299 131.063632 
L 323.428019 134.222992 
L 327.098909 137.551738 
L 330.601336 141.027716 
L 333.928623 144.641941 
L 337.087955 148.401771 
L 340.05819 152.281437 
L 342.845485 156.288221 
L 345.43104 160.394211 
L 347.809993 164.587945 
L 349.98696 168.876483 
L 351.94703 173.229326 
L 353.686653 177.6339 
L 355.202763 182.07739 
L 356.492781 186.546781 
L 357.550486 191.009314 
L 358.380445 195.471344 
L 358.979461 199.900218 
L 359.351116 204.302473 
L 359.495217 208.645967 
L 359.415182 212.918506 
L 359.114883 217.108326 
L 358.598621 221.204129 
L 357.874857 225.177344 
L 356.946805 229.036381 
L 355.82547 232.754845 
L 354.512776 236.341598 
L 353.014695 239.788307 
L 351.345703 243.072196 
L 349.505733 246.202471 
L 347.511293 249.159029 
L 345.360936 251.951151 
L 343.061613 254.573691 
L 340.620424 257.022098 
L 338.044594 259.29242 
L 335.328002 261.391014 
L 332.476155 263.31252 
L 329.494798 265.052043 
L 326.389908 266.60516 
L 323.167677 267.967946 
L 319.818141 269.142148 
L 316.363272 270.117773 
L 312.775311 270.898879 
L 309.076477 271.475442 
L 305.272987 271.843131 
L 301.352922 271.99839 
L 297.322236 271.934978 
L 293.187444 271.647251 
L 288.93627 271.127365 
L 284.595296 270.371868 
L 280.153114 269.372378 
L 275.618238 268.123237 
L 270.999998 266.619783 
L 266.288569 264.850456 
L 261.514919 262.818912 
L 256.671072 260.514199 
L 251.789876 257.944842 
L 246.865369 255.101093 
L 241.912623 251.984048 
L 236.928657 248.583265 
L 231.950377 244.915957 
L 226.996041 240.989815 
L 222.066918 236.799226 
L 217.201919 232.371389 
L 212.405156 227.704967 
L 207.700077 222.816897 
L 203.126402 217.745092 
L 198.692195 212.496069 
L 194.436647 207.114701 
L 190.38283 201.631371 
L 186.553634 196.079178 
L 182.982585 190.511666 
L 179.688519 184.966024 
L 176.707147 179.515182 
L 174.048558 174.195776 
L 171.727978 169.05992 
L 169.760258 164.171222 
L 168.145097 159.570574 
L 166.879822 155.305844 
L 165.949406 151.401197 
L 165.33546 147.884304 
L 165.010829 144.760022 
L 164.945044 142.025147 
L 165.105125 139.668987 
L 165.458174 137.666628 
L 165.973193 135.991304 
L 166.624392 134.60954 
L 167.394321 133.486419 
L 168.271933 132.594045 
L 169.2567 131.908636 
L 170.34966 131.418652 
L 171.567931 131.117266 
L 172.936248 131.011682 
L 174.465543 131.120729 
L 176.182181 131.470374 
L 178.108602 132.09482 
L 180.260314 133.031424 
L 182.651601 134.320001 
L 185.294635 136.001807 
L 188.198404 138.118086 
L 191.367445 140.708113 
L 194.800393 143.806637 
L 198.488351 147.440634 
L 202.413128 151.62533 
L 206.555321 156.371175 
L 210.901188 161.693166 
L 215.40814 167.567813 
L 220.054328 173.993202 
L 224.792588 180.928643 
L 229.599711 188.361984 
L 234.504157 196.360084 
L 240.2303 206.154594 
L 242.924852 210.58398 
L 243.472778 211.14963 
L 243.594973 211.065134 
L 243.61296 210.663984 
L 243.40245 209.389601 
L 242.497005 205.592402 
L 239.063308 191.443408 
L 237.26819 182.980583 
L 235.829101 175.13872 
L 234.717433 167.86632 
L 233.919149 161.197034 
L 233.414135 155.140288 
L 233.180132 149.713338 
L 233.190312 144.894808 
L 233.416523 140.676331 
L 233.830225 137.019231 
L 234.401584 133.895662 
L 235.103465 131.258786 
L 235.912196 129.059527 
L 236.808161 127.249788 
L 237.776048 125.784703 
L 238.800106 124.628737 
L 239.882524 123.737307 
L 241.021696 123.085298 
L 242.225563 122.652603 
L 243.50693 122.43 
L 244.883138 122.419531 
L 246.368596 122.633537 
L 247.987809 123.095195 
L 249.761129 123.837197 
L 251.702534 124.896689 
L 253.817349 126.309406 
L 256.127149 128.125832 
L 258.635028 130.387904 
L 261.331225 133.125219 
L 264.220925 136.382022 
L 267.285536 140.177082 
L 270.500558 144.517453 
L 273.845814 149.412871 
L 277.274733 154.830324 
L 280.735389 160.71776 
L 284.172169 167.005407 
L 287.537319 173.627558 
L 290.763788 180.468623 
L 293.797705 187.422678 
L 296.582831 194.359677 
L 299.087843 201.191583 
L 301.281945 207.815877 
L 303.145373 214.139558 
L 304.679406 220.121011 
L 305.886497 225.710013 
L 306.777149 230.868787 
L 307.372835 235.606088 
L 307.692724 239.903412 
L 307.761935 243.768245 
L 307.606113 247.228346 
L 307.250336 250.29934 
L 306.717425 253.012786 
L 306.027004 255.399129 
L 305.195428 257.48696 
L 304.241178 259.293538 
L 303.170279 260.853274 
L 301.982447 262.193414 
L 300.686764 263.322143 
L 299.275553 264.258054 
L 297.735397 265.012131 
L 296.057169 265.5848 
L 294.218478 265.974314 
L 292.214134 266.169478 
L 290.002938 266.157501 
L 287.573767 265.917321 
L 284.902332 265.4249 
L 281.976386 264.655824 
L 278.754111 263.574899 
L 275.220656 262.151107 
L 271.345956 260.34619 
L 267.098948 258.118163 
L 262.448316 255.422018 
L 257.382549 252.223273 
L 251.875188 248.478588 
L 245.882845 244.130722 
L 239.386214 239.137484 
L 232.374362 233.463929 
L 224.804616 227.048958 
L 216.670184 219.860116 
L 207.964751 211.866363 
L 198.692137 203.04622 
L 188.923911 193.444777 
L 178.774018 183.154063 
L 168.517413 172.437991 
L 158.627282 161.786612 
L 149.737303 151.893493 
L 142.501408 143.521982 
L 137.209183 137.078098 
L 133.712142 132.493031 
L 131.637232 129.434505 
L 130.573598 127.505927 
L 130.172629 126.365456 
L 130.161882 125.738799 
L 130.35968 125.417938 
L 130.716436 125.271204 
L 131.3188 125.285643 
L 132.322973 125.553259 
L 133.951147 126.238438 
L 136.516028 127.580044 
L 140.534829 129.954822 
L 147.155182 134.152331 
L 165.900363 146.418151 
L 179.739483 155.293486 
L 191.248084 162.413019 
L 201.797283 168.680883 
L 211.693213 174.305378 
L 221.09314 179.394855 
L 230.039779 183.988356 
L 238.55851 188.11483 
L 246.670475 191.800301 
L 254.411738 195.075672 
L 261.774669 197.951909 
L 268.759712 200.444587 
L 275.373426 202.57194 
L 281.62678 204.353298 
L 287.53367 205.80786 
L 293.086536 206.949499 
L 298.304131 207.798023 
L 303.183873 208.368953 
L 307.726215 208.679603 
L 311.95368 208.748421 
L 315.850473 208.593132 
L 319.45877 208.229446 
L 322.765514 207.675338 
L 325.778563 206.948817 
L 328.521093 206.062784 
L 331.013006 205.026531 
L 333.247273 203.859649 
L 335.243384 202.56971 
L 337.017071 201.161057 
L 338.571867 199.64416 
L 339.919059 198.019889 
L 341.059865 196.296952 
L 342.000858 194.473446 
L 342.744435 192.545567 
L 343.28622 190.519827 
L 343.623571 188.391166 
L 343.749382 186.166283 
L 343.655867 183.839901 
L 343.335538 181.43307 
L 342.7792 178.942198 
L 341.973335 176.364126 
L 340.912319 173.724097 
L 339.596343 171.04925 
L 338.01433 168.340761 
L 336.170853 165.628243 
L 334.06542 162.928614 
L 331.710743 160.27254 
L 329.111917 157.677432 
L 326.274992 155.160929 
L 323.222297 152.752201 
L 319.980998 150.477884 
L 316.548114 148.34112 
L 312.953573 146.365695 
L 309.212132 144.562905 
L 305.338639 142.942922 
L 301.347969 141.514768 
L 297.254965 140.286293 
L 293.074385 139.264163 
L 288.820846 138.453851 
L 284.508773 137.859644 
L 280.152353 137.484644 
L 275.765485 137.330787 
L 271.361742 137.39886 
L 266.954328 137.688531 
L 262.533123 138.201612 
L 258.110567 138.939101 
L 253.699007 139.900945 
L 249.310662 141.086035 
L 244.957582 142.492203 
L 240.651611 144.116222 
L 236.382513 145.963883 
L 232.162788 148.033072 
L 228.004967 150.320454 
L 223.921559 152.821434 
L 219.925006 155.53013 
L 216.008356 158.454426 
L 212.204378 161.572457 
L 208.507289 164.890937 
L 204.931214 168.400696 
L 201.490217 172.09079 
L 198.19821 175.948458 
L 195.068865 179.959093 
L 192.115518 184.106227 
L 189.351075 188.371534 
L 186.787903 192.734844 
L 184.437736 197.174185 
L 182.31156 201.665831 
L 180.427429 206.164189 
L 178.791043 210.643002 
L 177.406983 215.075284 
L 176.283095 219.414356 
L 175.418107 223.634043 
L 174.811713 227.690815 
L 174.458001 231.545015 
L 174.345785 235.162007 
L 174.460116 238.5283 
L 174.783698 241.618852 
L 175.298283 244.428544 
L 175.978238 246.931224 
L 176.805681 249.144774 
L 177.756155 251.065875 
L 178.815475 252.714769 
L 179.966617 254.101623 
L 181.200892 255.244006 
L 182.504985 256.151227 
L 183.883069 256.840553 
L 185.334977 257.318177 
L 186.862547 257.586163 
L 188.478925 257.642021 
L 190.180004 257.476926 
L 191.981821 257.076863 
L 193.89158 256.422113 
L 195.905608 255.493795 
L 198.030042 254.266781 
L 200.270326 252.711386 
L 202.607857 250.813458 
L 205.044571 248.543773 
L 207.557595 245.895466 
L 210.14483 242.842056 
L 212.790454 239.370845 
L 215.465248 235.490638 
L 218.160456 231.184366 
L 220.843307 226.47457 
L 223.490806 221.374563 
L 226.078696 215.904573 
L 228.581759 210.092259 
L 230.974191 203.973141 
L 233.230023 197.590927 
L 235.323623 190.997698 
L 237.224169 184.276829 
L 238.910955 177.496137 
L 240.365614 170.729838 
L 241.569217 164.079098 
L 242.509897 157.645749 
L 243.185016 151.509828 
L 243.594446 145.785894 
L 243.748908 140.573336 
L 243.668938 135.951553 
L 243.384511 131.988383 
L 242.935724 128.727999 
L 242.36953 126.172238 
L 241.732849 124.27672 
L 241.075896 122.9788 
L 240.433518 122.170691 
L 239.823263 121.740574 
L 239.248342 121.596193 
L 238.679885 121.681915 
L 238.088547 122.002518 
L 237.451992 122.611449 
L 236.764977 123.590696 
L 236.041692 125.025374 
L 235.310095 126.989087 
L 234.610656 129.523962 
L 233.990046 132.6318 
L 233.495812 136.264173 
L 233.16755 140.346015 
L 233.035415 144.787616 
L 233.119648 149.480378 
L 233.429827 154.320685 
L 233.965348 159.202371 
L 234.721309 164.056625 
L 235.685285 168.804681 
L 236.838528 173.376303 
L 238.167747 177.744766 
L 239.654759 181.874479 
L 241.280141 185.737872 
L 243.023744 189.314877 
L 244.873391 192.606002 
L 246.801684 195.588731 
L 248.797987 198.273204 
L 250.854278 200.670183 
L 252.954657 202.780504 
L 255.083779 204.608319 
L 257.237872 206.167848 
L 259.403889 207.465095 
L 261.580729 208.512954 
L 263.768598 209.321365 
L 265.957006 209.894655 
L 268.147307 210.239809 
L 270.341122 210.360399 
L 272.528329 210.257713 
L 274.709983 209.932066 
L 276.875006 209.383952 
L 279.022827 208.610761 
L 281.151221 207.607009 
L 283.24536 206.371448 
L 285.289244 204.904968 
L 287.265729 203.210783 
L 289.147778 201.304269 
L 290.926224 199.18583 
L 292.573655 196.877672 
L 294.071631 194.395633 
L 295.395704 191.770412 
L 296.525035 189.036869 
L 297.443133 186.232798 
L 298.138496 183.397597 
L 298.606787 180.557313 
L 298.843901 177.764016 
L 298.854503 175.027261 
L 298.643552 172.381249 
L 298.219066 169.843953 
L 297.594113 167.443119 
L 296.777289 165.17809 
L 295.773631 163.047572 
L 294.598774 161.071907 
L 293.256916 159.246764 
L 291.748541 157.568721 
L 290.080707 156.044354 
L 288.249746 154.671337 
L 286.248478 153.449683 
L 284.079521 152.387962 
L 281.746093 151.494 
L 279.236968 150.77115 
L 276.537888 150.226277 
L 273.648661 149.871551 
L 270.552334 149.718323 
L 267.266778 149.780211 
L 263.775664 150.069585 
L 260.060815 150.602888 
L 256.123586 151.395916 
L 251.967327 152.463241 
L 247.597584 153.81787 
L 243.022295 155.470884 
L 238.228825 157.441129 
L 233.229328 159.738537 
L 228.039478 162.369691 
L 222.654721 165.351111 
L 217.098351 168.684409 
L 211.398666 172.365629 
L 205.58926 176.384494 
L 199.70925 180.723682 
L 193.78056 185.376642 
L 187.878068 190.292501 
L 182.058645 195.428467 
L 176.384788 200.732481 
L 170.962017 206.10458 
L 165.871435 211.457454 
L 161.205091 216.682267 
L 157.040593 221.673702 
L 153.461509 226.303252 
L 150.504733 230.48199 
L 148.184264 234.133495 
L 146.463535 237.240456 
L 145.29006 239.798626 
L 144.582623 241.849219 
L 144.254863 243.445132 
L 144.21969 244.659916 
L 144.405577 245.571907 
L 144.762305 246.243349 
L 145.271129 246.730403 
L 145.943393 247.062018 
L 146.825767 247.240741 
L 147.975892 247.2365 
L 149.464783 246.997765 
L 151.361249 246.459004 
L 153.755736 245.538489 
L 156.73975 244.14368 
L 160.412832 242.171409 
L 164.862223 239.521249 
L 170.230635 236.05588 
L 176.651915 231.637068 
L 184.306314 226.091196 
L 193.50501 219.14221 
L 204.73837 210.366384 
L 219.244968 198.735165 
L 244.605735 178.059799 
L 266.334348 160.466424 
L 279.49775 150.087657 
L 289.75358 142.274746 
L 298.095991 136.189955 
L 304.94587 131.458966 
L 310.595596 127.817075 
L 315.214505 125.093825 
L 318.946559 123.140442 
L 321.926219 121.82112 
L 324.254239 121.022575 
L 326.029891 120.636037 
L 327.361964 120.560958 
L 328.341391 120.717174 
L 329.046876 121.045785 
L 329.543632 121.516601 
L 329.875941 122.141171 
L 330.046879 122.948586 
L 330.033275 123.998083 
L 329.784277 125.35124 
L 329.231844 127.074867 
L 328.296741 129.234131 
L 326.904263 131.870753 
L 324.976331 135.029267 
L 322.470076 138.697206 
L 319.357002 142.851069 
L 315.646076 147.426142 
L 311.376887 152.33246 
L 306.618124 157.46006 
L 301.444081 162.705785 
L 295.965812 167.942213 
L 290.265277 173.083249 
L 284.426577 178.049585 
L 278.533427 182.771346 
L 272.642439 187.207936 
L 266.80424 191.3279 
L 261.063424 195.108405 
L 255.458628 198.534602 
L 250.022681 201.598905 
L 244.782854 204.300212 
L 239.737221 206.653664 
L 234.904368 208.664479 
L 230.298871 210.341879 
L 225.931572 211.698482 
L 221.809879 212.749711 
L 217.917435 213.516671 
L 214.258235 214.014618 
L 210.81511 214.26098 
L 207.608484 214.270246 
L 204.619276 214.059276 
L 201.846699 213.643634 
L 199.273625 213.035178 
L 196.899792 212.247004 
L 194.723931 211.292699 
L 192.732005 210.178783 
L 190.913432 208.908238 
L 189.270921 207.490239 
L 187.797984 205.924677 
L 186.499378 204.219973 
L 185.372973 202.374127 
L 184.425685 200.395903 
L 183.659823 198.282921 
L 183.081648 196.032541 
L 182.704419 193.669832 
L 182.534943 191.196154 
L 182.58278 188.628449 
L 182.854083 186.000611 
L 183.355155 183.321404 
L 184.082243 180.643726 
L 185.031715 177.993913 
L 186.191931 175.4123 
L 187.553114 172.925453 
L 189.087756 170.582863 
L 190.778745 168.405567 
L 192.599014 166.422431 
L 194.518888 164.656214 
L 196.52886 163.107455 
L 198.599683 161.791375 
L 200.713074 160.710684 
L 202.852036 159.865528 
L 205.000897 159.253708 
L 207.157722 158.869337 
L 209.309771 158.710013 
L 211.457742 158.772663 
L 213.603117 159.05782 
L 215.73523 159.566124 
L 217.855883 160.301645 
L 219.95438 161.265927 
L 222.031742 162.466363 
L 224.087745 163.913659 
L 226.109509 165.61153 
L 228.083785 167.561336 
L 230.01689 169.786357 
L 231.8824 172.27558 
L 233.673213 175.038653 
L 235.371413 178.069576 
L 236.966209 181.373426 
L 238.437413 184.935669 
L 239.765185 188.734854 
L 240.935189 192.759757 
L 241.923311 196.955982 
L 242.716681 201.295331 
L 243.297607 205.704536 
L 243.656477 210.119248 
L 243.787795 214.466534 
L 243.693212 218.619723 
L 243.386034 222.48884 
L 242.891258 225.964405 
L 242.247465 228.94925 
L 241.505389 231.374305 
L 240.713781 233.233415 
L 239.926116 234.544538 
L 239.179644 235.380161 
L 238.495353 235.832326 
L 237.866917 235.991815 
L 237.279013 235.915157 
L 236.696265 235.60989 
L 236.101557 235.03634 
L 235.490807 234.122607 
L 234.880753 232.791768 
L 234.295285 230.957482 
L 233.775311 228.572282 
L 233.359215 225.588794 
L 233.089817 222.0065 
L 233.004873 217.858651 
L 233.134464 213.192744 
L 233.50259 208.059892 
L 234.121433 202.571058 
L 234.995724 196.813003 
L 236.122174 190.87988 
L 237.489442 184.869505 
L 239.085417 178.855189 
L 240.886869 172.930935 
L 242.872977 167.161075 
L 245.011453 161.626632 
L 247.275946 156.375967 
L 249.639714 151.449083 
L 252.076166 146.877777 
L 254.559323 142.685954 
L 257.052152 138.907378 
L 259.542683 135.531054 
L 261.996801 132.573988 
L 264.394546 130.028342 
L 266.706003 127.891803 
L 268.92899 126.132933 
L 271.051391 124.730986 
L 273.063551 123.66257 
L 274.958175 122.902355 
L 276.741435 122.421431 
L 278.4091 122.197125 
L 279.979346 122.207843 
L 281.448154 122.438995 
L 282.821815 122.879243 
L 284.113962 123.527822 
L 285.317637 124.381386 
L 286.44086 125.451873 
L 287.479234 126.75191 
L 288.424711 128.298346 
L 289.26009 130.09966 
L 289.967162 132.162336 
L 290.526788 134.490546 
L 290.919013 137.085831 
L 291.123195 139.946771 
L 291.118834 143.050419 
L 290.890319 146.366452 
L 290.424376 149.878112 
L 289.708453 153.566161 
L 288.742965 157.366381 
L 287.525789 161.252259 
L 286.056166 165.196799 
L 284.344928 169.150717 
L 282.39821 173.086801 
L 280.236294 176.957081 
L 277.857482 180.758939 
L 275.28676 184.448088 
L 272.538294 188.004396 
L 269.626831 191.409963 
L 266.548836 194.667998 
L 263.336584 197.744407 
L 260.005996 200.627697 
L 256.551594 203.324458 
L 253.009294 205.809307 
L 249.372231 208.090449 
L 245.654415 210.160732 
L 241.870017 212.014602 
L 238.033291 213.648071 
L 234.133655 215.066971 
L 230.20963 216.259247 
L 226.250259 217.230789 
L 222.269421 217.979147 
L 218.28128 218.503202 
L 214.300228 218.803171 
L 210.315714 218.88039 
L 206.368093 218.735166 
L 202.447926 218.368786 
L 198.571646 217.782835 
L 194.756202 216.98044 
L 191.041714 215.973187 
L 187.421675 214.762896 
L 183.913858 213.357319 
L 180.536247 211.765811 
L 177.306956 209.999326 
L 174.261994 208.082436 
L 171.399057 206.018709 
L 168.751051 203.836862 
L 166.344944 201.569204 
L 164.176161 199.221518 
L 162.277598 196.842365 
L 160.640673 194.437401 
L 159.284859 192.05582 
L 158.197102 189.701013 
L 157.378414 187.404597 
L 156.819225 185.181238 
L 156.508877 183.043612 
L 156.435791 181.002455 
L 156.587626 179.066629 
L 156.951435 177.243212 
L 157.518697 175.525361 
L 158.286488 173.907311 
L 159.249481 172.395843 
L 160.411176 170.986859 
L 161.780386 169.678782 
L 163.358871 168.48138 
L 165.16138 167.396816 
L 167.192511 166.437269 
L 169.472496 165.609578 
L 172.00823 164.928937 
L 174.805351 164.410435 
L 177.888764 164.067251 
L 181.265033 163.91752 
L 184.961966 163.979875 
L 188.96084 164.27268 
L 193.28664 164.815197 
L 197.938879 165.625296 
L 202.94101 166.725278 
L 208.287017 168.132026 
L 213.965361 169.858561 
L 219.988496 171.923961 
L 226.394579 174.358708 
L 233.153866 177.16849 
L 240.286728 180.377322 
L 247.799085 184.003717 
L 255.705714 188.070243 
L 264.046732 192.613332 
L 272.887543 197.685211 
L 282.414553 203.411767 
L 293.234631 210.183941 
L 313.691697 223.068101 
L 316.216201 224.359228 
L 317.441067 224.767382 
L 317.967691 224.744395 
L 318.150924 224.54008 
L 318.150301 224.176877 
L 317.89668 223.499791 
L 317.176303 222.284276 
L 315.673867 220.226582 
L 312.962779 216.921304 
L 308.563578 211.931772 
L 302.136701 204.994282 
L 293.894484 196.431179 
L 284.635693 187.133272 
L 275.255918 178.025616 
L 266.253097 169.588823 
L 257.838797 162.003144 
L 250.092428 155.313942 
L 243.019742 149.495301 
L 236.605 144.500578 
L 230.827089 140.276684 
L 225.622401 136.740132 
L 220.942233 133.822692 
L 216.774431 131.479517 
L 213.058663 129.638443 
L 209.755301 128.243649 
L 206.841555 127.248011 
L 204.275641 126.598996 
L 202.018328 126.250398 
L 200.033639 126.162745 
L 198.289263 126.303387 
L 196.756774 126.646359 
L 195.411711 127.17211 
L 194.224709 127.87344 
L 193.182439 128.746765 
L 192.268751 129.802721 
L 191.475813 131.062277 
L 190.808841 132.544571 
L 190.27411 134.286139 
L 189.891287 136.303643 
L 189.678202 138.643371 
L 189.661304 141.324719 
L 189.868079 144.38138 
L 190.329903 147.846406 
L 191.076705 151.728898 
L 192.135011 156.027954 
L 193.519338 160.7078 
L 195.250078 165.762879 
L 197.316119 171.103387 
L 199.699769 176.645525 
L 202.371158 182.292002 
L 205.264765 187.890139 
L 208.326988 193.33285 
L 211.473132 198.475274 
L 214.628365 203.21163 
L 217.720624 207.458106 
L 220.684543 211.157249 
L 223.464548 214.280182 
L 226.040803 216.848854 
L 228.390336 218.886361 
L 230.510452 220.43851 
L 232.394361 221.550701 
L 234.06159 222.284897 
L 235.532514 222.696138 
L 236.819123 222.831939 
L 237.957432 222.734092 
L 238.976604 222.425111 
L 239.892531 221.914333 
L 240.721796 221.194827 
L 241.47313 220.24442 
L 242.146824 219.026573 
L 242.730919 217.501117 
L 243.207024 215.621389 
L 243.550319 213.336617 
L 243.729644 210.609428 
L 243.712453 207.397454 
L 243.46553 203.686529 
L 242.956237 199.455333 
L 242.162246 194.749058 
L 241.06841 189.615904 
L 239.677948 184.163558 
L 238.022763 178.572173 
L 236.182543 173.130681 
L 234.339689 168.351946 
L 233.060027 165.562061 
L 233.052124 165.55918 
L 233.116931 165.763912 
L 233.94957 167.564187 
L 235.95321 171.371461 
L 238.693018 176.095313 
L 241.862235 181.115375 
L 245.2775 186.110477 
L 248.812977 190.88995 
L 252.358886 195.313644 
L 255.845179 199.311853 
L 259.206948 202.833557 
L 262.388409 205.850322 
L 265.364921 208.372165 
L 268.100892 210.405377 
L 270.586277 211.982327 
L 272.80928 213.137554 
L 274.77857 213.918908 
L 276.507984 214.373851 
L 278.014486 214.547041 
L 279.316533 214.478775 
L 280.440345 214.201386 
L 281.407961 213.735851 
L 282.236303 213.092177 
L 282.941187 212.262911 
L 283.527646 211.22488 
L 283.982819 209.958782 
L 284.290166 208.429893 
L 284.421702 206.619093 
L 284.346652 204.495664 
L 284.032267 202.057513 
L 283.446336 199.295664 
L 282.567838 196.242546 
L 281.374302 192.907567 
L 279.853827 189.325895 
L 278.00328 185.54198 
L 275.828834 181.608015 
L 273.360355 177.603875 
L 270.611631 173.56931 
L 267.598595 169.543786 
L 264.376557 165.609739 
L 260.953022 161.780735 
L 257.373356 158.110575 
L 253.665557 154.626989 
L 249.857231 151.353655 
L 245.975308 148.310223 
L 242.070366 145.52903 
L 238.143757 143.002619 
L 234.218631 140.738939 
L 230.316676 138.742576 
L 226.457999 137.014995 
L 222.63502 135.545621 
L 218.890607 134.34297 
L 215.214254 133.394996 
L 211.645803 132.702637 
L 208.172115 132.253397 
L 204.804816 132.040743 
L 201.554321 132.056761 
L 198.429835 132.292336 
L 195.416543 132.741588 
L 192.545654 133.392431 
L 189.801864 134.240458 
L 187.192671 135.277794 
L 184.724839 136.495821 
L 182.386216 137.897189 
L 180.202506 139.462886 
L 178.162561 141.197029 
L 176.274065 143.092452 
L 174.544268 145.141236 
L 172.968034 147.352991 
L 171.566417 149.702253 
L 170.336307 152.199107 
L 169.295113 154.814218 
L 168.441782 157.557917 
L 167.785373 160.420142 
L 167.337171 163.366444 
L 167.099239 166.406957 
L 167.078997 169.528815 
L 167.280811 172.693719 
L 167.709699 175.911092 
L 168.365049 179.141039 
L 169.246104 182.367809 
L 170.351266 185.575682 
L 171.689075 188.77311 
L 173.248607 191.919762 
L 175.011392 194.977133 
L 176.983495 197.95454 
L 179.159188 200.837705 
L 181.531964 203.612882 
L 184.094551 206.266933 
L 186.838938 208.7874 
L 189.733503 211.145025 
L 192.789329 213.348922 
L 195.996604 215.389292 
L 199.344919 217.257238 
L 202.823313 218.944816 
L 206.448405 220.455873 
L 210.181694 221.770665 
L 214.010505 222.884238 
L 217.951908 223.798901 
L 221.993923 224.507151 
L 226.092641 224.999682 
L 230.264714 225.277418 
L 234.495792 225.336391 
L 238.770699 225.173957 
L 243.073482 224.788879 
L 247.418604 224.176214 
L 251.756904 223.339868 
L 256.100401 222.275166 
L 260.398705 220.992737 
L 264.661157 219.488752 
L 268.836989 217.780708 
L 272.932718 215.866187 
L 276.924201 213.75487 
L 280.761756 211.47451 
L 284.447425 209.025932 
L 287.933779 206.443115 
L 291.199919 203.747087 
L 294.20707 200.978439 
L 296.941248 198.161775 
L 299.389952 195.321908 
L 301.516391 192.520162 
L 303.334047 189.761669 
L 304.823517 187.103804 
L 305.997052 184.564145 
L 306.868519 182.157245 
L 307.449886 179.910551 
L 307.762954 177.830554 
L 307.830007 175.920752 
L 307.673504 174.181965 
L 307.312084 172.600395 
L 306.757729 171.164183 
L 306.023057 169.874245 
L 305.112436 168.721091 
L 304.014583 167.690472 
L 302.729671 166.790177 
L 301.233098 166.016165 
L 299.518213 165.382573 
L 297.564045 164.900214 
L 295.345618 164.584857 
L 292.834507 164.457401 
L 290.019254 164.54256 
L 286.891773 164.863816 
L 283.425898 165.446975 
L 279.59582 166.321003 
L 275.402109 167.509275 
L 270.803215 169.047091 
L 265.787023 170.96272 
L 260.326176 173.289759 
L 254.355109 176.080614 
L 247.831733 179.379275 
L 240.576865 183.301846 
L 232.145892 188.121796 
L 219.70502 195.526067 
L 210.141679 201.119014 
L 205.533646 203.567723 
L 202.454182 204.967327 
L 200.308794 205.713944 
L 198.78758 206.022406 
L 197.722901 206.025953 
L 196.977753 205.818495 
L 196.458984 205.451422 
L 196.102315 204.925046 
L 195.890891 204.204146 
L 195.842995 203.208057 
L 196.013726 201.84555 
L 196.479922 200.009168 
L 197.34299 197.558244 
L 198.72147 194.344407 
L 200.744218 190.216652 
L 203.526341 185.063982 
L 207.092101 178.939901 
L 211.319647 172.125863 
L 215.880429 165.194463 
L 220.354717 158.790377 
L 224.452015 153.302728 
L 228.017964 148.885027 
L 231.02782 145.495049 
L 233.5316 142.995732 
L 235.575731 141.254982 
L 237.225963 140.126214 
L 238.554941 139.471895 
L 239.626834 139.180399 
L 240.489826 139.165862 
L 241.206296 139.370649 
L 241.815941 139.775543 
L 242.351995 140.405649 
L 242.818039 141.309764 
L 243.20734 142.574185 
L 243.491836 144.289353 
L 243.636669 146.589164 
L 243.593933 149.607073 
L 243.306571 153.539179 
L 242.698745 158.665155 
L 241.662594 165.419733 
L 239.961348 174.933701 
L 234.519116 204.552166 
L 233.664554 210.843826 
L 233.253762 215.438873 
L 233.16206 218.841341 
L 233.305619 221.322691 
L 233.618157 223.100944 
L 234.049868 224.343289 
L 234.563432 225.1751 
L 235.134054 225.693787 
L 235.770539 225.976955 
L 236.496725 226.053807 
L 237.353502 225.914095 
L 238.391318 225.510465 
L 239.667315 224.764039 
L 241.232225 223.579146 
L 243.151742 221.834387 
L 245.484899 219.400847 
L 248.297503 216.133411 
L 251.629191 211.910611 
L 255.486021 206.653327 
L 259.776888 200.421116 
L 264.240342 193.543849 
L 268.449623 186.655532 
L 272.004005 180.42503 
L 274.699265 175.269762 
L 276.556381 171.262014 
L 277.71747 168.257472 
L 278.338968 166.070416 
L 278.564385 164.51414 
L 278.509807 163.437175 
L 278.261834 162.705468 
L 277.869186 162.219516 
L 277.335725 161.914089 
L 276.617555 161.767749 
L 275.638393 161.807057 
L 274.297306 162.09647 
L 272.454527 162.7358 
L 269.911059 163.868928 
L 266.328257 165.72577 
L 260.917089 168.80398 
L 233.827193 184.536825 
L 226.959643 188.114834 
L 220.834536 191.060596 
L 215.28237 193.489574 
L 210.225629 195.464325 
L 205.619251 197.029085 
L 201.455183 198.214239 
L 197.693148 199.059315 
L 194.311894 199.595865 
L 191.306115 199.853301 
L 188.646145 199.863825 
L 186.302833 199.655431 
L 184.263553 199.255042 
L 182.512474 198.690167 
L 181.008348 197.975249 
L 179.740254 197.129523 
L 178.687466 196.163178 
L 177.834364 195.081531 
L 177.16565 193.874379 
L 176.685088 192.547816 
L 176.39242 191.082504 
L 176.3006 189.46663 
L 176.427581 187.701418 
L 176.791064 185.790242 
L 177.414071 183.722489 
L 178.319038 181.504743 
L 179.517733 179.164549 
L 181.024354 176.716888 
L 182.837471 174.197941 
L 184.961439 171.629349 
L 187.398378 169.035111 
L 190.108721 166.476401 
L 193.078895 163.978475 
L 196.2937 161.566305 
L 199.711914 159.279794 
L 203.31124 157.139664 
L 207.068889 155.164778 
L 210.933633 153.384102 
L 214.908528 151.797639 
L 218.941016 150.427028 
L 223.037121 149.270169 
L 227.144203 148.341083 
L 231.24004 147.64062 
L 235.335203 147.164568 
L 239.410527 146.914561 
L 243.447611 146.890418 
L 247.397936 147.087795 
L 251.276602 147.502088 
L 255.098386 148.134121 
L 258.817668 148.97496 
L 262.42086 150.016771 
L 265.923269 151.261357 
L 269.283772 152.690876 
L 272.517571 154.307951 
L 275.611761 156.104724 
L 278.530779 158.055468 
L 281.289029 160.164108 
L 283.875883 162.419613 
L 286.281466 164.809958 
L 288.496705 167.322199 
L 290.513364 169.942554 
L 292.324084 172.656481 
L 293.922415 175.448776 
L 295.302848 178.303669 
L 296.460834 181.204915 
L 297.392808 184.135907 
L 298.0962 187.079778 
L 298.566509 189.995475 
L 298.80989 192.890454 
L 298.826787 195.748135 
L 298.62125 198.529202 
L 298.201104 201.219432 
L 297.568706 203.827253 
L 296.73601 206.317467 
L 295.712922 208.679015 
L 294.509834 210.902082 
L 293.124843 212.995573 
L 291.578838 214.932241 
L 289.867832 216.720703 
L 287.999621 218.351765 
L 285.982576 219.817104 
L 283.825605 221.109311 
L 281.517681 222.230808 
L 279.087082 223.164002 
L 276.52198 223.909907 
L 273.830811 224.459948 
L 271.02292 224.806533 
L 268.08395 224.943408 
L 265.048544 224.861453 
L 261.903426 224.553332 
L 258.660768 224.01116 
L 255.334233 223.228754 
L 251.938955 222.201866 
L 248.465431 220.917893 
L 244.958088 219.384296 
L 241.411073 217.590397 
L 237.846741 215.537635 
L 234.289414 213.231137 
L 230.76523 210.680052 
L 227.301955 207.897836 
L 223.928733 204.902501 
L 220.675786 201.716784 
L 217.574068 198.368248 
L 214.654852 194.889278 
L 211.964826 191.338629 
L 209.529105 187.757268 
L 207.382937 184.209687 
L 205.551674 180.759511 
L 204.041909 177.447091 
L 202.869289 174.347011 
L 202.026741 171.503626 
L 201.49717 168.95026 
L 201.255382 166.722019 
L 201.264209 164.810674 
L 201.487544 163.202398 
L 201.887231 161.888094 
L 202.436962 160.826665 
L 203.110353 159.999322 
L 203.904054 159.372462 
L 204.820025 158.932471 
L 205.876783 158.675442 
L 207.082963 158.614399 
L 208.470049 158.771272 
L 210.053354 159.178768 
L 211.858942 159.879236 
L 213.88667 160.910308 
L 216.141688 162.311734 
L 218.621091 164.119787 
L 221.310793 166.362243 
L 224.168673 169.038539 
L 227.161982 172.149237 
L 230.235246 175.666007 
L 233.315737 179.530947 
L 236.292027 183.621525 
L 239.031786 187.761227 
L 241.337388 191.636954 
L 242.927245 194.715746 
L 243.491792 196.20816 
L 243.463162 196.315596 
L 243.387999 196.277282 
L 243.048015 195.84022 
L 242.162102 194.296794 
L 240.735645 191.345687 
L 239.061635 187.362655 
L 237.423622 182.891325 
L 235.989429 178.337369 
L 234.846193 173.980039 
L 234.028113 170.005694 
L 233.531112 166.520419 
L 233.325722 163.553418 
L 233.371405 161.116875 
L 233.620797 159.165798 
L 234.03059 157.642997 
L 234.560414 156.495751 
L 235.18447 155.658086 
L 235.883429 155.081875 
L 236.666148 154.722251 
L 237.543224 154.564967 
L 238.542678 154.614754 
L 239.704165 154.902567 
L 241.048615 155.473568 
L 242.597555 156.380858 
L 244.37175 157.684852 
L 246.389221 159.451752 
L 248.637068 161.723467 
L 251.102855 164.538867 
L 253.748143 167.904222 
L 256.506159 171.77913 
L 259.296855 176.088098 
L 262.019245 180.702237 
L 264.585012 185.488763 
L 266.891312 190.257972 
L 268.87725 194.867639 
L 270.502781 199.191697 
L 271.757546 203.149299 
L 272.644813 206.665056 
L 273.196003 209.730102 
L 273.449726 212.353242 
L 273.448328 214.571489 
L 273.23261 216.412171 
L 272.836535 217.931738 
L 272.292976 219.158568 
L 271.621091 220.139683 
L 270.828749 220.910932 
L 269.903985 221.501385 
L 268.84086 221.915659 
L 267.605152 222.155433 
L 266.1609 222.202809 
L 264.47679 222.027939 
L 262.517053 221.59347 
L 260.241912 220.854581 
L 257.608429 219.759468 
L 254.551634 218.239666 
L 251.04486 216.240223 
L 247.024919 213.684351 
L 242.456675 210.509323 
L 237.271079 206.62725 
L 231.419533 201.96144 
L 224.86851 196.446772 
L 217.60571 190.036729 
L 209.701557 182.759903 
L 201.526088 174.931345 
L 194.036123 167.460652 
L 188.661712 161.809988 
L 185.76233 158.47403 
L 184.589946 156.831524 
L 184.333706 156.156183 
L 184.441292 155.940277 
L 184.733443 155.907571 
L 185.399071 156.096042 
L 186.808343 156.758451 
L 189.664869 158.379946 
L 196.637097 162.656004 
L 208.237576 169.708292 
L 216.361904 174.382167 
L 223.744775 178.376782 
L 230.613021 181.843409 
L 237.023977 184.834151 
L 243.018811 187.389931 
L 248.6161 189.53907 
L 253.82627 191.305629 
L 258.644684 192.708981 
L 263.077704 193.773143 
L 267.138735 194.523491 
L 270.820906 194.982223 
L 274.147657 195.176422 
L 277.121481 195.13058 
L 279.750107 194.871227 
L 282.045649 194.42594 
L 284.038933 193.8169 
L 285.742856 193.067564 
L 287.172524 192.200999 
L 288.354287 191.230349 
L 289.308417 190.163791 
L 290.048912 189.005311 
L 290.583343 187.755501 
L 290.910702 186.424819 
L 291.031192 184.998359 
L 290.934263 183.484966 
L 290.606585 181.881487 
L 290.033879 180.199853 
L 289.203255 178.454782 
L 288.10354 176.663885 
L 286.725616 174.847717 
L 285.076306 173.043333 
L 283.157106 171.27536 
L 280.989125 169.582256 
L 278.583955 167.988768 
L 275.975338 166.529847 
L 273.204251 165.235158 
L 270.272394 164.112022 
L 267.224354 163.183593 
L 264.084442 162.460187 
L 260.876531 161.94953 
L 257.623877 161.656781 
L 254.348964 161.584583 
L 251.047721 161.735174 
L 247.766382 162.107866 
L 244.499368 162.703799 
L 241.291341 163.514349 
L 238.135351 164.539797 
L 235.049463 165.774504 
L 232.027815 167.222817 
L 229.111928 168.865826 
L 226.296456 170.70645 
L 223.599696 172.734545 
L 221.039449 174.937411 
L 218.632834 177.299779 
L 216.380039 179.823086 
L 214.315472 182.469175 
L 212.453363 185.214836 
L 210.795336 188.055294 
L 209.367225 190.942425 
L 208.178507 193.846134 
L 207.242427 196.714437 
L 206.55887 199.516126 
L 206.125552 202.220425 
L 205.93855 204.779452 
L 205.985235 207.151263 
L 206.245181 209.301888 
L 206.695542 211.220771 
L 207.313638 212.901579 
L 208.070567 214.33118 
L 208.949381 215.524753 
L 209.929938 216.486626 
L 211.002912 217.229296 
L 212.152886 217.756688 
L 213.387504 218.078466 
L 214.708253 218.191293 
L 216.118443 218.085818 
L 217.622353 217.746489 
L 219.211234 217.157283 
L 220.901054 216.288533 
L 222.666517 215.126339 
L 224.505824 213.644434 
L 226.400668 211.826562 
L 228.329327 209.66189 
L 230.254255 207.163662 
L 232.16109 204.321421 
L 234.019563 201.147473 
L 235.787069 197.685763 
L 237.43303 193.972338 
L 238.927191 190.053075 
L 240.24054 185.983733 
L 241.3409 181.852476 
L 242.209106 177.73168 
L 242.825379 173.741354 
L 243.189059 169.954506 
L 243.305213 166.459614 
L 243.190745 163.348754 
L 242.876174 160.688439 
L 242.405365 158.526586 
L 241.823302 156.852239 
L 241.177902 155.641005 
L 240.510118 154.838774 
L 239.849653 154.377848 
L 239.202929 154.189892 
L 238.558355 154.233552 
L 237.895201 154.507085 
L 237.204372 155.040917 
L 236.487163 155.885667 
L 235.763088 157.092869 
L 235.069331 158.692775 
L 234.449066 160.696812 
L 233.956621 163.05228 
L 233.632552 165.698816 
L 233.50866 168.55538 
L 233.60333 171.510337 
L 233.920031 174.479858 
L 234.451752 177.38452 
L 235.186531 180.170001 
L 236.102166 182.775415 
L 237.176161 185.167591 
L 238.384302 187.323374 
L 239.711021 189.241031 
L 241.133905 190.910389 
L 242.630567 192.327766 
L 244.190862 193.502939 
L 245.807734 194.444056 
L 247.463773 195.152087 
L 249.154731 195.634157 
L 250.87753 195.89367 
L 252.616054 195.930648 
L 254.366651 195.745664 
L 256.12433 195.33556 
L 257.868959 194.69938 
L 259.590505 193.832898 
L 261.251729 192.746905 
L 262.837143 191.443048 
L 264.306821 189.944478 
L 265.623453 188.283805 
L 266.754332 186.501259 
L 267.673203 184.642303 
L 268.361809 182.754906 
L 268.813376 180.873546 
L 269.022915 179.056313 
L 268.99996 177.330325 
L 268.759663 175.729516 
L 268.317486 174.257345 
L 267.684058 172.915085 
L 266.87252 171.713036 
L 265.888059 170.649686 
L 264.719981 169.717698 
L 263.370834 168.929446 
L 261.830773 168.291254 
L 260.10058 167.816966 
L 258.149509 167.515891 
L 255.973438 167.408981 
L 253.570848 167.516264 
L 250.922696 167.859728 
L 248.008752 168.46652 
L 244.854619 169.354139 
L 241.448301 170.546947 
L 237.805166 172.060753 
L 233.923502 173.917376 
L 229.834185 176.122707 
L 225.579018 178.67177 
L 221.187015 181.563541 
L 216.72647 184.76789 
L 212.280774 188.235865 
L 207.969531 191.879312 
L 203.899601 195.607937 
L 200.254041 199.243875 
L 197.163964 202.630844 
L 194.739945 205.605227 
L 193.02498 208.04401 
L 191.968497 209.908432 
L 191.449629 211.241276 
L 191.320329 212.134767 
L 191.445972 212.706867 
L 191.743251 213.058636 
L 192.209482 213.256637 
L 192.913724 213.299186 
L 193.963702 213.123382 
L 195.475693 212.629863 
L 197.591582 211.691547 
L 200.459644 210.164006 
L 204.275046 207.866804 
L 209.248281 204.599896 
L 215.711054 200.075856 
L 224.414722 193.694819 
L 238.484608 183.064942 
L 255.768196 170.066244 
L 264.129582 164.054778 
L 270.198653 159.952102 
L 274.710368 157.156768 
L 278.029222 155.347048 
L 280.396036 154.293101 
L 282.008499 153.799594 
L 283.048422 153.693119 
L 283.682561 153.83326 
L 284.038969 154.125572 
L 284.211684 154.557229 
L 284.207164 155.184917 
L 283.962559 156.091067 
L 283.369577 157.377681 
L 282.306109 159.124326 
L 280.656619 161.386338 
L 278.348697 164.159462 
L 275.390993 167.356432 
L 271.865567 170.835027 
L 267.899122 174.434915 
L 263.637886 178.002454 
L 259.223771 181.409788 
L 254.775832 184.565215 
L 250.378896 187.41467 
L 246.104152 189.922238 
L 242.033765 192.056365 
L 238.186811 193.827605 
L 234.572319 195.251221 
L 231.2147 196.337793 
L 228.150625 197.10085 
L 225.345406 197.574473 
L 222.822746 197.77975 
L 220.562108 197.745475 
L 218.559523 197.49792 
L 216.793871 197.059955 
L 215.259388 196.454663 
L 213.937576 195.698327 
L 212.814381 194.802285 
L 211.880546 193.773785 
L 211.131838 192.616945 
L 210.573042 191.344948 
L 210.203032 189.949401 
L 210.032926 188.431893 
L 210.077469 186.809052 
L 210.348954 185.102582 
L 210.856635 183.33945 
L 211.60008 181.564346 
L 212.576284 179.813048 
L 213.760527 178.146746 
L 215.124363 176.611 
L 216.632859 175.245572 
L 218.246636 174.081945 
L 219.936408 173.135439 
L 221.661713 172.42083 
L 223.409048 171.936017 
L 225.155226 171.682071 
L 226.879277 171.656097 
L 228.562528 171.851631 
L 230.213926 172.267177 
L 231.816913 172.900297 
L 233.367571 173.752897 
L 234.860462 174.830151 
L 236.277519 176.129302 
L 237.610274 177.655201 
L 238.84693 179.413185 
L 239.964644 181.393034 
L 240.941149 183.577077 
L 241.760194 185.955233 
L 242.399066 188.494101 
L 242.837985 191.149328 
L 243.061362 193.865224 
L 243.060421 196.544428 
L 242.839269 199.115876 
L 242.417558 201.466031 
L 241.833082 203.500382 
L 241.131692 205.163276 
L 240.373181 206.413816 
L 239.608198 207.267672 
L 238.869378 207.773667 
L 238.179902 207.987051 
L 237.527594 207.959776 
L 236.902144 207.71042 
L 236.284122 207.219341 
L 235.675764 206.443323 
L 235.092004 205.325909 
L 234.564471 203.8196 
L 234.133431 201.896451 
L 233.840811 199.546666 
L 233.727736 196.798773 
L 233.826282 193.709943 
L 234.158373 190.342117 
L 234.73617 186.77245 
L 235.55527 183.110551 
L 236.601086 179.450086 
L 237.856532 175.860822 
L 239.29076 172.428037 
L 240.875459 169.207009 
L 242.569147 166.262081 
L 244.338438 163.625386 
L 246.150842 161.318623 
L 247.962821 159.366355 
L 249.745427 157.765574 
L 251.473508 156.505268 
L 253.125929 155.567944 
L 254.698048 154.927039 
L 256.163538 154.564634 
L 257.524276 154.452013 
L 258.783212 154.566805 
L 259.943176 154.893062 
L 261.005825 155.421103 
L 261.978954 156.15466 
L 262.848612 157.091375 
L 263.606908 158.237589 
L 264.240988 159.603656 
L 264.728713 161.188947 
L 265.047209 162.9889 
L 265.173211 164.99461 
L 265.085026 167.174941 
L 264.765344 169.508832 
L 264.203504 171.952474 
L 263.398236 174.456975 
L 262.349183 176.990443 
L 261.069261 179.501672 
L 259.555969 181.979005 
L 257.830579 184.374008 
L 255.923228 186.642637 
L 253.837167 188.780428 
L 251.589642 190.766893 
L 249.199133 192.584492 
L 246.685116 194.218705 
L 244.045916 195.669075 
L 241.322645 196.912886 
L 238.513539 197.952139 
L 235.638899 198.778871 
L 232.719956 199.38779 
L 229.754553 199.778603 
L 226.789577 199.945608 
L 223.824785 199.890495 
L 220.885336 199.613859 
L 217.997555 199.119433 
L 215.188721 198.414188 
L 212.486816 197.508391 
L 209.920262 196.415612 
L 207.517615 195.152676 
L 205.323261 193.750811 
L 203.359433 192.235296 
L 201.65869 190.645468 
L 200.24308 189.023119 
L 199.115144 187.396868 
L 198.285658 185.819045 
L 197.737699 184.311961 
L 197.450294 182.880893 
L 197.407635 181.552453 
L 197.586762 180.336097 
L 197.973296 179.216775 
L 198.561338 178.192413 
L 199.351868 177.262685 
L 200.352546 176.429969 
L 201.589988 175.693943 
L 203.075746 175.07381 
L 204.835712 174.58537 
L 206.882535 174.252231 
L 209.245646 174.097253 
L 211.935546 174.147735 
L 214.980746 174.432321 
L 218.384082 174.979054 
L 222.13944 175.811471 
L 226.25762 176.954834 
L 230.768705 178.442042 
L 235.662018 180.294075 
L 240.933158 182.531251 
L 246.573424 185.169585 
L 252.628534 188.2503 
L 259.176989 191.835341 
L 266.569155 196.143659 
L 277.443127 202.514666 
L 278.207788 202.728575 
L 278.321657 202.597073 
L 278.206814 202.282883 
L 277.636337 201.493095 
L 276.043799 199.723883 
L 272.564097 196.228165 
L 266.538951 190.508742 
L 259.024649 183.680154 
L 251.705699 177.321198 
L 245.177358 171.935761 
L 239.541399 167.565872 
L 234.713648 164.095167 
L 230.61878 161.416387 
L 227.184437 159.425359 
L 224.320311 158.011464 
L 221.950217 157.07968 
L 220.012936 156.547504 
L 218.44727 156.338077 
L 217.185327 156.384881 
L 216.179642 156.635973 
L 215.374249 157.059234 
L 214.730788 157.645006 
L 214.223482 158.412135 
L 213.854963 159.384433 
L 213.63814 160.608317 
L 213.603421 162.119766 
L 213.79133 163.985945 
L 214.248893 166.234582 
L 215.024393 168.897485 
L 216.157176 171.972664 
L 217.673475 175.431323 
L 219.559849 179.171764 
L 221.77066 183.05722 
L 224.206065 186.888753 
L 226.754073 190.486659 
L 229.269671 193.662479 
L 231.654832 196.325071 
L 233.819412 198.418039 
L 235.701044 199.94087 
L 237.296275 200.959013 
L 238.608477 201.546439 
L 239.670541 201.791115 
L 240.523647 201.769384 
L 241.209319 201.535663 
L 241.767602 201.111472 
L 242.223146 200.479128 
L 242.57209 199.600866 
L 242.793591 198.419319 
L 242.849145 196.873133 
L 242.689947 194.913198 
L 242.265191 192.50962 
L 241.535276 189.684522 
L 240.481227 186.509339 
L 239.141433 183.180845 
L 237.614728 179.974527 
L 236.099289 177.288075 
L 234.883634 175.545863 
L 234.205588 174.897949 
L 233.995495 174.917085 
L 233.971787 175.177916 
L 234.169164 175.89632 
L 234.820463 177.350081 
L 236.065418 179.559974 
L 237.851489 182.268473 
L 240.02232 185.154579 
L 242.407766 187.958499 
L 244.872267 190.516385 
L 247.299807 192.721371 
L 249.611357 194.527363 
L 251.740493 195.917085 
L 253.655618 196.910752 
L 255.34302 197.543875 
L 256.79206 197.857908 
L 258.014048 197.902728 
L 259.026116 197.725253 
L 259.861826 197.358769 
L 260.545823 196.816986 
L 261.08687 196.102468 
L 261.488118 195.197724 
L 261.735052 194.079218 
L 261.800568 192.726348 
L 261.649768 191.117052 
L 261.247423 189.259547 
L 260.560006 187.159089 
L 259.571792 184.863791 
L 258.266318 182.402179 
L 256.656089 179.846457 
L 254.760523 177.258795 
L 252.611396 174.703462 
L 250.251399 172.24274 
L 247.712906 169.916598 
L 245.049865 167.775461 
L 242.27817 165.831284 
L 239.453414 164.120355 
L 236.61012 162.656093 
L 233.78035 161.44586 
L 230.970269 160.484576 
L 228.229295 159.780006 
L 225.558238 159.321935 
L 223.000817 159.106257 
L 220.552715 159.11992 
L 218.23019 159.352142 
L 216.027374 159.794941 
L 213.977638 160.432206 
L 212.073093 161.256144 
L 210.324939 162.254284 
L 208.742758 163.412824 
L 207.334497 164.716867 
L 206.095299 166.165384 
L 205.035183 167.745613 
L 204.163028 169.443536 
L 203.486495 171.244014 
L 203.008358 173.149627 
L 202.741332 175.125952 
L 202.689693 177.174606 
L 202.859346 179.257786 
L 203.255819 181.376066 
L 203.877675 183.489659 
L 204.731388 185.598112 
L 205.807846 187.661209 
L 207.101048 189.659278 
L 208.603341 191.573404 
L 210.32229 193.402041 
L 212.233725 195.109615 
L 214.325031 196.680257 
L 216.603797 198.11206 
L 219.035684 199.37689 
L 221.627792 200.472867 
L 224.339835 201.378406 
L 227.178117 202.092061 
L 230.124036 202.603563 
L 233.157128 202.904876 
L 236.255174 202.990444 
L 239.421626 202.855297 
L 242.603486 202.497856 
L 245.800149 201.915632 
L 248.9813 201.110056 
L 252.114416 200.086613 
L 255.165079 198.855127 
L 258.074991 197.441801 
L 260.832845 195.855973 
L 263.382974 194.134407 
L 265.678071 192.320709 
L 267.696071 190.447795 
L 269.40586 188.563888 
L 270.789412 186.716478 
L 271.842439 184.949355 
L 272.57423 183.300075 
L 273.009331 181.785311 
L 273.174039 180.427966 
L 273.10096 179.220142 
L 272.818238 178.163196 
L 272.34247 177.237474 
L 271.682547 176.437259 
L 270.821742 175.747352 
L 269.745312 175.176653 
L 268.433506 174.739063 
L 266.862421 174.453817 
L 264.988769 174.345468 
L 262.797729 174.447191 
L 260.262762 174.792714 
L 257.361964 175.417558 
L 254.082445 176.355628 
L 250.380951 177.651106 
L 246.256064 179.335183 
L 241.630297 181.469716 
L 236.392468 184.138048 
L 229.950209 187.683334 
L 220.526835 192.882419 
L 218.56395 193.703392 
L 217.543411 193.916281 
L 217.025794 193.823047 
L 216.781926 193.56669 
L 216.705992 193.142999 
L 216.829336 192.434584 
L 217.281945 191.262942 
L 218.267819 189.384207 
L 220.052481 186.498578 
L 222.889523 182.356911 
L 226.697974 177.196827 
L 230.704362 172.132722 
L 234.11356 168.163865 
L 236.717908 165.452462 
L 238.617187 163.774921 
L 239.955191 162.86761 
L 240.876286 162.489383 
L 241.50193 162.452504 
L 241.938996 162.638153 
L 242.260536 163.020103 
L 242.491226 163.662449 
L 242.603258 164.680174 
L 242.536172 166.23879 
L 242.198037 168.570072 
L 241.460727 171.998437 
L 240.098115 177.190072 
L 234.755421 196.794973 
L 234.298015 199.62353 
L 234.220746 201.381275 
L 234.378937 202.42595 
L 234.669659 202.992979 
L 235.04344 203.262721 
L 235.514435 203.323516 
L 236.143649 203.166813 
L 237.020081 202.703513 
L 238.248405 201.784947 
L 239.948424 200.217262 
L 242.254907 197.76942 
L 245.293877 194.202717 
L 249.037024 189.455225 
L 252.94406 184.145422 
L 255.997481 179.644816 
L 257.792299 176.638231 
L 258.622376 174.857836 
L 258.860987 173.880542 
L 258.780426 173.382915 
L 258.530761 173.149156 
L 258.107194 173.076012 
L 257.377435 173.198208 
L 256.125165 173.655811 
L 253.943248 174.716144 
L 249.563618 177.1356 
L 240.128772 182.34946 
L 234.900815 184.967094 
L 230.398554 186.979296 
L 226.415901 188.522109 
L 222.9012 189.651888 
L 219.810726 190.417709 
L 217.141191 190.856905 
L 214.856586 191.013834 
L 212.946368 190.929573 
L 211.375888 190.646115 
L 210.10947 190.20014 
L 209.113188 189.621981 
L 208.350213 188.927966 
L 207.800802 188.132098 
L 207.445537 187.224001 
L 207.288251 186.202576 
L 207.341193 185.052977 
L 207.62882 183.768568 
L 208.177392 182.356917 
L 209.020017 180.817237 
L 210.175178 179.180907 
L 211.648362 177.486981 
L 213.43123 175.780082 
L 215.501645 174.107654 
L 217.843962 172.504583 
L 220.396018 171.028621 
L 223.124735 169.707324 
L 225.995947 168.564672 
L 228.950253 167.627606 
L 231.976179 166.901748 
L 235.014407 166.401809 
L 238.031759 166.129376 
L 241.0235 166.08233 
L 243.935711 166.257469 
L 246.768107 166.64928 
L 249.496503 167.25048 
L 252.098824 168.050928 
L 254.555251 169.03793 
L 256.848316 170.196574 
L 258.98176 171.522955 
L 260.920832 172.988507 
L 262.670308 174.588628 
L 264.203053 176.289058 
L 265.52458 178.085042 
L 266.615996 179.938497 
L 267.48321 181.84501 
L 268.120782 183.78302 
L 268.522595 185.712122 
L 268.693892 187.610706 
L 268.640244 189.476152 
L 268.367923 191.270697 
L 267.881786 192.992946 
L 267.19561 194.608826 
L 266.313215 196.118223 
L 265.24368 197.505112 
L 263.997546 198.754842 
L 262.58672 199.854311 
L 261.00834 200.800493 
L 259.272842 201.578631 
L 257.392574 202.175486 
L 255.38175 202.579631 
L 253.236137 202.782644 
L 250.971592 202.771645 
L 248.606735 202.536394 
L 246.162888 202.0698 
L 243.642436 201.36142 
L 241.072395 200.406388 
L 238.483356 199.205098 
L 235.909187 197.763932 
L 233.386596 196.095905 
L 230.954542 194.22117 
L 228.653496 192.167345 
L 226.524544 189.969608 
L 224.620958 187.68689 
L 222.986022 185.384349 
L 221.642169 183.113095 
L 220.618937 180.954275 
L 219.922332 178.97872 
L 219.533738 177.228041 
L 219.422369 175.739696 
L 219.544668 174.510649 
L 219.858224 173.529361 
L 220.327911 172.771964 
L 220.933103 172.21228 
L 221.672419 171.831243 
L 222.566718 171.625968 
L 223.63222 171.616848 
L 224.887743 171.835341 
L 226.351073 172.322595 
L 228.022344 173.119814 
L 229.887909 174.261386 
L 231.926722 175.775882 
L 234.068714 177.648678 
L 236.236034 179.841858 
L 238.304289 182.250544 
L 240.116424 184.696339 
L 241.476343 186.889697 
L 242.208808 188.455086 
L 242.347163 189.184904 
L 242.20881 189.334737 
L 241.945903 189.23731 
L 241.403143 188.760707 
L 240.469416 187.61835 
L 239.198091 185.696094 
L 237.797749 183.171163 
L 236.500999 180.377527 
L 235.483994 177.669586 
L 234.823679 175.302664 
L 234.510245 173.389886 
L 234.488421 171.958039 
L 234.681058 170.957313 
L 235.021395 170.298423 
L 235.469069 169.90136 
L 236.020097 169.711091 
L 236.707397 169.716912 
L 237.580379 169.957477 
L 238.683992 170.503274 
L 240.058989 171.442713 
L 241.719756 172.857452 
L 243.648275 174.801065 
L 245.795258 177.288682 
L 248.041776 180.237545 
L 250.230691 183.478224 
L 252.203435 186.791904 
L 253.821873 189.934302 
L 255.025987 192.743623 
L 255.802978 195.098293 
L 256.204098 196.992172 
L 256.296713 198.454013 
L 256.153288 199.543156 
L 255.836174 200.330176 
L 255.37624 200.891195 
L 254.778518 201.267797 
L 254.01547 201.47759 
L 253.040017 201.504762 
L 251.792834 201.306358 
L 250.210345 200.81994 
L 248.204516 199.959993 
L 245.71009 198.638846 
L 242.618043 196.738814 
L 238.850333 194.152729 
L 234.275664 190.732583 
L 228.806894 186.356702 
L 222.446755 180.976339 
L 215.994746 175.2334 
L 212.240171 171.63649 
L 211.310954 170.503334 
L 211.324042 170.331243 
L 211.35278 170.322944 
L 211.660633 170.384732 
L 212.677972 170.86536 
L 215.910846 172.703284 
L 224.352553 177.491842 
L 229.935162 180.390083 
L 234.983947 182.766034 
L 239.616615 184.704445 
L 243.823511 186.227739 
L 247.611838 187.367341 
L 250.976814 188.152367 
L 253.915044 188.616099 
L 256.457683 188.798109 
L 258.591135 188.735603 
L 260.363257 188.467891 
L 261.780947 188.036392 
L 262.884566 187.476192 
L 263.710429 186.81518 
L 264.289375 186.074604 
L 264.651149 185.252749 
L 264.801273 184.356475 
L 264.737078 183.381085 
L 264.440813 182.320003 
L 263.885711 181.178456 
L 263.047573 179.97746 
L 261.917069 178.755078 
L 260.499006 177.5544 
L 258.812349 176.420614 
L 256.889219 175.397635 
L 254.772957 174.524657 
L 252.515387 173.832996 
L 250.154131 173.340441 
L 247.726371 173.059695 
L 245.268268 172.998317 
L 242.814432 173.158777 
L 240.397465 173.538643 
L 238.047564 174.13086 
L 235.773488 174.931689 
L 233.602635 175.9308 
L 231.560418 177.113697 
L 229.65474 178.473941 
L 227.924307 179.979785 
L 226.375139 181.619358 
L 225.0274 183.365947 
L 223.898402 185.188998 
L 223.002192 187.054572 
L 222.353394 188.91109 
L 221.952427 190.721275 
L 221.796007 192.434841 
L 221.871113 194.019526 
L 222.155216 195.424352 
L 222.620346 196.633567 
L 223.238441 197.63765 
L 223.989403 198.439155 
L 224.850077 199.034019 
L 225.807204 199.42504 
L 226.85137 199.611194 
L 227.98626 199.585813 
L 229.207327 199.332713 
L 230.508646 198.831026 
L 231.869951 198.063398 
L 233.27779 197.008877 
L 234.691801 195.668754 
L 236.089373 194.035132 
L 237.4326 192.119138 
L 238.672623 189.960939 
L 239.771183 187.602421 
L 240.691702 185.098655 
L 241.393729 182.5503 
L 241.859857 180.032647 
L 242.08014 177.638883 
L 242.060541 175.469442 
L 241.826746 173.604311 
L 241.423426 172.103985 
L 240.900345 170.973657 
L 240.306731 170.195098 
L 239.682378 169.728275 
L 239.053801 169.526451 
L 238.417257 169.55263 
L 237.764077 169.805186 
L 237.093867 170.310754 
L 236.430568 171.098516 
L 235.812277 172.185686 
L 235.288505 173.564497 
L 234.914884 175.181032 
L 234.734026 176.952079 
L 234.769095 178.789424 
L 235.024387 180.601937 
L 235.488337 182.317722 
L 236.136732 183.87807 
L 236.948352 185.260031 
L 237.896206 186.440049 
L 238.960243 187.411897 
L 240.113675 188.167154 
L 241.34969 188.712074 
L 242.654934 189.044121 
L 244.015953 189.159524 
L 245.41762 189.053203 
L 246.830537 188.722716 
L 248.242098 188.162603 
L 249.601849 187.382622 
L 250.865876 186.400167 
L 251.972382 185.259632 
L 252.869874 184.020407 
L 253.526978 182.740115 
L 253.921362 181.49465 
L 254.060681 180.333975 
L 253.967172 179.296021 
L 253.664975 178.382444 
L 253.172425 177.59886 
L 252.496195 176.94265 
L 251.631285 176.415387 
L 250.551018 176.022837 
L 249.235977 175.78882 
L 247.664484 175.742543 
L 245.829732 175.916213 
L 243.699342 176.347163 
L 241.276852 177.070232 
L 238.580431 178.111365 
L 235.607347 179.502611 
L 232.413435 181.247285 
L 229.083598 183.32121 
L 225.699125 185.692131 
L 222.436095 188.248902 
L 219.537912 190.79594 
L 217.240708 193.097881 
L 215.72579 194.908091 
L 214.966745 196.128895 
L 214.766643 196.820389 
L 214.869814 197.157116 
L 215.148052 197.306801 
L 215.667519 197.305248 
L 216.598307 197.056201 
L 218.151039 196.389048 
L 220.576981 195.084779 
L 224.180592 192.877195 
L 229.515758 189.329029 
L 238.854754 182.809184 
L 249.718579 175.293194 
L 254.677651 172.123822 
L 257.819461 170.359769 
L 259.724367 169.522038 
L 260.758356 169.28237 
L 261.230957 169.368815 
L 261.399182 169.603316 
L 261.381492 169.989024 
L 261.103277 170.649771 
L 260.389265 171.71905 
L 259.051571 173.293919 
L 256.998294 175.352744 
L 254.291021 177.744508 
L 251.150603 180.22095 
L 247.788417 182.589803 
L 244.429151 184.68857 
L 241.18349 186.458252 
L 238.166583 187.855243 
L 235.425271 188.885474 
L 232.999048 189.566777 
L 230.890621 189.934925 
L 229.10404 190.028524 
L 227.619064 189.890034 
L 226.421744 189.561167 
L 225.483812 189.078908 
L 224.773876 188.467636 
L 224.274991 187.74878 
L 223.968839 186.916383 
L 223.862962 185.979792 
L 223.972195 184.933329 
L 224.31763 183.802094 
L 224.913807 182.621756 
L 225.752872 181.455295 
L 226.81373 180.361619 
L 228.043051 179.411701 
L 229.39049 178.649891 
L 230.791571 178.110719 
L 232.203002 177.803576 
L 233.586966 177.72838 
L 234.911541 177.876798 
L 236.170245 178.241088 
L 237.338804 178.810213 
L 238.412944 179.581281 
L 239.377048 180.549112 
L 240.213487 181.706768 
L 240.90213 183.043334 
L 241.417413 184.529981 
L 241.739578 186.137396 
L 241.848997 187.812733 
L 241.735754 189.478559 
L 241.411286 191.029859 
L 240.90795 192.380131 
L 240.277461 193.454937 
L 239.58695 194.21024 
L 238.894068 194.654649 
L 238.224837 194.82847 
L 237.594164 194.765352 
L 236.995408 194.478977 
L 236.429333 193.954808 
L 235.909163 193.160023 
L 235.466089 192.064151 
L 235.14165 190.650724 
L 234.982104 188.943273 
L 235.024354 186.980465 
L 235.295762 184.822166 
L 235.802472 182.575799 
L 236.540274 180.314727 
L 237.481933 178.141816 
L 238.590122 176.13643 
L 239.827314 174.351144 
L 241.143785 172.835978 
L 242.487503 171.620511 
L 243.82912 170.70095 
L 245.123692 170.078004 
L 246.34218 169.732859 
L 247.471413 169.639946 
L 248.493022 169.774698 
L 249.409533 170.117296 
L 250.213368 170.654151 
L 250.900948 171.383205 
L 251.451711 172.293881 
L 251.851535 173.392023 
L 252.071204 174.654267 
L 252.088467 176.059313 
L 251.883173 177.580572 
L 251.442726 179.173134 
L 250.759634 180.800807 
L 249.83946 182.412481 
L 248.700118 183.958482 
L 247.346937 185.41763 
L 245.809755 186.747546 
L 244.098128 187.932917 
L 242.251709 188.942213 
L 240.266184 189.77322 
L 238.186264 190.402361 
L 236.026117 190.823139 
L 233.819516 191.026536 
L 231.585429 191.008213 
L 229.382194 190.768563 
L 227.23556 190.312699 
L 225.192439 189.652358 
L 223.315505 188.813997 
L 221.660927 187.835572 
L 220.274325 186.763185 
L 219.194904 185.655874 
L 218.431341 184.563422 
L 217.977999 183.538161 
L 217.803802 182.613258 
L 217.869988 181.78727 
L 218.149211 181.062856 
L 218.632769 180.428269 
L 219.334851 179.879192 
L 220.29165 179.422636 
L 221.524101 179.087746 
L 223.076171 178.902426 
L 224.984016 178.905571 
L 227.261871 179.137998 
L 229.927186 179.638964 
L 232.981326 180.443461 
L 236.442627 181.589803 
L 240.292962 183.103375 
L 244.549319 185.02033 
L 249.225613 187.375442 
L 254.689726 190.388121 
L 258.364519 192.34988 
L 258.462129 192.322086 
L 258.443832 192.251172 
L 258.118811 191.852427 
L 256.633824 190.457838 
L 252.340191 186.771365 
L 246.107281 181.700026 
L 240.780921 177.638195 
L 236.612692 174.726405 
L 233.404016 172.743382 
L 230.98029 171.49353 
L 229.196281 170.80892 
L 227.913383 170.540105 
L 227.022486 170.565736 
L 226.417161 170.792596 
L 226.01377 171.173905 
L 225.764495 171.718905 
L 225.671179 172.478095 
L 225.778967 173.531425 
L 226.159101 174.941893 
L 226.890118 176.762633 
L 228.038664 179.003922 
L 229.605288 181.56265 
L 231.502046 184.234181 
L 233.553797 186.746536 
L 235.545151 188.845047 
L 237.295983 190.382417 
L 238.707231 191.343751 
L 239.761242 191.812617 
L 240.50289 191.918014 
L 241.00316 191.778647 
L 241.337 191.4581 
L 241.54223 190.942131 
L 241.60082 190.15657 
L 241.449225 189.027993 
L 241.008708 187.502303 
L 240.225746 185.618144 
L 239.119098 183.538792 
L 237.821133 181.564909 
L 236.59946 180.088577 
L 235.741905 179.359779 
L 235.341426 179.253329 
L 235.224758 179.412026 
L 235.264043 179.806943 
L 235.594322 180.622603 
L 236.38078 181.934721 
L 237.637064 183.588284 
L 239.239128 185.328129 
L 240.998355 186.915225 
L 242.768115 188.219241 
L 244.427148 189.173814 
L 245.898579 189.773769 
L 247.148394 190.05284 
L 248.160638 190.061427 
L 248.959537 189.853722 
L 249.565239 189.471988 
L 250.003946 188.935714 
L 250.287479 188.234713 
L 250.399764 187.350895 
L 250.307038 186.265865 
L 249.968282 184.982156 
L 249.34992 183.525856 
L 248.431314 181.93924 
L 247.217641 180.290787 
L 245.727415 178.646024 
L 244.022486 177.094968 
L 242.130708 175.675227 
L 240.125999 174.448339 
L 238.058093 173.441878 
L 235.974525 172.673225 
L 233.919332 172.150152 
L 231.932062 171.871745 
L 230.047076 171.82956 
L 228.293126 172.00893 
L 226.679212 172.394695 
L 225.226481 172.968928 
L 223.951616 173.710531 
L 222.866874 174.596151 
L 221.972527 175.611421 
L 221.278171 176.734134 
L 220.786318 177.953196 
L 220.507893 179.23372 
L 220.443737 180.577579 
L 220.600958 181.948217 
L 220.984543 183.334135 
L 221.597944 184.709624 
L 222.441105 186.048123 
L 223.510205 187.322798 
L 224.79747 188.507186 
L 226.291039 189.575871 
L 227.97491 190.505189 
L 229.828972 191.273938 
L 231.847471 191.868469 
L 233.985671 192.266562 
L 236.230871 192.459041 
L 238.548068 192.435577 
L 240.91709 192.188762 
L 243.273654 191.720271 
L 245.587569 191.033773 
L 247.787948 190.150508 
L 249.822313 189.096901 
L 251.625903 187.916565 
L 253.145307 186.661825 
L 254.334425 185.398726 
L 255.175213 184.19095 
L 255.678536 183.092156 
L 255.88229 182.132365 
L 255.835386 181.319931 
L 255.576266 180.634884 
L 255.124497 180.068078 
L 254.463058 179.603124 
L 253.568185 179.253911 
L 252.395645 179.043069 
L 250.901104 179.00946 
L 249.054942 179.199358 
L 246.84252 179.657128 
L 244.225325 180.432838 
L 241.199771 181.568107 
L 237.724065 183.115827 
L 233.567198 185.220875 
L 227.819934 188.14663 
L 227.332755 188.173274 
L 227.251238 187.997119 
L 227.372498 187.603671 
L 227.921614 186.702033 
L 229.389347 184.777796 
L 232.400161 181.227316 
L 236.014539 177.288708 
L 238.484474 174.893188 
L 239.926227 173.771919 
L 240.702551 173.413951 
L 241.092346 173.444843 
L 241.288548 173.674758 
L 241.366179 174.146764 
L 241.262183 175.051855 
L 240.826925 176.683837 
L 239.798118 179.582355 
L 235.592957 190.905331 
L 235.456391 192.030552 
L 235.590839 192.492724 
L 235.839816 192.629957 
L 236.231034 192.565607 
L 236.901595 192.200397 
L 238.040133 191.29939 
L 239.912623 189.506887 
L 242.833749 186.379385 
L 246.431981 182.205522 
L 248.41192 179.621424 
L 248.89751 178.688558 
L 248.838652 178.436257 
L 248.593171 178.40786 
L 247.963115 178.60532 
L 246.351382 179.390038 
L 237.964003 183.666504 
L 234.635004 185.046596 
L 231.788147 185.994103 
L 229.383666 186.567997 
L 227.408828 186.81901 
L 225.843589 186.802514 
L 224.656926 186.577065 
L 223.803831 186.199156 
L 223.225342 185.707613 
L 222.881304 185.12988 
L 222.741538 184.461144 
L 222.811123 183.686869 
L 223.122212 182.792866 
L 223.712211 181.792296 
L 224.622761 180.699582 
L 225.853685 179.576633 
L 227.393842 178.47645 
L 229.198225 177.462996 
L 231.214612 176.587661 
L 233.361536 175.897881 
L 235.583735 175.415829 
L 237.827889 175.154729 
L 240.043973 175.119125 
L 242.186371 175.30549 
L 244.21471 175.703092 
L 246.094448 176.29506 
L 247.811417 177.067022 
L 249.326056 177.988632 
L 250.632668 179.041113 
L 251.706268 180.186164 
L 252.548675 181.404069 
L 253.154006 182.665442 
L 253.521048 183.940895 
L 253.652817 185.190018 
L 253.559009 186.409687 
L 253.248113 187.562904 
L 252.728186 188.637109 
L 252.010492 189.609669 
L 251.09994 190.467735 
L 250.009257 191.189376 
L 248.742533 191.759497 
L 247.316489 192.156443 
L 245.738329 192.36273 
L 244.032606 192.358651 
L 242.230189 192.129856 
L 240.367994 191.668862 
L 238.473606 190.97011 
L 236.596269 190.039436 
L 234.803528 188.90384 
L 233.137776 187.587029 
L 231.667081 186.142957 
L 230.457212 184.64926 
L 229.544821 183.178727 
L 228.953861 181.820138 
L 228.670311 180.635528 
L 228.655464 179.663858 
L 228.857504 178.907167 
L 229.229839 178.350661 
L 229.750529 177.96832 
L 230.431939 177.749561 
L 231.28683 177.714853 
L 232.346525 177.902664 
L 233.604612 178.358875 
L 235.039011 179.121082 
L 236.592917 180.202856 
L 238.154679 181.562239 
L 239.558176 183.073425 
L 240.594773 184.500088 
L 241.087861 185.517137 
L 241.104798 185.965708 
L 240.928546 186.050326 
L 240.579627 185.923099 
L 239.920177 185.416853 
L 238.923217 184.352579 
L 237.757767 182.776524 
L 236.711575 180.995524 
L 236.006221 179.377205 
L 235.704741 178.171488 
L 235.721973 177.412902 
L 235.931947 177.005311 
L 236.263731 176.828125 
L 236.748632 176.835702 
L 237.46223 177.087305 
L 238.477846 177.697695 
L 239.834187 178.786701 
L 241.487017 180.40838 
L 243.292969 182.495905 
L 244.990827 184.793706 
L 246.327423 186.962796 
L 247.169908 188.728956 
L 247.550603 190.004752 
L 247.587907 190.843338 
L 247.404027 191.355001 
L 247.068075 191.647309 
L 246.564438 191.776767 
L 245.818436 191.722534 
L 244.719056 191.403199 
L 243.145871 190.699859 
L 240.935558 189.452258 
L 237.918997 187.478901 
L 233.861425 184.544412 
L 228.571875 180.433554 
L 224.915554 177.360317 
L 224.746299 177.11248 
L 224.829565 177.113448 
L 225.434669 177.387213 
L 235.77383 182.588843 
L 239.251651 183.955832 
L 242.277704 184.913663 
L 244.856887 185.504955 
L 246.979583 185.772246 
L 248.649361 185.768849 
L 249.89896 185.555301 
L 250.770436 185.193208 
L 251.323884 184.73583 
L 251.623006 184.20908 
L 251.701764 183.620971 
L 251.559948 182.955742 
L 251.16477 182.212028 
L 250.476925 181.409173 
L 249.475487 180.592626 
L 248.182554 179.830096 
L 246.644171 179.182998 
L 244.929635 178.70375 
L 243.109081 178.426219 
L 241.256117 178.368194 
L 239.427654 178.531922 
L 237.661081 178.912974 
L 236.015101 179.493297 
L 234.50359 180.260868 
L 233.173011 181.183316 
L 232.040751 182.234974 
L 231.129968 183.378957 
L 230.456555 184.573938 
L 230.028807 185.775772 
L 229.847817 186.930285 
L 229.901143 187.995467 
L 230.164058 188.919573 
L 230.608231 189.68442 
L 231.203197 190.270447 
L 231.92392 190.668336 
L 232.748375 190.869247 
L 233.66413 190.862937 
L 234.659788 190.631161 
L 235.712153 190.153116 
L 236.782823 189.417245 
L 237.826756 188.42537 
L 238.794176 187.195684 
L 239.628289 185.775182 
L 240.283469 184.221705 
L 240.717008 182.629824 
L 240.910572 181.091913 
L 240.867119 179.70594 
L 240.617068 178.557907 
L 240.211209 177.691933 
L 239.705553 177.113764 
L 239.149686 176.802528 
L 238.566332 176.726187 
L 237.96995 176.872426 
L 237.371483 177.251407 
L 236.805891 177.878158 
L 236.331309 178.741706 
L 236.01205 179.788746 
L 235.896564 180.92877 
L 236.002441 182.065535 
L 236.322065 183.124336 
L 236.830074 184.04638 
L 237.498469 184.803256 
L 238.298735 185.377705 
L 239.217307 185.764798 
L 240.23707 185.952204 
L 241.329499 185.926438 
L 242.465711 185.677018 
L 243.596296 185.200215 
L 244.636638 184.521335 
L 245.496379 183.700282 
L 246.100564 182.824953 
L 246.411647 181.999103 
L 246.452971 181.290003 
L 246.272003 180.712021 
L 245.896514 180.254865 
L 245.32414 179.914836 
L 244.515917 179.703157 
L 243.43656 179.659089 
L 242.038549 179.834312 
L 240.31248 180.283256 
L 238.253299 181.056531 
L 235.907456 182.181275 
L 233.36938 183.648409 
L 230.829708 185.372062 
L 228.601251 187.145237 
L 227.115986 188.587871 
L 226.674703 189.154612 
L 226.674703 189.154612 
" clip-path="url(#p0221a24b0a)" style="fill: none; stroke: #000000; stroke-width: 0.1; stroke-linecap: square"/>
   </g>
  </g>
 </g>
 <defs>
  <clipPath id="p0221a24b0a">
   <rect x="57.6" y="41.472" width="357.12" height="266.112"/>
  </clipPath>
 </defs>
</svg>
